<?xml version="1.0" standalone="no"?>
<!DOCTYPE svg PUBLIC "-//W3C//DTD SVG 1.1//EN" "http://www.w3.org/Graphics/SVG/1.1/DTD/svg11.dtd">
<svg width="320mm" height="130mm" viewBox="0 -130 320 130" xmlns="http://www.w3.org/2000/svg" version="1.1">
<title>OpenSCAD Model</title>
<path d="
M 0,-0 L 320,-0 L 320,-130 L 0,-130 z
M 8.76,-85.36 L 8.76,-101.36 L 24.76,-101.36 L 24.76,-85.36 z
M 8.76,-104.4 L 8.76,-120.4 L 24.76,-120.4 L 24.76,-104.4 z
M 10.26,-26.84 L 10.26,-47.84 L 15.9,-47.84 L 15.9,-63.28 L 31.9,-63.28 L 31.9,-47.84
 L 42.08,-47.84 L 42.08,-63.28 L 58.08,-63.28 L 58.08,-47.28 L 42.26,-47.28 L 42.26,-26.84
 z
M 11.14,-9.2 L 11.14,-25.2 L 27.14,-25.2 L 27.14,-9.2 z
M 13.52,-66.32 L 13.52,-82.32 L 29.52,-82.32 L 29.52,-66.32 z
M 27.8,-85.36 L 27.8,-101.36 L 43.8,-101.36 L 43.8,-85.36 z
M 27.8,-104.4 L 27.8,-120.4 L 43.8,-120.4 L 43.8,-104.4 z
M 32.56,-9.2 L 32.56,-25.2 L 48.56,-25.2 L 48.56,-9.2 z
M 37.32,-66.32 L 37.32,-82.32 L 53.32,-82.32 L 53.32,-66.32 z
M 46.84,-28.24 L 46.84,-44.24 L 62.84,-44.24 L 62.84,-28.24 z
M 46.84,-85.36 L 46.84,-101.36 L 62.84,-101.36 L 62.84,-85.36 z
M 46.84,-104.4 L 46.84,-120.4 L 62.84,-120.4 L 62.84,-104.4 z
M 53.98,-9.2 L 53.98,-25.2 L 69.98,-25.2 L 69.98,-9.2 z
M 56.36,-66.32 L 56.36,-82.32 L 72.36,-82.32 L 72.36,-66.32 z
M 61.12,-47.28 L 61.12,-63.28 L 77.12,-63.28 L 77.12,-47.28 z
M 65.88,-28.24 L 65.88,-44.24 L 81.88,-44.24 L 81.88,-28.8 L 84.92,-28.8 L 84.92,-44.24
 L 100.92,-44.24 L 100.92,-28.8 L 103.96,-28.8 L 103.96,-44.24 L 119.96,-44.24 L 119.96,-28.8
 L 123,-28.8 L 123,-44.24 L 139,-44.24 L 139,-28.8 L 142.04,-28.8 L 142.04,-44.24
 L 158.04,-44.24 L 158.04,-28.8 L 161.08,-28.8 L 161.08,-44.24 L 177.08,-44.24 L 177.08,-28.8
 L 180.12,-28.8 L 180.12,-44.24 L 196.12,-44.24 L 196.12,-28.24 L 187.4,-28.24 L 187.4,-7.8
 L 179.4,-7.8 L 179.4,-24.6 L 141.38,-24.6 L 141.38,-9.2 L 125.38,-9.2 L 125.38,-24.6
 L 87.4,-24.6 L 87.4,-7.8 L 79.4,-7.8 L 79.4,-28.24 z
M 65.88,-85.36 L 65.88,-101.36 L 81.88,-101.36 L 81.88,-85.36 z
M 65.88,-104.4 L 65.88,-120.4 L 81.88,-120.4 L 81.88,-104.4 z
M 75.4,-66.32 L 75.4,-82.32 L 91.4,-82.32 L 91.4,-66.32 z
M 80.16,-47.28 L 80.16,-63.28 L 96.16,-63.28 L 96.16,-47.28 z
M 84.92,-85.36 L 84.92,-101.36 L 100.92,-101.36 L 100.92,-85.36 z
M 84.92,-104.4 L 84.92,-120.4 L 100.92,-120.4 L 100.92,-104.4 z
M 94.44,-66.32 L 94.44,-82.32 L 110.44,-82.32 L 110.44,-66.32 z
M 99.2,-47.28 L 99.2,-63.28 L 115.2,-63.28 L 115.2,-47.28 z
M 103.96,-85.36 L 103.96,-101.36 L 119.96,-101.36 L 119.96,-85.36 z
M 103.96,-104.4 L 103.96,-120.4 L 119.96,-120.4 L 119.96,-104.4 z
M 113.48,-66.32 L 113.48,-82.32 L 129.48,-82.32 L 129.48,-66.32 z
M 118.24,-47.28 L 118.24,-63.28 L 134.24,-63.28 L 134.24,-47.28 z
M 123,-85.36 L 123,-101.36 L 139,-101.36 L 139,-85.36 z
M 123,-104.4 L 123,-120.4 L 139,-120.4 L 139,-104.4 z
M 132.52,-66.32 L 132.52,-82.32 L 148.52,-82.32 L 148.52,-66.32 z
M 137.28,-47.28 L 137.28,-63.28 L 153.28,-63.28 L 153.28,-47.28 z
M 142.04,-85.36 L 142.04,-101.36 L 158.04,-101.36 L 158.04,-85.36 z
M 142.04,-104.4 L 142.04,-120.4 L 158.04,-120.4 L 158.04,-104.4 z
M 151.56,-66.32 L 151.56,-82.32 L 167.56,-82.32 L 167.56,-66.32 z
M 156.32,-47.28 L 156.32,-63.28 L 172.32,-63.28 L 172.32,-47.28 z
M 161.08,-85.36 L 161.08,-101.36 L 177.08,-101.36 L 177.08,-85.36 z
M 161.08,-104.4 L 161.08,-120.4 L 177.08,-120.4 L 177.08,-104.4 z
M 170.6,-66.32 L 170.6,-82.32 L 186.6,-82.32 L 186.6,-66.32 z
M 175.36,-47.28 L 175.36,-63.28 L 191.36,-63.28 L 191.36,-47.28 z
M 180.12,-85.36 L 180.12,-101.36 L 196.12,-101.36 L 196.12,-85.36 z
M 180.12,-104.4 L 180.12,-120.4 L 196.12,-120.4 L 196.12,-104.4 z
M 189.64,-66.32 L 189.64,-82.32 L 205.64,-82.32 L 205.64,-66.32 z
M 194.4,-47.28 L 194.4,-63.28 L 210.4,-63.28 L 210.4,-47.28 z
M 196.78,-9.2 L 196.78,-25.2 L 212.78,-25.2 L 212.78,-9.2 z
M 199.16,-28.24 L 199.16,-44.24 L 215.16,-44.24 L 215.16,-28.24 z
M 199.16,-85.36 L 199.16,-101.36 L 215.16,-101.36 L 215.16,-85.36 z
M 199.16,-104.4 L 199.16,-120.4 L 215.16,-120.4 L 215.16,-104.4 z
M 208.68,-66.32 L 208.68,-82.32 L 224.68,-82.32 L 224.68,-66.32 z
M 213.44,-47.28 L 213.44,-63.28 L 229.44,-63.28 L 229.44,-47.28 z
M 218.2,-9.2 L 218.2,-25.2 L 234.2,-25.2 L 234.2,-9.2 z
M 218.2,-28.24 L 218.2,-44.24 L 234.2,-44.24 L 234.2,-28.24 z
M 218.2,-85.36 L 218.2,-101.36 L 234.2,-101.36 L 234.2,-85.36 z
M 218.2,-104.4 L 218.2,-120.4 L 234.2,-120.4 L 234.2,-104.4 z
M 227.72,-66.32 L 227.72,-82.32 L 243.72,-82.32 L 243.72,-66.32 z
M 232.48,-47.28 L 232.48,-63.28 L 248.48,-63.28 L 248.48,-47.28 z
M 237.24,-9.2 L 237.24,-25.2 L 253.24,-25.2 L 253.24,-9.2 z
M 237.24,-28.24 L 237.24,-44.24 L 253.24,-44.24 L 253.24,-28.24 z
M 237.24,-85.36 L 237.24,-101.36 L 253.24,-101.36 L 253.24,-85.36 z
M 237.24,-104.4 L 237.24,-120.4 L 253.24,-120.4 L 253.24,-104.4 z
M 246.76,-66.32 L 246.76,-82.32 L 262.76,-82.32 L 262.76,-66.32 z
M 251.52,-47.28 L 251.52,-63.28 L 267.52,-63.28 L 267.52,-47.28 z
M 256.28,-9.2 L 256.28,-25.2 L 272.28,-25.2 L 272.28,-9.2 z
M 256.28,-28.24 L 256.28,-44.24 L 272.28,-44.24 L 272.28,-28.24 z
M 258.28,-84.36 L 258.28,-104.36 L 290.28,-104.36 L 290.28,-84.36 z
M 271.85,-49.28 L 271.85,-81.28 L 291.85,-81.28 L 291.85,-49.28 z
M 275.32,-9.2 L 275.32,-25.2 L 291.32,-25.2 L 291.32,-9.2 z
M 275.32,-28.24 L 275.32,-44.24 L 291.32,-44.24 L 291.32,-28.24 z
M 294.36,-9.2 L 294.36,-25.2 L 310.36,-25.2 L 310.36,-9.2 z
M 294.36,-28.24 L 294.36,-44.24 L 310.36,-44.24 L 310.36,-28.24 z
M 294.36,-47.28 L 294.36,-63.28 L 310.36,-63.28 L 310.36,-47.28 z
M 294.36,-66.32 L 294.36,-82.32 L 310.36,-82.32 L 310.36,-66.32 z
M 294.36,-85.36 L 294.36,-101.36 L 310.36,-101.36 L 310.36,-85.36 z
M 294.36,-104.4 L 294.36,-120.4 L 310.36,-120.4 L 310.36,-104.4 z
" stroke="black" fill="lightgray" stroke-width="0.5"/>
</svg>
