M48
; DRILL file {KiCad (5.1.9)-1} date 03/19/21 21:05:35
; FORMAT={-:-/ absolute / metric / decimal}
; #@! TF.CreationDate,2021-03-19T21:05:35+01:00
; #@! TF.GenerationSoftware,Kicad,Pcbnew,(5.1.9)-1
; #@! TF.FileFunction,NonPlated,1,2,NPTH
FMAT,2
METRIC
T1C1.700
T2C3.050
T3C4.000
%
G90
G05
T1
X59.66Y-68.62
X59.66Y-87.67
X62.06Y-163.87
X64.42Y-106.72
X66.81Y-125.77
X69.19Y-144.82
X69.82Y-68.62
X69.82Y-87.67
X72.22Y-163.87
X74.58Y-106.72
X76.97Y-125.77
X78.71Y-68.62
X78.71Y-87.67
X79.35Y-144.82
X83.5Y-163.87
X88.235Y-106.72
X88.87Y-68.62
X88.87Y-87.67
X93.01Y-125.77
X93.66Y-163.87
X97.755Y-144.82
X97.76Y-68.62
X97.76Y-87.67
X98.395Y-106.72
X103.17Y-125.77
X104.93Y-163.87
X107.285Y-106.72
X107.915Y-144.82
X107.92Y-68.62
X107.92Y-87.67
X112.06Y-125.77
X115.09Y-163.87
X116.805Y-144.82
X116.81Y-68.62
X116.81Y-87.67
X117.445Y-106.72
X122.22Y-125.77
X126.335Y-106.72
X126.965Y-144.82
X126.97Y-68.62
X126.97Y-87.67
X131.11Y-125.77
X135.855Y-144.82
X135.86Y-68.62
X135.86Y-87.67
X136.495Y-106.72
X141.27Y-125.77
X145.385Y-106.72
X146.015Y-144.82
X146.02Y-68.62
X146.02Y-87.67
X150.16Y-125.77
X154.905Y-144.82
X154.91Y-68.62
X154.91Y-87.67
X155.545Y-106.72
X160.32Y-125.77
X164.435Y-106.72
X165.065Y-144.82
X165.07Y-68.62
X165.07Y-87.67
X169.21Y-125.77
X173.955Y-144.82
X173.96Y-68.62
X173.96Y-87.67
X174.595Y-106.72
X176.37Y-163.87
X179.37Y-125.77
X183.485Y-106.72
X184.115Y-144.82
X184.12Y-68.62
X184.12Y-87.67
X186.53Y-163.87
X188.26Y-125.77
X193.005Y-144.82
X193.01Y-68.62
X193.01Y-87.67
X193.645Y-106.72
X198.42Y-125.77
X202.535Y-106.72
X203.165Y-144.82
X203.17Y-68.62
X203.17Y-87.67
X207.31Y-125.77
X212.055Y-144.82
X212.06Y-68.62
X212.06Y-87.67
X212.695Y-106.72
X217.47Y-125.77
X221.585Y-106.72
X222.215Y-144.82
X222.22Y-68.62
X222.22Y-87.67
X226.36Y-125.77
X231.105Y-144.82
X231.11Y-68.62
X231.11Y-87.67
X231.745Y-106.72
X236.52Y-125.77
X240.635Y-106.72
X241.265Y-144.82
X241.27Y-68.62
X241.27Y-87.67
X245.41Y-125.77
X247.81Y-163.87
X250.155Y-144.82
X250.16Y-68.62
X250.16Y-87.67
X250.795Y-106.72
X255.57Y-125.77
X257.97Y-163.87
X259.685Y-106.72
X260.315Y-144.82
X260.32Y-68.62
X260.32Y-87.67
X264.46Y-125.77
X269.205Y-144.82
X269.21Y-68.62
X269.21Y-87.67
X269.24Y-163.87
X269.845Y-106.72
X274.62Y-125.77
X278.735Y-106.72
X279.365Y-144.82
X279.37Y-68.62
X279.37Y-87.67
X279.4Y-163.87
X283.51Y-125.77
X288.255Y-144.82
X288.26Y-68.62
X288.26Y-87.67
X288.26Y-163.88
X288.895Y-106.72
X293.67Y-125.77
X297.785Y-106.72
X298.415Y-144.82
X298.42Y-68.62
X298.42Y-87.67
X298.42Y-163.88
X302.56Y-125.77
X307.31Y-144.83
X307.315Y-163.88
X307.945Y-106.72
X312.72Y-125.77
X316.835Y-87.67
X317.47Y-144.83
X317.475Y-163.88
X323.98Y-116.255
X326.36Y-144.83
X326.365Y-163.88
X326.995Y-87.67
X334.14Y-116.255
X336.52Y-144.83
X336.525Y-163.88
X345.41Y-68.62
X345.41Y-87.67
X345.41Y-106.72
X345.41Y-125.77
X345.41Y-144.82
X345.41Y-163.87
X355.57Y-68.62
X355.57Y-87.67
X355.57Y-106.72
X355.57Y-125.77
X355.57Y-144.82
X355.57Y-163.87
T2
X62.37Y-151.82
X86.17Y-151.82
X131.45Y-170.87
X231.45Y-170.87
X310.015Y-94.67
X322.06Y-104.355
X322.06Y-128.155
X333.815Y-94.67
T3
X62.37Y-136.58
X64.74Y-68.62
X64.74Y-87.67
X67.14Y-163.87
X69.5Y-106.72
X71.89Y-125.77
X74.27Y-144.82
X83.79Y-68.62
X83.79Y-87.67
X86.17Y-136.58
X88.58Y-163.87
X93.315Y-106.72
X98.09Y-125.77
X102.835Y-144.82
X102.84Y-68.62
X102.84Y-87.67
X110.01Y-163.87
X112.365Y-106.72
X117.14Y-125.77
X121.885Y-144.82
X121.89Y-68.62
X121.89Y-87.67
X131.415Y-106.72
X131.45Y-155.63
X136.19Y-125.77
X140.935Y-144.82
X140.94Y-68.62
X140.94Y-87.67
X150.465Y-106.72
X155.24Y-125.77
X159.985Y-144.82
X159.99Y-68.62
X159.99Y-87.67
X169.515Y-106.72
X174.29Y-125.77
X179.035Y-144.82
X179.04Y-68.62
X179.04Y-87.67
X181.45Y-163.87
X188.565Y-106.72
X193.34Y-125.77
X198.085Y-144.82
X198.09Y-68.62
X198.09Y-87.67
X207.615Y-106.72
X212.39Y-125.77
X217.135Y-144.82
X217.14Y-68.62
X217.14Y-87.67
X226.665Y-106.72
X231.44Y-125.77
X231.45Y-155.63
X236.185Y-144.82
X236.19Y-68.62
X236.19Y-87.67
X245.715Y-106.72
X250.49Y-125.77
X252.89Y-163.87
X255.235Y-144.82
X255.24Y-68.62
X255.24Y-87.67
X264.765Y-106.72
X269.54Y-125.77
X274.285Y-144.82
X274.29Y-68.62
X274.29Y-87.67
X274.32Y-163.87
X283.815Y-106.72
X288.59Y-125.77
X293.335Y-144.82
X293.34Y-68.62
X293.34Y-87.67
X293.34Y-163.88
X302.865Y-106.72
X307.64Y-125.77
X310.015Y-79.43
X312.39Y-144.83
X312.395Y-163.88
X321.915Y-87.67
X329.06Y-116.255
X331.44Y-144.83
X331.445Y-163.88
X333.815Y-79.43
X337.3Y-104.355
X337.3Y-128.155
X350.49Y-68.62
X350.49Y-87.67
X350.49Y-106.72
X350.49Y-125.77
X350.49Y-144.82
X350.49Y-163.87
T0
M30
