%TF.GenerationSoftware,KiCad,Pcbnew,(5.1.9)-1*%
%TF.CreationDate,2021-03-14T17:48:20+01:00*%
%TF.ProjectId,mkb_01,6d6b625f-3031-42e6-9b69-6361645f7063,rev?*%
%TF.SameCoordinates,Original*%
%TF.FileFunction,Paste,Top*%
%TF.FilePolarity,Positive*%
%FSLAX46Y46*%
G04 Gerber Fmt 4.6, Leading zero omitted, Abs format (unit mm)*
G04 Created by KiCad (PCBNEW (5.1.9)-1) date 2021-03-14 17:48:20*
%MOMM*%
%LPD*%
G01*
G04 APERTURE LIST*
G04 APERTURE END LIST*
%TO.C,D80*%
G36*
G01*
X137205000Y-119840000D02*
X137205000Y-120160000D01*
G75*
G02*
X137045000Y-120320000I-160000J0D01*
G01*
X136600000Y-120320000D01*
G75*
G02*
X136440000Y-120160000I0J160000D01*
G01*
X136440000Y-119840000D01*
G75*
G02*
X136600000Y-119680000I160000J0D01*
G01*
X137045000Y-119680000D01*
G75*
G02*
X137205000Y-119840000I0J-160000D01*
G01*
G37*
G36*
G01*
X136060000Y-119840000D02*
X136060000Y-120160000D01*
G75*
G02*
X135900000Y-120320000I-160000J0D01*
G01*
X135455000Y-120320000D01*
G75*
G02*
X135295000Y-120160000I0J160000D01*
G01*
X135295000Y-119840000D01*
G75*
G02*
X135455000Y-119680000I160000J0D01*
G01*
X135900000Y-119680000D01*
G75*
G02*
X136060000Y-119840000I0J-160000D01*
G01*
G37*
%TD*%
%TO.C,D81*%
G36*
G01*
X213205000Y-119840000D02*
X213205000Y-120160000D01*
G75*
G02*
X213045000Y-120320000I-160000J0D01*
G01*
X212600000Y-120320000D01*
G75*
G02*
X212440000Y-120160000I0J160000D01*
G01*
X212440000Y-119840000D01*
G75*
G02*
X212600000Y-119680000I160000J0D01*
G01*
X213045000Y-119680000D01*
G75*
G02*
X213205000Y-119840000I0J-160000D01*
G01*
G37*
G36*
G01*
X212060000Y-119840000D02*
X212060000Y-120160000D01*
G75*
G02*
X211900000Y-120320000I-160000J0D01*
G01*
X211455000Y-120320000D01*
G75*
G02*
X211295000Y-120160000I0J160000D01*
G01*
X211295000Y-119840000D01*
G75*
G02*
X211455000Y-119680000I160000J0D01*
G01*
X211900000Y-119680000D01*
G75*
G02*
X212060000Y-119840000I0J-160000D01*
G01*
G37*
%TD*%
%TO.C,D82*%
G36*
G01*
X94205000Y-100840000D02*
X94205000Y-101160000D01*
G75*
G02*
X94045000Y-101320000I-160000J0D01*
G01*
X93600000Y-101320000D01*
G75*
G02*
X93440000Y-101160000I0J160000D01*
G01*
X93440000Y-100840000D01*
G75*
G02*
X93600000Y-100680000I160000J0D01*
G01*
X94045000Y-100680000D01*
G75*
G02*
X94205000Y-100840000I0J-160000D01*
G01*
G37*
G36*
G01*
X93060000Y-100840000D02*
X93060000Y-101160000D01*
G75*
G02*
X92900000Y-101320000I-160000J0D01*
G01*
X92455000Y-101320000D01*
G75*
G02*
X92295000Y-101160000I0J160000D01*
G01*
X92295000Y-100840000D01*
G75*
G02*
X92455000Y-100680000I160000J0D01*
G01*
X92900000Y-100680000D01*
G75*
G02*
X93060000Y-100840000I0J-160000D01*
G01*
G37*
%TD*%
%TO.C,D83*%
G36*
G01*
X69310000Y-100840000D02*
X69310000Y-101160000D01*
G75*
G02*
X69150000Y-101320000I-160000J0D01*
G01*
X68705000Y-101320000D01*
G75*
G02*
X68545000Y-101160000I0J160000D01*
G01*
X68545000Y-100840000D01*
G75*
G02*
X68705000Y-100680000I160000J0D01*
G01*
X69150000Y-100680000D01*
G75*
G02*
X69310000Y-100840000I0J-160000D01*
G01*
G37*
G36*
G01*
X70455000Y-100840000D02*
X70455000Y-101160000D01*
G75*
G02*
X70295000Y-101320000I-160000J0D01*
G01*
X69850000Y-101320000D01*
G75*
G02*
X69690000Y-101160000I0J160000D01*
G01*
X69690000Y-100840000D01*
G75*
G02*
X69850000Y-100680000I160000J0D01*
G01*
X70295000Y-100680000D01*
G75*
G02*
X70455000Y-100840000I0J-160000D01*
G01*
G37*
%TD*%
%TO.C,D84*%
G36*
G01*
X256205000Y-81840000D02*
X256205000Y-82160000D01*
G75*
G02*
X256045000Y-82320000I-160000J0D01*
G01*
X255600000Y-82320000D01*
G75*
G02*
X255440000Y-82160000I0J160000D01*
G01*
X255440000Y-81840000D01*
G75*
G02*
X255600000Y-81680000I160000J0D01*
G01*
X256045000Y-81680000D01*
G75*
G02*
X256205000Y-81840000I0J-160000D01*
G01*
G37*
G36*
G01*
X255060000Y-81840000D02*
X255060000Y-82160000D01*
G75*
G02*
X254900000Y-82320000I-160000J0D01*
G01*
X254455000Y-82320000D01*
G75*
G02*
X254295000Y-82160000I0J160000D01*
G01*
X254295000Y-81840000D01*
G75*
G02*
X254455000Y-81680000I160000J0D01*
G01*
X254900000Y-81680000D01*
G75*
G02*
X255060000Y-81840000I0J-160000D01*
G01*
G37*
%TD*%
%TO.C,D85*%
G36*
G01*
X216810000Y-62840000D02*
X216810000Y-63160000D01*
G75*
G02*
X216650000Y-63320000I-160000J0D01*
G01*
X216205000Y-63320000D01*
G75*
G02*
X216045000Y-63160000I0J160000D01*
G01*
X216045000Y-62840000D01*
G75*
G02*
X216205000Y-62680000I160000J0D01*
G01*
X216650000Y-62680000D01*
G75*
G02*
X216810000Y-62840000I0J-160000D01*
G01*
G37*
G36*
G01*
X217955000Y-62840000D02*
X217955000Y-63160000D01*
G75*
G02*
X217795000Y-63320000I-160000J0D01*
G01*
X217350000Y-63320000D01*
G75*
G02*
X217190000Y-63160000I0J160000D01*
G01*
X217190000Y-62840000D01*
G75*
G02*
X217350000Y-62680000I160000J0D01*
G01*
X217795000Y-62680000D01*
G75*
G02*
X217955000Y-62840000I0J-160000D01*
G01*
G37*
%TD*%
%TO.C,D86*%
G36*
G01*
X349545000Y-82160000D02*
X349545000Y-81840000D01*
G75*
G02*
X349705000Y-81680000I160000J0D01*
G01*
X350150000Y-81680000D01*
G75*
G02*
X350310000Y-81840000I0J-160000D01*
G01*
X350310000Y-82160000D01*
G75*
G02*
X350150000Y-82320000I-160000J0D01*
G01*
X349705000Y-82320000D01*
G75*
G02*
X349545000Y-82160000I0J160000D01*
G01*
G37*
G36*
G01*
X350690000Y-82160000D02*
X350690000Y-81840000D01*
G75*
G02*
X350850000Y-81680000I160000J0D01*
G01*
X351295000Y-81680000D01*
G75*
G02*
X351455000Y-81840000I0J-160000D01*
G01*
X351455000Y-82160000D01*
G75*
G02*
X351295000Y-82320000I-160000J0D01*
G01*
X350850000Y-82320000D01*
G75*
G02*
X350690000Y-82160000I0J160000D01*
G01*
G37*
%TD*%
%TO.C,D87*%
G36*
G01*
X293060000Y-158090000D02*
X293060000Y-158410000D01*
G75*
G02*
X292900000Y-158570000I-160000J0D01*
G01*
X292455000Y-158570000D01*
G75*
G02*
X292295000Y-158410000I0J160000D01*
G01*
X292295000Y-158090000D01*
G75*
G02*
X292455000Y-157930000I160000J0D01*
G01*
X292900000Y-157930000D01*
G75*
G02*
X293060000Y-158090000I0J-160000D01*
G01*
G37*
G36*
G01*
X294205000Y-158090000D02*
X294205000Y-158410000D01*
G75*
G02*
X294045000Y-158570000I-160000J0D01*
G01*
X293600000Y-158570000D01*
G75*
G02*
X293440000Y-158410000I0J160000D01*
G01*
X293440000Y-158090000D01*
G75*
G02*
X293600000Y-157930000I160000J0D01*
G01*
X294045000Y-157930000D01*
G75*
G02*
X294205000Y-158090000I0J-160000D01*
G01*
G37*
%TD*%
%TO.C,D88*%
G36*
G01*
X178810000Y-81840000D02*
X178810000Y-82160000D01*
G75*
G02*
X178650000Y-82320000I-160000J0D01*
G01*
X178205000Y-82320000D01*
G75*
G02*
X178045000Y-82160000I0J160000D01*
G01*
X178045000Y-81840000D01*
G75*
G02*
X178205000Y-81680000I160000J0D01*
G01*
X178650000Y-81680000D01*
G75*
G02*
X178810000Y-81840000I0J-160000D01*
G01*
G37*
G36*
G01*
X179955000Y-81840000D02*
X179955000Y-82160000D01*
G75*
G02*
X179795000Y-82320000I-160000J0D01*
G01*
X179350000Y-82320000D01*
G75*
G02*
X179190000Y-82160000I0J160000D01*
G01*
X179190000Y-81840000D01*
G75*
G02*
X179350000Y-81680000I160000J0D01*
G01*
X179795000Y-81680000D01*
G75*
G02*
X179955000Y-81840000I0J-160000D01*
G01*
G37*
%TD*%
%TO.C,D89*%
G36*
G01*
X194205000Y-119840000D02*
X194205000Y-120160000D01*
G75*
G02*
X194045000Y-120320000I-160000J0D01*
G01*
X193600000Y-120320000D01*
G75*
G02*
X193440000Y-120160000I0J160000D01*
G01*
X193440000Y-119840000D01*
G75*
G02*
X193600000Y-119680000I160000J0D01*
G01*
X194045000Y-119680000D01*
G75*
G02*
X194205000Y-119840000I0J-160000D01*
G01*
G37*
G36*
G01*
X193060000Y-119840000D02*
X193060000Y-120160000D01*
G75*
G02*
X192900000Y-120320000I-160000J0D01*
G01*
X192455000Y-120320000D01*
G75*
G02*
X192295000Y-120160000I0J160000D01*
G01*
X192295000Y-119840000D01*
G75*
G02*
X192455000Y-119680000I160000J0D01*
G01*
X192900000Y-119680000D01*
G75*
G02*
X193060000Y-119840000I0J-160000D01*
G01*
G37*
%TD*%
%TO.C,D90*%
G36*
G01*
X103755000Y-139090000D02*
X103755000Y-139410000D01*
G75*
G02*
X103595000Y-139570000I-160000J0D01*
G01*
X103150000Y-139570000D01*
G75*
G02*
X102990000Y-139410000I0J160000D01*
G01*
X102990000Y-139090000D01*
G75*
G02*
X103150000Y-138930000I160000J0D01*
G01*
X103595000Y-138930000D01*
G75*
G02*
X103755000Y-139090000I0J-160000D01*
G01*
G37*
G36*
G01*
X102610000Y-139090000D02*
X102610000Y-139410000D01*
G75*
G02*
X102450000Y-139570000I-160000J0D01*
G01*
X102005000Y-139570000D01*
G75*
G02*
X101845000Y-139410000I0J160000D01*
G01*
X101845000Y-139090000D01*
G75*
G02*
X102005000Y-138930000I160000J0D01*
G01*
X102450000Y-138930000D01*
G75*
G02*
X102610000Y-139090000I0J-160000D01*
G01*
G37*
%TD*%
%TO.C,D91*%
G36*
G01*
X251455000Y-119840000D02*
X251455000Y-120160000D01*
G75*
G02*
X251295000Y-120320000I-160000J0D01*
G01*
X250850000Y-120320000D01*
G75*
G02*
X250690000Y-120160000I0J160000D01*
G01*
X250690000Y-119840000D01*
G75*
G02*
X250850000Y-119680000I160000J0D01*
G01*
X251295000Y-119680000D01*
G75*
G02*
X251455000Y-119840000I0J-160000D01*
G01*
G37*
G36*
G01*
X250310000Y-119840000D02*
X250310000Y-120160000D01*
G75*
G02*
X250150000Y-120320000I-160000J0D01*
G01*
X249705000Y-120320000D01*
G75*
G02*
X249545000Y-120160000I0J160000D01*
G01*
X249545000Y-119840000D01*
G75*
G02*
X249705000Y-119680000I160000J0D01*
G01*
X250150000Y-119680000D01*
G75*
G02*
X250310000Y-119840000I0J-160000D01*
G01*
G37*
%TD*%
%TO.C,D92*%
G36*
G01*
X293060000Y-81915001D02*
X293060000Y-82235001D01*
G75*
G02*
X292900000Y-82395001I-160000J0D01*
G01*
X292455000Y-82395001D01*
G75*
G02*
X292295000Y-82235001I0J160000D01*
G01*
X292295000Y-81915001D01*
G75*
G02*
X292455000Y-81755001I160000J0D01*
G01*
X292900000Y-81755001D01*
G75*
G02*
X293060000Y-81915001I0J-160000D01*
G01*
G37*
G36*
G01*
X294205000Y-81915001D02*
X294205000Y-82235001D01*
G75*
G02*
X294045000Y-82395001I-160000J0D01*
G01*
X293600000Y-82395001D01*
G75*
G02*
X293440000Y-82235001I0J160000D01*
G01*
X293440000Y-81915001D01*
G75*
G02*
X293600000Y-81755001I160000J0D01*
G01*
X294045000Y-81755001D01*
G75*
G02*
X294205000Y-81915001I0J-160000D01*
G01*
G37*
%TD*%
%TO.C,D93*%
G36*
G01*
X121560000Y-81840000D02*
X121560000Y-82160000D01*
G75*
G02*
X121400000Y-82320000I-160000J0D01*
G01*
X120955000Y-82320000D01*
G75*
G02*
X120795000Y-82160000I0J160000D01*
G01*
X120795000Y-81840000D01*
G75*
G02*
X120955000Y-81680000I160000J0D01*
G01*
X121400000Y-81680000D01*
G75*
G02*
X121560000Y-81840000I0J-160000D01*
G01*
G37*
G36*
G01*
X122705000Y-81840000D02*
X122705000Y-82160000D01*
G75*
G02*
X122545000Y-82320000I-160000J0D01*
G01*
X122100000Y-82320000D01*
G75*
G02*
X121940000Y-82160000I0J160000D01*
G01*
X121940000Y-81840000D01*
G75*
G02*
X122100000Y-81680000I160000J0D01*
G01*
X122545000Y-81680000D01*
G75*
G02*
X122705000Y-81840000I0J-160000D01*
G01*
G37*
%TD*%
%TO.C,D94*%
G36*
G01*
X351455000Y-158090000D02*
X351455000Y-158410000D01*
G75*
G02*
X351295000Y-158570000I-160000J0D01*
G01*
X350850000Y-158570000D01*
G75*
G02*
X350690000Y-158410000I0J160000D01*
G01*
X350690000Y-158090000D01*
G75*
G02*
X350850000Y-157930000I160000J0D01*
G01*
X351295000Y-157930000D01*
G75*
G02*
X351455000Y-158090000I0J-160000D01*
G01*
G37*
G36*
G01*
X350310000Y-158090000D02*
X350310000Y-158410000D01*
G75*
G02*
X350150000Y-158570000I-160000J0D01*
G01*
X349705000Y-158570000D01*
G75*
G02*
X349545000Y-158410000I0J160000D01*
G01*
X349545000Y-158090000D01*
G75*
G02*
X349705000Y-157930000I160000J0D01*
G01*
X350150000Y-157930000D01*
G75*
G02*
X350310000Y-158090000I0J-160000D01*
G01*
G37*
%TD*%
%TO.C,D95*%
G36*
G01*
X329190000Y-122160000D02*
X329190000Y-121840000D01*
G75*
G02*
X329350000Y-121680000I160000J0D01*
G01*
X329795000Y-121680000D01*
G75*
G02*
X329955000Y-121840000I0J-160000D01*
G01*
X329955000Y-122160000D01*
G75*
G02*
X329795000Y-122320000I-160000J0D01*
G01*
X329350000Y-122320000D01*
G75*
G02*
X329190000Y-122160000I0J160000D01*
G01*
G37*
G36*
G01*
X328045000Y-122160000D02*
X328045000Y-121840000D01*
G75*
G02*
X328205000Y-121680000I160000J0D01*
G01*
X328650000Y-121680000D01*
G75*
G02*
X328810000Y-121840000I0J-160000D01*
G01*
X328810000Y-122160000D01*
G75*
G02*
X328650000Y-122320000I-160000J0D01*
G01*
X328205000Y-122320000D01*
G75*
G02*
X328045000Y-122160000I0J160000D01*
G01*
G37*
%TD*%
%TO.C,D96*%
G36*
G01*
X293060000Y-62840000D02*
X293060000Y-63160000D01*
G75*
G02*
X292900000Y-63320000I-160000J0D01*
G01*
X292455000Y-63320000D01*
G75*
G02*
X292295000Y-63160000I0J160000D01*
G01*
X292295000Y-62840000D01*
G75*
G02*
X292455000Y-62680000I160000J0D01*
G01*
X292900000Y-62680000D01*
G75*
G02*
X293060000Y-62840000I0J-160000D01*
G01*
G37*
G36*
G01*
X294205000Y-62840000D02*
X294205000Y-63160000D01*
G75*
G02*
X294045000Y-63320000I-160000J0D01*
G01*
X293600000Y-63320000D01*
G75*
G02*
X293440000Y-63160000I0J160000D01*
G01*
X293440000Y-62840000D01*
G75*
G02*
X293600000Y-62680000I160000J0D01*
G01*
X294045000Y-62680000D01*
G75*
G02*
X294205000Y-62840000I0J-160000D01*
G01*
G37*
%TD*%
%TO.C,D97*%
G36*
G01*
X197810000Y-62840000D02*
X197810000Y-63160000D01*
G75*
G02*
X197650000Y-63320000I-160000J0D01*
G01*
X197205000Y-63320000D01*
G75*
G02*
X197045000Y-63160000I0J160000D01*
G01*
X197045000Y-62840000D01*
G75*
G02*
X197205000Y-62680000I160000J0D01*
G01*
X197650000Y-62680000D01*
G75*
G02*
X197810000Y-62840000I0J-160000D01*
G01*
G37*
G36*
G01*
X198955000Y-62840000D02*
X198955000Y-63160000D01*
G75*
G02*
X198795000Y-63320000I-160000J0D01*
G01*
X198350000Y-63320000D01*
G75*
G02*
X198190000Y-63160000I0J160000D01*
G01*
X198190000Y-62840000D01*
G75*
G02*
X198350000Y-62680000I160000J0D01*
G01*
X198795000Y-62680000D01*
G75*
G02*
X198955000Y-62840000I0J-160000D01*
G01*
G37*
%TD*%
%TO.C,D98*%
G36*
G01*
X332455000Y-158090000D02*
X332455000Y-158410000D01*
G75*
G02*
X332295000Y-158570000I-160000J0D01*
G01*
X331850000Y-158570000D01*
G75*
G02*
X331690000Y-158410000I0J160000D01*
G01*
X331690000Y-158090000D01*
G75*
G02*
X331850000Y-157930000I160000J0D01*
G01*
X332295000Y-157930000D01*
G75*
G02*
X332455000Y-158090000I0J-160000D01*
G01*
G37*
G36*
G01*
X331310000Y-158090000D02*
X331310000Y-158410000D01*
G75*
G02*
X331150000Y-158570000I-160000J0D01*
G01*
X330705000Y-158570000D01*
G75*
G02*
X330545000Y-158410000I0J160000D01*
G01*
X330545000Y-158090000D01*
G75*
G02*
X330705000Y-157930000I160000J0D01*
G01*
X331150000Y-157930000D01*
G75*
G02*
X331310000Y-158090000I0J-160000D01*
G01*
G37*
%TD*%
%TO.C,D99*%
G36*
G01*
X307435001Y-119840000D02*
X307435001Y-120160000D01*
G75*
G02*
X307275001Y-120320000I-160000J0D01*
G01*
X306830001Y-120320000D01*
G75*
G02*
X306670001Y-120160000I0J160000D01*
G01*
X306670001Y-119840000D01*
G75*
G02*
X306830001Y-119680000I160000J0D01*
G01*
X307275001Y-119680000D01*
G75*
G02*
X307435001Y-119840000I0J-160000D01*
G01*
G37*
G36*
G01*
X308580001Y-119840000D02*
X308580001Y-120160000D01*
G75*
G02*
X308420001Y-120320000I-160000J0D01*
G01*
X307975001Y-120320000D01*
G75*
G02*
X307815001Y-120160000I0J160000D01*
G01*
X307815001Y-119840000D01*
G75*
G02*
X307975001Y-119680000I160000J0D01*
G01*
X308420001Y-119680000D01*
G75*
G02*
X308580001Y-119840000I0J-160000D01*
G01*
G37*
%TD*%
%TO.C,D100*%
G36*
G01*
X231310000Y-119840000D02*
X231310000Y-120160000D01*
G75*
G02*
X231150000Y-120320000I-160000J0D01*
G01*
X230705000Y-120320000D01*
G75*
G02*
X230545000Y-120160000I0J160000D01*
G01*
X230545000Y-119840000D01*
G75*
G02*
X230705000Y-119680000I160000J0D01*
G01*
X231150000Y-119680000D01*
G75*
G02*
X231310000Y-119840000I0J-160000D01*
G01*
G37*
G36*
G01*
X232455000Y-119840000D02*
X232455000Y-120160000D01*
G75*
G02*
X232295000Y-120320000I-160000J0D01*
G01*
X231850000Y-120320000D01*
G75*
G02*
X231690000Y-120160000I0J160000D01*
G01*
X231690000Y-119840000D01*
G75*
G02*
X231850000Y-119680000I160000J0D01*
G01*
X232295000Y-119680000D01*
G75*
G02*
X232455000Y-119840000I0J-160000D01*
G01*
G37*
%TD*%
%TO.C,D101*%
G36*
G01*
X159810000Y-62840000D02*
X159810000Y-63160000D01*
G75*
G02*
X159650000Y-63320000I-160000J0D01*
G01*
X159205000Y-63320000D01*
G75*
G02*
X159045000Y-63160000I0J160000D01*
G01*
X159045000Y-62840000D01*
G75*
G02*
X159205000Y-62680000I160000J0D01*
G01*
X159650000Y-62680000D01*
G75*
G02*
X159810000Y-62840000I0J-160000D01*
G01*
G37*
G36*
G01*
X160955000Y-62840000D02*
X160955000Y-63160000D01*
G75*
G02*
X160795000Y-63320000I-160000J0D01*
G01*
X160350000Y-63320000D01*
G75*
G02*
X160190000Y-63160000I0J160000D01*
G01*
X160190000Y-62840000D01*
G75*
G02*
X160350000Y-62680000I160000J0D01*
G01*
X160795000Y-62680000D01*
G75*
G02*
X160955000Y-62840000I0J-160000D01*
G01*
G37*
%TD*%
%TO.C,D102*%
G36*
G01*
X253955000Y-158090000D02*
X253955000Y-158410000D01*
G75*
G02*
X253795000Y-158570000I-160000J0D01*
G01*
X253350000Y-158570000D01*
G75*
G02*
X253190000Y-158410000I0J160000D01*
G01*
X253190000Y-158090000D01*
G75*
G02*
X253350000Y-157930000I160000J0D01*
G01*
X253795000Y-157930000D01*
G75*
G02*
X253955000Y-158090000I0J-160000D01*
G01*
G37*
G36*
G01*
X252810000Y-158090000D02*
X252810000Y-158410000D01*
G75*
G02*
X252650000Y-158570000I-160000J0D01*
G01*
X252205000Y-158570000D01*
G75*
G02*
X252045000Y-158410000I0J160000D01*
G01*
X252045000Y-158090000D01*
G75*
G02*
X252205000Y-157930000I160000J0D01*
G01*
X252650000Y-157930000D01*
G75*
G02*
X252810000Y-158090000I0J-160000D01*
G01*
G37*
%TD*%
%TO.C,D103*%
G36*
G01*
X351455000Y-139090000D02*
X351455000Y-139410000D01*
G75*
G02*
X351295000Y-139570000I-160000J0D01*
G01*
X350850000Y-139570000D01*
G75*
G02*
X350690000Y-139410000I0J160000D01*
G01*
X350690000Y-139090000D01*
G75*
G02*
X350850000Y-138930000I160000J0D01*
G01*
X351295000Y-138930000D01*
G75*
G02*
X351455000Y-139090000I0J-160000D01*
G01*
G37*
G36*
G01*
X350310000Y-139090000D02*
X350310000Y-139410000D01*
G75*
G02*
X350150000Y-139570000I-160000J0D01*
G01*
X349705000Y-139570000D01*
G75*
G02*
X349545000Y-139410000I0J160000D01*
G01*
X349545000Y-139090000D01*
G75*
G02*
X349705000Y-138930000I160000J0D01*
G01*
X350150000Y-138930000D01*
G75*
G02*
X350310000Y-139090000I0J-160000D01*
G01*
G37*
%TD*%
%TO.C,D104*%
G36*
G01*
X256205000Y-62840000D02*
X256205000Y-63160000D01*
G75*
G02*
X256045000Y-63320000I-160000J0D01*
G01*
X255600000Y-63320000D01*
G75*
G02*
X255440000Y-63160000I0J160000D01*
G01*
X255440000Y-62840000D01*
G75*
G02*
X255600000Y-62680000I160000J0D01*
G01*
X256045000Y-62680000D01*
G75*
G02*
X256205000Y-62840000I0J-160000D01*
G01*
G37*
G36*
G01*
X255060000Y-62840000D02*
X255060000Y-63160000D01*
G75*
G02*
X254900000Y-63320000I-160000J0D01*
G01*
X254455000Y-63320000D01*
G75*
G02*
X254295000Y-63160000I0J160000D01*
G01*
X254295000Y-62840000D01*
G75*
G02*
X254455000Y-62680000I160000J0D01*
G01*
X254900000Y-62680000D01*
G75*
G02*
X255060000Y-62840000I0J-160000D01*
G01*
G37*
%TD*%
%TO.C,D105*%
G36*
G01*
X160955000Y-81840000D02*
X160955000Y-82160000D01*
G75*
G02*
X160795000Y-82320000I-160000J0D01*
G01*
X160350000Y-82320000D01*
G75*
G02*
X160190000Y-82160000I0J160000D01*
G01*
X160190000Y-81840000D01*
G75*
G02*
X160350000Y-81680000I160000J0D01*
G01*
X160795000Y-81680000D01*
G75*
G02*
X160955000Y-81840000I0J-160000D01*
G01*
G37*
G36*
G01*
X159810000Y-81840000D02*
X159810000Y-82160000D01*
G75*
G02*
X159650000Y-82320000I-160000J0D01*
G01*
X159205000Y-82320000D01*
G75*
G02*
X159045000Y-82160000I0J160000D01*
G01*
X159045000Y-81840000D01*
G75*
G02*
X159205000Y-81680000I160000J0D01*
G01*
X159650000Y-81680000D01*
G75*
G02*
X159810000Y-81840000I0J-160000D01*
G01*
G37*
%TD*%
%TO.C,D106*%
G36*
G01*
X181210000Y-158090000D02*
X181210000Y-158410000D01*
G75*
G02*
X181050000Y-158570000I-160000J0D01*
G01*
X180605000Y-158570000D01*
G75*
G02*
X180445000Y-158410000I0J160000D01*
G01*
X180445000Y-158090000D01*
G75*
G02*
X180605000Y-157930000I160000J0D01*
G01*
X181050000Y-157930000D01*
G75*
G02*
X181210000Y-158090000I0J-160000D01*
G01*
G37*
G36*
G01*
X182355000Y-158090000D02*
X182355000Y-158410000D01*
G75*
G02*
X182195000Y-158570000I-160000J0D01*
G01*
X181750000Y-158570000D01*
G75*
G02*
X181590000Y-158410000I0J160000D01*
G01*
X181590000Y-158090000D01*
G75*
G02*
X181750000Y-157930000I160000J0D01*
G01*
X182195000Y-157930000D01*
G75*
G02*
X182355000Y-158090000I0J-160000D01*
G01*
G37*
%TD*%
%TO.C,D107*%
G36*
G01*
X73650000Y-121062500D02*
X73650000Y-121537500D01*
G75*
G02*
X73412500Y-121775000I-237500J0D01*
G01*
X72837500Y-121775000D01*
G75*
G02*
X72600000Y-121537500I0J237500D01*
G01*
X72600000Y-121062500D01*
G75*
G02*
X72837500Y-120825000I237500J0D01*
G01*
X73412500Y-120825000D01*
G75*
G02*
X73650000Y-121062500I0J-237500D01*
G01*
G37*
G36*
G01*
X71900000Y-121062500D02*
X71900000Y-121537500D01*
G75*
G02*
X71662500Y-121775000I-237500J0D01*
G01*
X71087500Y-121775000D01*
G75*
G02*
X70850000Y-121537500I0J237500D01*
G01*
X70850000Y-121062500D01*
G75*
G02*
X71087500Y-120825000I237500J0D01*
G01*
X71662500Y-120825000D01*
G75*
G02*
X71900000Y-121062500I0J-237500D01*
G01*
G37*
%TD*%
%TO.C,D108*%
G36*
G01*
X275205000Y-139090000D02*
X275205000Y-139410000D01*
G75*
G02*
X275045000Y-139570000I-160000J0D01*
G01*
X274600000Y-139570000D01*
G75*
G02*
X274440000Y-139410000I0J160000D01*
G01*
X274440000Y-139090000D01*
G75*
G02*
X274600000Y-138930000I160000J0D01*
G01*
X275045000Y-138930000D01*
G75*
G02*
X275205000Y-139090000I0J-160000D01*
G01*
G37*
G36*
G01*
X274060000Y-139090000D02*
X274060000Y-139410000D01*
G75*
G02*
X273900000Y-139570000I-160000J0D01*
G01*
X273455000Y-139570000D01*
G75*
G02*
X273295000Y-139410000I0J160000D01*
G01*
X273295000Y-139090000D01*
G75*
G02*
X273455000Y-138930000I160000J0D01*
G01*
X273900000Y-138930000D01*
G75*
G02*
X274060000Y-139090000I0J-160000D01*
G01*
G37*
%TD*%
%TO.C,D109*%
G36*
G01*
X350310000Y-119940000D02*
X350310000Y-120260000D01*
G75*
G02*
X350150000Y-120420000I-160000J0D01*
G01*
X349705000Y-120420000D01*
G75*
G02*
X349545000Y-120260000I0J160000D01*
G01*
X349545000Y-119940000D01*
G75*
G02*
X349705000Y-119780000I160000J0D01*
G01*
X350150000Y-119780000D01*
G75*
G02*
X350310000Y-119940000I0J-160000D01*
G01*
G37*
G36*
G01*
X351455000Y-119940000D02*
X351455000Y-120260000D01*
G75*
G02*
X351295000Y-120420000I-160000J0D01*
G01*
X350850000Y-120420000D01*
G75*
G02*
X350690000Y-120260000I0J160000D01*
G01*
X350690000Y-119940000D01*
G75*
G02*
X350850000Y-119780000I160000J0D01*
G01*
X351295000Y-119780000D01*
G75*
G02*
X351455000Y-119940000I0J-160000D01*
G01*
G37*
%TD*%
%TO.C,D110*%
G36*
G01*
X66810000Y-158090000D02*
X66810000Y-158410000D01*
G75*
G02*
X66650000Y-158570000I-160000J0D01*
G01*
X66205000Y-158570000D01*
G75*
G02*
X66045000Y-158410000I0J160000D01*
G01*
X66045000Y-158090000D01*
G75*
G02*
X66205000Y-157930000I160000J0D01*
G01*
X66650000Y-157930000D01*
G75*
G02*
X66810000Y-158090000I0J-160000D01*
G01*
G37*
G36*
G01*
X67955000Y-158090000D02*
X67955000Y-158410000D01*
G75*
G02*
X67795000Y-158570000I-160000J0D01*
G01*
X67350000Y-158570000D01*
G75*
G02*
X67190000Y-158410000I0J160000D01*
G01*
X67190000Y-158090000D01*
G75*
G02*
X67350000Y-157930000I160000J0D01*
G01*
X67795000Y-157930000D01*
G75*
G02*
X67955000Y-158090000I0J-160000D01*
G01*
G37*
%TD*%
%TO.C,D111*%
G36*
G01*
X275155000Y-62840000D02*
X275155000Y-63160000D01*
G75*
G02*
X274995000Y-63320000I-160000J0D01*
G01*
X274550000Y-63320000D01*
G75*
G02*
X274390000Y-63160000I0J160000D01*
G01*
X274390000Y-62840000D01*
G75*
G02*
X274550000Y-62680000I160000J0D01*
G01*
X274995000Y-62680000D01*
G75*
G02*
X275155000Y-62840000I0J-160000D01*
G01*
G37*
G36*
G01*
X274010000Y-62840000D02*
X274010000Y-63160000D01*
G75*
G02*
X273850000Y-63320000I-160000J0D01*
G01*
X273405000Y-63320000D01*
G75*
G02*
X273245000Y-63160000I0J160000D01*
G01*
X273245000Y-62840000D01*
G75*
G02*
X273405000Y-62680000I160000J0D01*
G01*
X273850000Y-62680000D01*
G75*
G02*
X274010000Y-62840000I0J-160000D01*
G01*
G37*
%TD*%
%TO.C,D112*%
G36*
G01*
X237205000Y-139090000D02*
X237205000Y-139410000D01*
G75*
G02*
X237045000Y-139570000I-160000J0D01*
G01*
X236600000Y-139570000D01*
G75*
G02*
X236440000Y-139410000I0J160000D01*
G01*
X236440000Y-139090000D01*
G75*
G02*
X236600000Y-138930000I160000J0D01*
G01*
X237045000Y-138930000D01*
G75*
G02*
X237205000Y-139090000I0J-160000D01*
G01*
G37*
G36*
G01*
X236060000Y-139090000D02*
X236060000Y-139410000D01*
G75*
G02*
X235900000Y-139570000I-160000J0D01*
G01*
X235455000Y-139570000D01*
G75*
G02*
X235295000Y-139410000I0J160000D01*
G01*
X235295000Y-139090000D01*
G75*
G02*
X235455000Y-138930000I160000J0D01*
G01*
X235900000Y-138930000D01*
G75*
G02*
X236060000Y-139090000I0J-160000D01*
G01*
G37*
%TD*%
%TO.C,D113*%
G36*
G01*
X313205000Y-158090000D02*
X313205000Y-158410000D01*
G75*
G02*
X313045000Y-158570000I-160000J0D01*
G01*
X312600000Y-158570000D01*
G75*
G02*
X312440000Y-158410000I0J160000D01*
G01*
X312440000Y-158090000D01*
G75*
G02*
X312600000Y-157930000I160000J0D01*
G01*
X313045000Y-157930000D01*
G75*
G02*
X313205000Y-158090000I0J-160000D01*
G01*
G37*
G36*
G01*
X312060000Y-158090000D02*
X312060000Y-158410000D01*
G75*
G02*
X311900000Y-158570000I-160000J0D01*
G01*
X311455000Y-158570000D01*
G75*
G02*
X311295000Y-158410000I0J160000D01*
G01*
X311295000Y-158090000D01*
G75*
G02*
X311455000Y-157930000I160000J0D01*
G01*
X311900000Y-157930000D01*
G75*
G02*
X312060000Y-158090000I0J-160000D01*
G01*
G37*
%TD*%
%TO.C,D114*%
G36*
G01*
X235810000Y-62840000D02*
X235810000Y-63160000D01*
G75*
G02*
X235650000Y-63320000I-160000J0D01*
G01*
X235205000Y-63320000D01*
G75*
G02*
X235045000Y-63160000I0J160000D01*
G01*
X235045000Y-62840000D01*
G75*
G02*
X235205000Y-62680000I160000J0D01*
G01*
X235650000Y-62680000D01*
G75*
G02*
X235810000Y-62840000I0J-160000D01*
G01*
G37*
G36*
G01*
X236955000Y-62840000D02*
X236955000Y-63160000D01*
G75*
G02*
X236795000Y-63320000I-160000J0D01*
G01*
X236350000Y-63320000D01*
G75*
G02*
X236190000Y-63160000I0J160000D01*
G01*
X236190000Y-62840000D01*
G75*
G02*
X236350000Y-62680000I160000J0D01*
G01*
X236795000Y-62680000D01*
G75*
G02*
X236955000Y-62840000I0J-160000D01*
G01*
G37*
%TD*%
%TO.C,D115*%
G36*
G01*
X118055000Y-119840000D02*
X118055000Y-120160000D01*
G75*
G02*
X117895000Y-120320000I-160000J0D01*
G01*
X117450000Y-120320000D01*
G75*
G02*
X117290000Y-120160000I0J160000D01*
G01*
X117290000Y-119840000D01*
G75*
G02*
X117450000Y-119680000I160000J0D01*
G01*
X117895000Y-119680000D01*
G75*
G02*
X118055000Y-119840000I0J-160000D01*
G01*
G37*
G36*
G01*
X116910000Y-119840000D02*
X116910000Y-120160000D01*
G75*
G02*
X116750000Y-120320000I-160000J0D01*
G01*
X116305000Y-120320000D01*
G75*
G02*
X116145000Y-120160000I0J160000D01*
G01*
X116145000Y-119840000D01*
G75*
G02*
X116305000Y-119680000I160000J0D01*
G01*
X116750000Y-119680000D01*
G75*
G02*
X116910000Y-119840000I0J-160000D01*
G01*
G37*
%TD*%
%TO.C,D116*%
G36*
G01*
X349545000Y-63160000D02*
X349545000Y-62840000D01*
G75*
G02*
X349705000Y-62680000I160000J0D01*
G01*
X350150000Y-62680000D01*
G75*
G02*
X350310000Y-62840000I0J-160000D01*
G01*
X350310000Y-63160000D01*
G75*
G02*
X350150000Y-63320000I-160000J0D01*
G01*
X349705000Y-63320000D01*
G75*
G02*
X349545000Y-63160000I0J160000D01*
G01*
G37*
G36*
G01*
X350690000Y-63160000D02*
X350690000Y-62840000D01*
G75*
G02*
X350850000Y-62680000I160000J0D01*
G01*
X351295000Y-62680000D01*
G75*
G02*
X351455000Y-62840000I0J-160000D01*
G01*
X351455000Y-63160000D01*
G75*
G02*
X351295000Y-63320000I-160000J0D01*
G01*
X350850000Y-63320000D01*
G75*
G02*
X350690000Y-63160000I0J160000D01*
G01*
G37*
%TD*%
%TO.C,D117*%
G36*
G01*
X188310000Y-100840000D02*
X188310000Y-101160000D01*
G75*
G02*
X188150000Y-101320000I-160000J0D01*
G01*
X187705000Y-101320000D01*
G75*
G02*
X187545000Y-101160000I0J160000D01*
G01*
X187545000Y-100840000D01*
G75*
G02*
X187705000Y-100680000I160000J0D01*
G01*
X188150000Y-100680000D01*
G75*
G02*
X188310000Y-100840000I0J-160000D01*
G01*
G37*
G36*
G01*
X189455000Y-100840000D02*
X189455000Y-101160000D01*
G75*
G02*
X189295000Y-101320000I-160000J0D01*
G01*
X188850000Y-101320000D01*
G75*
G02*
X188690000Y-101160000I0J160000D01*
G01*
X188690000Y-100840000D01*
G75*
G02*
X188850000Y-100680000I160000J0D01*
G01*
X189295000Y-100680000D01*
G75*
G02*
X189455000Y-100840000I0J-160000D01*
G01*
G37*
%TD*%
%TO.C,D118*%
G36*
G01*
X255060000Y-139090000D02*
X255060000Y-139410000D01*
G75*
G02*
X254900000Y-139570000I-160000J0D01*
G01*
X254455000Y-139570000D01*
G75*
G02*
X254295000Y-139410000I0J160000D01*
G01*
X254295000Y-139090000D01*
G75*
G02*
X254455000Y-138930000I160000J0D01*
G01*
X254900000Y-138930000D01*
G75*
G02*
X255060000Y-139090000I0J-160000D01*
G01*
G37*
G36*
G01*
X256205000Y-139090000D02*
X256205000Y-139410000D01*
G75*
G02*
X256045000Y-139570000I-160000J0D01*
G01*
X255600000Y-139570000D01*
G75*
G02*
X255440000Y-139410000I0J160000D01*
G01*
X255440000Y-139090000D01*
G75*
G02*
X255600000Y-138930000I160000J0D01*
G01*
X256045000Y-138930000D01*
G75*
G02*
X256205000Y-139090000I0J-160000D01*
G01*
G37*
%TD*%
%TO.C,D119*%
G36*
G01*
X103705000Y-62840000D02*
X103705000Y-63160000D01*
G75*
G02*
X103545000Y-63320000I-160000J0D01*
G01*
X103100000Y-63320000D01*
G75*
G02*
X102940000Y-63160000I0J160000D01*
G01*
X102940000Y-62840000D01*
G75*
G02*
X103100000Y-62680000I160000J0D01*
G01*
X103545000Y-62680000D01*
G75*
G02*
X103705000Y-62840000I0J-160000D01*
G01*
G37*
G36*
G01*
X102560000Y-62840000D02*
X102560000Y-63160000D01*
G75*
G02*
X102400000Y-63320000I-160000J0D01*
G01*
X101955000Y-63320000D01*
G75*
G02*
X101795000Y-63160000I0J160000D01*
G01*
X101795000Y-62840000D01*
G75*
G02*
X101955000Y-62680000I160000J0D01*
G01*
X102400000Y-62680000D01*
G75*
G02*
X102560000Y-62840000I0J-160000D01*
G01*
G37*
%TD*%
%TO.C,D120*%
G36*
G01*
X216810000Y-139090000D02*
X216810000Y-139410000D01*
G75*
G02*
X216650000Y-139570000I-160000J0D01*
G01*
X216205000Y-139570000D01*
G75*
G02*
X216045000Y-139410000I0J160000D01*
G01*
X216045000Y-139090000D01*
G75*
G02*
X216205000Y-138930000I160000J0D01*
G01*
X216650000Y-138930000D01*
G75*
G02*
X216810000Y-139090000I0J-160000D01*
G01*
G37*
G36*
G01*
X217955000Y-139090000D02*
X217955000Y-139410000D01*
G75*
G02*
X217795000Y-139570000I-160000J0D01*
G01*
X217350000Y-139570000D01*
G75*
G02*
X217190000Y-139410000I0J160000D01*
G01*
X217190000Y-139090000D01*
G75*
G02*
X217350000Y-138930000I160000J0D01*
G01*
X217795000Y-138930000D01*
G75*
G02*
X217955000Y-139090000I0J-160000D01*
G01*
G37*
%TD*%
%TO.C,D121*%
G36*
G01*
X141955000Y-139090000D02*
X141955000Y-139410000D01*
G75*
G02*
X141795000Y-139570000I-160000J0D01*
G01*
X141350000Y-139570000D01*
G75*
G02*
X141190000Y-139410000I0J160000D01*
G01*
X141190000Y-139090000D01*
G75*
G02*
X141350000Y-138930000I160000J0D01*
G01*
X141795000Y-138930000D01*
G75*
G02*
X141955000Y-139090000I0J-160000D01*
G01*
G37*
G36*
G01*
X140810000Y-139090000D02*
X140810000Y-139410000D01*
G75*
G02*
X140650000Y-139570000I-160000J0D01*
G01*
X140205000Y-139570000D01*
G75*
G02*
X140045000Y-139410000I0J160000D01*
G01*
X140045000Y-139090000D01*
G75*
G02*
X140205000Y-138930000I160000J0D01*
G01*
X140650000Y-138930000D01*
G75*
G02*
X140810000Y-139090000I0J-160000D01*
G01*
G37*
%TD*%
%TO.C,D122*%
G36*
G01*
X179955000Y-62840000D02*
X179955000Y-63160000D01*
G75*
G02*
X179795000Y-63320000I-160000J0D01*
G01*
X179350000Y-63320000D01*
G75*
G02*
X179190000Y-63160000I0J160000D01*
G01*
X179190000Y-62840000D01*
G75*
G02*
X179350000Y-62680000I160000J0D01*
G01*
X179795000Y-62680000D01*
G75*
G02*
X179955000Y-62840000I0J-160000D01*
G01*
G37*
G36*
G01*
X178810000Y-62840000D02*
X178810000Y-63160000D01*
G75*
G02*
X178650000Y-63320000I-160000J0D01*
G01*
X178205000Y-63320000D01*
G75*
G02*
X178045000Y-63160000I0J160000D01*
G01*
X178045000Y-62840000D01*
G75*
G02*
X178205000Y-62680000I160000J0D01*
G01*
X178650000Y-62680000D01*
G75*
G02*
X178810000Y-62840000I0J-160000D01*
G01*
G37*
%TD*%
%TO.C,D123*%
G36*
G01*
X274060000Y-81840000D02*
X274060000Y-82160000D01*
G75*
G02*
X273900000Y-82320000I-160000J0D01*
G01*
X273455000Y-82320000D01*
G75*
G02*
X273295000Y-82160000I0J160000D01*
G01*
X273295000Y-81840000D01*
G75*
G02*
X273455000Y-81680000I160000J0D01*
G01*
X273900000Y-81680000D01*
G75*
G02*
X274060000Y-81840000I0J-160000D01*
G01*
G37*
G36*
G01*
X275205000Y-81840000D02*
X275205000Y-82160000D01*
G75*
G02*
X275045000Y-82320000I-160000J0D01*
G01*
X274600000Y-82320000D01*
G75*
G02*
X274440000Y-82160000I0J160000D01*
G01*
X274440000Y-81840000D01*
G75*
G02*
X274600000Y-81680000I160000J0D01*
G01*
X275045000Y-81680000D01*
G75*
G02*
X275205000Y-81840000I0J-160000D01*
G01*
G37*
%TD*%
%TO.C,D124*%
G36*
G01*
X151455000Y-100840000D02*
X151455000Y-101160000D01*
G75*
G02*
X151295000Y-101320000I-160000J0D01*
G01*
X150850000Y-101320000D01*
G75*
G02*
X150690000Y-101160000I0J160000D01*
G01*
X150690000Y-100840000D01*
G75*
G02*
X150850000Y-100680000I160000J0D01*
G01*
X151295000Y-100680000D01*
G75*
G02*
X151455000Y-100840000I0J-160000D01*
G01*
G37*
G36*
G01*
X150310000Y-100840000D02*
X150310000Y-101160000D01*
G75*
G02*
X150150000Y-101320000I-160000J0D01*
G01*
X149705000Y-101320000D01*
G75*
G02*
X149545000Y-101160000I0J160000D01*
G01*
X149545000Y-100840000D01*
G75*
G02*
X149705000Y-100680000I160000J0D01*
G01*
X150150000Y-100680000D01*
G75*
G02*
X150310000Y-100840000I0J-160000D01*
G01*
G37*
%TD*%
%TO.C,D125*%
G36*
G01*
X265705000Y-100840000D02*
X265705000Y-101160000D01*
G75*
G02*
X265545000Y-101320000I-160000J0D01*
G01*
X265100000Y-101320000D01*
G75*
G02*
X264940000Y-101160000I0J160000D01*
G01*
X264940000Y-100840000D01*
G75*
G02*
X265100000Y-100680000I160000J0D01*
G01*
X265545000Y-100680000D01*
G75*
G02*
X265705000Y-100840000I0J-160000D01*
G01*
G37*
G36*
G01*
X264560000Y-100840000D02*
X264560000Y-101160000D01*
G75*
G02*
X264400000Y-101320000I-160000J0D01*
G01*
X263955000Y-101320000D01*
G75*
G02*
X263795000Y-101160000I0J160000D01*
G01*
X263795000Y-100840000D01*
G75*
G02*
X263955000Y-100680000I160000J0D01*
G01*
X264400000Y-100680000D01*
G75*
G02*
X264560000Y-100840000I0J-160000D01*
G01*
G37*
%TD*%
%TO.C,D126*%
G36*
G01*
X83710000Y-62840000D02*
X83710000Y-63160000D01*
G75*
G02*
X83550000Y-63320000I-160000J0D01*
G01*
X83105000Y-63320000D01*
G75*
G02*
X82945000Y-63160000I0J160000D01*
G01*
X82945000Y-62840000D01*
G75*
G02*
X83105000Y-62680000I160000J0D01*
G01*
X83550000Y-62680000D01*
G75*
G02*
X83710000Y-62840000I0J-160000D01*
G01*
G37*
G36*
G01*
X84855000Y-62840000D02*
X84855000Y-63160000D01*
G75*
G02*
X84695000Y-63320000I-160000J0D01*
G01*
X84250000Y-63320000D01*
G75*
G02*
X84090000Y-63160000I0J160000D01*
G01*
X84090000Y-62840000D01*
G75*
G02*
X84250000Y-62680000I160000J0D01*
G01*
X84695000Y-62680000D01*
G75*
G02*
X84855000Y-62840000I0J-160000D01*
G01*
G37*
%TD*%
%TO.C,D127*%
G36*
G01*
X289455000Y-119840000D02*
X289455000Y-120160000D01*
G75*
G02*
X289295000Y-120320000I-160000J0D01*
G01*
X288850000Y-120320000D01*
G75*
G02*
X288690000Y-120160000I0J160000D01*
G01*
X288690000Y-119840000D01*
G75*
G02*
X288850000Y-119680000I160000J0D01*
G01*
X289295000Y-119680000D01*
G75*
G02*
X289455000Y-119840000I0J-160000D01*
G01*
G37*
G36*
G01*
X288310000Y-119840000D02*
X288310000Y-120160000D01*
G75*
G02*
X288150000Y-120320000I-160000J0D01*
G01*
X287705000Y-120320000D01*
G75*
G02*
X287545000Y-120160000I0J160000D01*
G01*
X287545000Y-119840000D01*
G75*
G02*
X287705000Y-119680000I160000J0D01*
G01*
X288150000Y-119680000D01*
G75*
G02*
X288310000Y-119840000I0J-160000D01*
G01*
G37*
%TD*%
%TO.C,D128*%
G36*
G01*
X270455000Y-119840000D02*
X270455000Y-120160000D01*
G75*
G02*
X270295000Y-120320000I-160000J0D01*
G01*
X269850000Y-120320000D01*
G75*
G02*
X269690000Y-120160000I0J160000D01*
G01*
X269690000Y-119840000D01*
G75*
G02*
X269850000Y-119680000I160000J0D01*
G01*
X270295000Y-119680000D01*
G75*
G02*
X270455000Y-119840000I0J-160000D01*
G01*
G37*
G36*
G01*
X269310000Y-119840000D02*
X269310000Y-120160000D01*
G75*
G02*
X269150000Y-120320000I-160000J0D01*
G01*
X268705000Y-120320000D01*
G75*
G02*
X268545000Y-120160000I0J160000D01*
G01*
X268545000Y-119840000D01*
G75*
G02*
X268705000Y-119680000I160000J0D01*
G01*
X269150000Y-119680000D01*
G75*
G02*
X269310000Y-119840000I0J-160000D01*
G01*
G37*
%TD*%
%TO.C,D129*%
G36*
G01*
X235810000Y-81840000D02*
X235810000Y-82160000D01*
G75*
G02*
X235650000Y-82320000I-160000J0D01*
G01*
X235205000Y-82320000D01*
G75*
G02*
X235045000Y-82160000I0J160000D01*
G01*
X235045000Y-81840000D01*
G75*
G02*
X235205000Y-81680000I160000J0D01*
G01*
X235650000Y-81680000D01*
G75*
G02*
X235810000Y-81840000I0J-160000D01*
G01*
G37*
G36*
G01*
X236955000Y-81840000D02*
X236955000Y-82160000D01*
G75*
G02*
X236795000Y-82320000I-160000J0D01*
G01*
X236350000Y-82320000D01*
G75*
G02*
X236190000Y-82160000I0J160000D01*
G01*
X236190000Y-81840000D01*
G75*
G02*
X236350000Y-81680000I160000J0D01*
G01*
X236795000Y-81680000D01*
G75*
G02*
X236955000Y-81840000I0J-160000D01*
G01*
G37*
%TD*%
%TO.C,D130*%
G36*
G01*
X322095001Y-82160000D02*
X322095001Y-81840000D01*
G75*
G02*
X322255001Y-81680000I160000J0D01*
G01*
X322700001Y-81680000D01*
G75*
G02*
X322860001Y-81840000I0J-160000D01*
G01*
X322860001Y-82160000D01*
G75*
G02*
X322700001Y-82320000I-160000J0D01*
G01*
X322255001Y-82320000D01*
G75*
G02*
X322095001Y-82160000I0J160000D01*
G01*
G37*
G36*
G01*
X320950001Y-82160000D02*
X320950001Y-81840000D01*
G75*
G02*
X321110001Y-81680000I160000J0D01*
G01*
X321555001Y-81680000D01*
G75*
G02*
X321715001Y-81840000I0J-160000D01*
G01*
X321715001Y-82160000D01*
G75*
G02*
X321555001Y-82320000I-160000J0D01*
G01*
X321110001Y-82320000D01*
G75*
G02*
X320950001Y-82160000I0J160000D01*
G01*
G37*
%TD*%
%TO.C,D131*%
G36*
G01*
X140810000Y-62840000D02*
X140810000Y-63160000D01*
G75*
G02*
X140650000Y-63320000I-160000J0D01*
G01*
X140205000Y-63320000D01*
G75*
G02*
X140045000Y-63160000I0J160000D01*
G01*
X140045000Y-62840000D01*
G75*
G02*
X140205000Y-62680000I160000J0D01*
G01*
X140650000Y-62680000D01*
G75*
G02*
X140810000Y-62840000I0J-160000D01*
G01*
G37*
G36*
G01*
X141955000Y-62840000D02*
X141955000Y-63160000D01*
G75*
G02*
X141795000Y-63320000I-160000J0D01*
G01*
X141350000Y-63320000D01*
G75*
G02*
X141190000Y-63160000I0J160000D01*
G01*
X141190000Y-62840000D01*
G75*
G02*
X141350000Y-62680000I160000J0D01*
G01*
X141795000Y-62680000D01*
G75*
G02*
X141955000Y-62840000I0J-160000D01*
G01*
G37*
%TD*%
%TO.C,D132*%
G36*
G01*
X112060000Y-100840000D02*
X112060000Y-101160000D01*
G75*
G02*
X111900000Y-101320000I-160000J0D01*
G01*
X111455000Y-101320000D01*
G75*
G02*
X111295000Y-101160000I0J160000D01*
G01*
X111295000Y-100840000D01*
G75*
G02*
X111455000Y-100680000I160000J0D01*
G01*
X111900000Y-100680000D01*
G75*
G02*
X112060000Y-100840000I0J-160000D01*
G01*
G37*
G36*
G01*
X113205000Y-100840000D02*
X113205000Y-101160000D01*
G75*
G02*
X113045000Y-101320000I-160000J0D01*
G01*
X112600000Y-101320000D01*
G75*
G02*
X112440000Y-101160000I0J160000D01*
G01*
X112440000Y-100840000D01*
G75*
G02*
X112600000Y-100680000I160000J0D01*
G01*
X113045000Y-100680000D01*
G75*
G02*
X113205000Y-100840000I0J-160000D01*
G01*
G37*
%TD*%
%TO.C,D133*%
G36*
G01*
X84705000Y-81840000D02*
X84705000Y-82160000D01*
G75*
G02*
X84545000Y-82320000I-160000J0D01*
G01*
X84100000Y-82320000D01*
G75*
G02*
X83940000Y-82160000I0J160000D01*
G01*
X83940000Y-81840000D01*
G75*
G02*
X84100000Y-81680000I160000J0D01*
G01*
X84545000Y-81680000D01*
G75*
G02*
X84705000Y-81840000I0J-160000D01*
G01*
G37*
G36*
G01*
X83560000Y-81840000D02*
X83560000Y-82160000D01*
G75*
G02*
X83400000Y-82320000I-160000J0D01*
G01*
X82955000Y-82320000D01*
G75*
G02*
X82795000Y-82160000I0J160000D01*
G01*
X82795000Y-81840000D01*
G75*
G02*
X82955000Y-81680000I160000J0D01*
G01*
X83400000Y-81680000D01*
G75*
G02*
X83560000Y-81840000I0J-160000D01*
G01*
G37*
%TD*%
%TO.C,D134*%
G36*
G01*
X283560000Y-100840000D02*
X283560000Y-101160000D01*
G75*
G02*
X283400000Y-101320000I-160000J0D01*
G01*
X282955000Y-101320000D01*
G75*
G02*
X282795000Y-101160000I0J160000D01*
G01*
X282795000Y-100840000D01*
G75*
G02*
X282955000Y-100680000I160000J0D01*
G01*
X283400000Y-100680000D01*
G75*
G02*
X283560000Y-100840000I0J-160000D01*
G01*
G37*
G36*
G01*
X284705000Y-100840000D02*
X284705000Y-101160000D01*
G75*
G02*
X284545000Y-101320000I-160000J0D01*
G01*
X284100000Y-101320000D01*
G75*
G02*
X283940000Y-101160000I0J160000D01*
G01*
X283940000Y-100840000D01*
G75*
G02*
X284100000Y-100680000I160000J0D01*
G01*
X284545000Y-100680000D01*
G75*
G02*
X284705000Y-100840000I0J-160000D01*
G01*
G37*
%TD*%
%TO.C,D135*%
G36*
G01*
X103705000Y-81840000D02*
X103705000Y-82160000D01*
G75*
G02*
X103545000Y-82320000I-160000J0D01*
G01*
X103100000Y-82320000D01*
G75*
G02*
X102940000Y-82160000I0J160000D01*
G01*
X102940000Y-81840000D01*
G75*
G02*
X103100000Y-81680000I160000J0D01*
G01*
X103545000Y-81680000D01*
G75*
G02*
X103705000Y-81840000I0J-160000D01*
G01*
G37*
G36*
G01*
X102560000Y-81840000D02*
X102560000Y-82160000D01*
G75*
G02*
X102400000Y-82320000I-160000J0D01*
G01*
X101955000Y-82320000D01*
G75*
G02*
X101795000Y-82160000I0J160000D01*
G01*
X101795000Y-81840000D01*
G75*
G02*
X101955000Y-81680000I160000J0D01*
G01*
X102400000Y-81680000D01*
G75*
G02*
X102560000Y-81840000I0J-160000D01*
G01*
G37*
%TD*%
%TO.C,D136*%
G36*
G01*
X110955000Y-158090000D02*
X110955000Y-158410000D01*
G75*
G02*
X110795000Y-158570000I-160000J0D01*
G01*
X110350000Y-158570000D01*
G75*
G02*
X110190000Y-158410000I0J160000D01*
G01*
X110190000Y-158090000D01*
G75*
G02*
X110350000Y-157930000I160000J0D01*
G01*
X110795000Y-157930000D01*
G75*
G02*
X110955000Y-158090000I0J-160000D01*
G01*
G37*
G36*
G01*
X109810000Y-158090000D02*
X109810000Y-158410000D01*
G75*
G02*
X109650000Y-158570000I-160000J0D01*
G01*
X109205000Y-158570000D01*
G75*
G02*
X109045000Y-158410000I0J160000D01*
G01*
X109045000Y-158090000D01*
G75*
G02*
X109205000Y-157930000I160000J0D01*
G01*
X109650000Y-157930000D01*
G75*
G02*
X109810000Y-158090000I0J-160000D01*
G01*
G37*
%TD*%
%TO.C,D137*%
G36*
G01*
X303705000Y-100840000D02*
X303705000Y-101160000D01*
G75*
G02*
X303545000Y-101320000I-160000J0D01*
G01*
X303100000Y-101320000D01*
G75*
G02*
X302940000Y-101160000I0J160000D01*
G01*
X302940000Y-100840000D01*
G75*
G02*
X303100000Y-100680000I160000J0D01*
G01*
X303545000Y-100680000D01*
G75*
G02*
X303705000Y-100840000I0J-160000D01*
G01*
G37*
G36*
G01*
X302560000Y-100840000D02*
X302560000Y-101160000D01*
G75*
G02*
X302400000Y-101320000I-160000J0D01*
G01*
X301955000Y-101320000D01*
G75*
G02*
X301795000Y-101160000I0J160000D01*
G01*
X301795000Y-100840000D01*
G75*
G02*
X301955000Y-100680000I160000J0D01*
G01*
X302400000Y-100680000D01*
G75*
G02*
X302560000Y-100840000I0J-160000D01*
G01*
G37*
%TD*%
%TO.C,D138*%
G36*
G01*
X198955000Y-81840000D02*
X198955000Y-82160000D01*
G75*
G02*
X198795000Y-82320000I-160000J0D01*
G01*
X198350000Y-82320000D01*
G75*
G02*
X198190000Y-82160000I0J160000D01*
G01*
X198190000Y-81840000D01*
G75*
G02*
X198350000Y-81680000I160000J0D01*
G01*
X198795000Y-81680000D01*
G75*
G02*
X198955000Y-81840000I0J-160000D01*
G01*
G37*
G36*
G01*
X197810000Y-81840000D02*
X197810000Y-82160000D01*
G75*
G02*
X197650000Y-82320000I-160000J0D01*
G01*
X197205000Y-82320000D01*
G75*
G02*
X197045000Y-82160000I0J160000D01*
G01*
X197045000Y-81840000D01*
G75*
G02*
X197205000Y-81680000I160000J0D01*
G01*
X197650000Y-81680000D01*
G75*
G02*
X197810000Y-81840000I0J-160000D01*
G01*
G37*
%TD*%
%TO.C,D139*%
G36*
G01*
X227700001Y-100840000D02*
X227700001Y-101160000D01*
G75*
G02*
X227540001Y-101320000I-160000J0D01*
G01*
X227095001Y-101320000D01*
G75*
G02*
X226935001Y-101160000I0J160000D01*
G01*
X226935001Y-100840000D01*
G75*
G02*
X227095001Y-100680000I160000J0D01*
G01*
X227540001Y-100680000D01*
G75*
G02*
X227700001Y-100840000I0J-160000D01*
G01*
G37*
G36*
G01*
X226555001Y-100840000D02*
X226555001Y-101160000D01*
G75*
G02*
X226395001Y-101320000I-160000J0D01*
G01*
X225950001Y-101320000D01*
G75*
G02*
X225790001Y-101160000I0J160000D01*
G01*
X225790001Y-100840000D01*
G75*
G02*
X225950001Y-100680000I160000J0D01*
G01*
X226395001Y-100680000D01*
G75*
G02*
X226555001Y-100840000I0J-160000D01*
G01*
G37*
%TD*%
%TO.C,D140*%
G36*
G01*
X174060000Y-119840000D02*
X174060000Y-120160000D01*
G75*
G02*
X173900000Y-120320000I-160000J0D01*
G01*
X173455000Y-120320000D01*
G75*
G02*
X173295000Y-120160000I0J160000D01*
G01*
X173295000Y-119840000D01*
G75*
G02*
X173455000Y-119680000I160000J0D01*
G01*
X173900000Y-119680000D01*
G75*
G02*
X174060000Y-119840000I0J-160000D01*
G01*
G37*
G36*
G01*
X175205000Y-119840000D02*
X175205000Y-120160000D01*
G75*
G02*
X175045000Y-120320000I-160000J0D01*
G01*
X174600000Y-120320000D01*
G75*
G02*
X174440000Y-120160000I0J160000D01*
G01*
X174440000Y-119840000D01*
G75*
G02*
X174600000Y-119680000I160000J0D01*
G01*
X175045000Y-119680000D01*
G75*
G02*
X175205000Y-119840000I0J-160000D01*
G01*
G37*
%TD*%
%TO.C,D141*%
G36*
G01*
X179955000Y-139090000D02*
X179955000Y-139410000D01*
G75*
G02*
X179795000Y-139570000I-160000J0D01*
G01*
X179350000Y-139570000D01*
G75*
G02*
X179190000Y-139410000I0J160000D01*
G01*
X179190000Y-139090000D01*
G75*
G02*
X179350000Y-138930000I160000J0D01*
G01*
X179795000Y-138930000D01*
G75*
G02*
X179955000Y-139090000I0J-160000D01*
G01*
G37*
G36*
G01*
X178810000Y-139090000D02*
X178810000Y-139410000D01*
G75*
G02*
X178650000Y-139570000I-160000J0D01*
G01*
X178205000Y-139570000D01*
G75*
G02*
X178045000Y-139410000I0J160000D01*
G01*
X178045000Y-139090000D01*
G75*
G02*
X178205000Y-138930000I160000J0D01*
G01*
X178650000Y-138930000D01*
G75*
G02*
X178810000Y-139090000I0J-160000D01*
G01*
G37*
%TD*%
%TO.C,D142*%
G36*
G01*
X197810000Y-139090000D02*
X197810000Y-139410000D01*
G75*
G02*
X197650000Y-139570000I-160000J0D01*
G01*
X197205000Y-139570000D01*
G75*
G02*
X197045000Y-139410000I0J160000D01*
G01*
X197045000Y-139090000D01*
G75*
G02*
X197205000Y-138930000I160000J0D01*
G01*
X197650000Y-138930000D01*
G75*
G02*
X197810000Y-139090000I0J-160000D01*
G01*
G37*
G36*
G01*
X198955000Y-139090000D02*
X198955000Y-139410000D01*
G75*
G02*
X198795000Y-139570000I-160000J0D01*
G01*
X198350000Y-139570000D01*
G75*
G02*
X198190000Y-139410000I0J160000D01*
G01*
X198190000Y-139090000D01*
G75*
G02*
X198350000Y-138930000I160000J0D01*
G01*
X198795000Y-138930000D01*
G75*
G02*
X198955000Y-139090000I0J-160000D01*
G01*
G37*
%TD*%
%TO.C,D143*%
G36*
G01*
X122705000Y-139090000D02*
X122705000Y-139410000D01*
G75*
G02*
X122545000Y-139570000I-160000J0D01*
G01*
X122100000Y-139570000D01*
G75*
G02*
X121940000Y-139410000I0J160000D01*
G01*
X121940000Y-139090000D01*
G75*
G02*
X122100000Y-138930000I160000J0D01*
G01*
X122545000Y-138930000D01*
G75*
G02*
X122705000Y-139090000I0J-160000D01*
G01*
G37*
G36*
G01*
X121560000Y-139090000D02*
X121560000Y-139410000D01*
G75*
G02*
X121400000Y-139570000I-160000J0D01*
G01*
X120955000Y-139570000D01*
G75*
G02*
X120795000Y-139410000I0J160000D01*
G01*
X120795000Y-139090000D01*
G75*
G02*
X120955000Y-138930000I160000J0D01*
G01*
X121400000Y-138930000D01*
G75*
G02*
X121560000Y-139090000I0J-160000D01*
G01*
G37*
%TD*%
%TO.C,D144*%
G36*
G01*
X216810000Y-81840000D02*
X216810000Y-82160000D01*
G75*
G02*
X216650000Y-82320000I-160000J0D01*
G01*
X216205000Y-82320000D01*
G75*
G02*
X216045000Y-82160000I0J160000D01*
G01*
X216045000Y-81840000D01*
G75*
G02*
X216205000Y-81680000I160000J0D01*
G01*
X216650000Y-81680000D01*
G75*
G02*
X216810000Y-81840000I0J-160000D01*
G01*
G37*
G36*
G01*
X217955000Y-81840000D02*
X217955000Y-82160000D01*
G75*
G02*
X217795000Y-82320000I-160000J0D01*
G01*
X217350000Y-82320000D01*
G75*
G02*
X217190000Y-82160000I0J160000D01*
G01*
X217190000Y-81840000D01*
G75*
G02*
X217350000Y-81680000I160000J0D01*
G01*
X217795000Y-81680000D01*
G75*
G02*
X217955000Y-81840000I0J-160000D01*
G01*
G37*
%TD*%
%TO.C,D145*%
G36*
G01*
X141955000Y-81840000D02*
X141955000Y-82160000D01*
G75*
G02*
X141795000Y-82320000I-160000J0D01*
G01*
X141350000Y-82320000D01*
G75*
G02*
X141190000Y-82160000I0J160000D01*
G01*
X141190000Y-81840000D01*
G75*
G02*
X141350000Y-81680000I160000J0D01*
G01*
X141795000Y-81680000D01*
G75*
G02*
X141955000Y-81840000I0J-160000D01*
G01*
G37*
G36*
G01*
X140810000Y-81840000D02*
X140810000Y-82160000D01*
G75*
G02*
X140650000Y-82320000I-160000J0D01*
G01*
X140205000Y-82320000D01*
G75*
G02*
X140045000Y-82160000I0J160000D01*
G01*
X140045000Y-81840000D01*
G75*
G02*
X140205000Y-81680000I160000J0D01*
G01*
X140650000Y-81680000D01*
G75*
G02*
X140810000Y-81840000I0J-160000D01*
G01*
G37*
%TD*%
%TO.C,D146*%
G36*
G01*
X169310000Y-100840000D02*
X169310000Y-101160000D01*
G75*
G02*
X169150000Y-101320000I-160000J0D01*
G01*
X168705000Y-101320000D01*
G75*
G02*
X168545000Y-101160000I0J160000D01*
G01*
X168545000Y-100840000D01*
G75*
G02*
X168705000Y-100680000I160000J0D01*
G01*
X169150000Y-100680000D01*
G75*
G02*
X169310000Y-100840000I0J-160000D01*
G01*
G37*
G36*
G01*
X170455000Y-100840000D02*
X170455000Y-101160000D01*
G75*
G02*
X170295000Y-101320000I-160000J0D01*
G01*
X169850000Y-101320000D01*
G75*
G02*
X169690000Y-101160000I0J160000D01*
G01*
X169690000Y-100840000D01*
G75*
G02*
X169850000Y-100680000I160000J0D01*
G01*
X170295000Y-100680000D01*
G75*
G02*
X170455000Y-100840000I0J-160000D01*
G01*
G37*
%TD*%
%TO.C,D147*%
G36*
G01*
X246705000Y-100840000D02*
X246705000Y-101160000D01*
G75*
G02*
X246545000Y-101320000I-160000J0D01*
G01*
X246100000Y-101320000D01*
G75*
G02*
X245940000Y-101160000I0J160000D01*
G01*
X245940000Y-100840000D01*
G75*
G02*
X246100000Y-100680000I160000J0D01*
G01*
X246545000Y-100680000D01*
G75*
G02*
X246705000Y-100840000I0J-160000D01*
G01*
G37*
G36*
G01*
X245560000Y-100840000D02*
X245560000Y-101160000D01*
G75*
G02*
X245400000Y-101320000I-160000J0D01*
G01*
X244955000Y-101320000D01*
G75*
G02*
X244795000Y-101160000I0J160000D01*
G01*
X244795000Y-100840000D01*
G75*
G02*
X244955000Y-100680000I160000J0D01*
G01*
X245400000Y-100680000D01*
G75*
G02*
X245560000Y-100840000I0J-160000D01*
G01*
G37*
%TD*%
%TO.C,D148*%
G36*
G01*
X72060000Y-119640000D02*
X72060000Y-119960000D01*
G75*
G02*
X71900000Y-120120000I-160000J0D01*
G01*
X71455000Y-120120000D01*
G75*
G02*
X71295000Y-119960000I0J160000D01*
G01*
X71295000Y-119640000D01*
G75*
G02*
X71455000Y-119480000I160000J0D01*
G01*
X71900000Y-119480000D01*
G75*
G02*
X72060000Y-119640000I0J-160000D01*
G01*
G37*
G36*
G01*
X73205000Y-119640000D02*
X73205000Y-119960000D01*
G75*
G02*
X73045000Y-120120000I-160000J0D01*
G01*
X72600000Y-120120000D01*
G75*
G02*
X72440000Y-119960000I0J160000D01*
G01*
X72440000Y-119640000D01*
G75*
G02*
X72600000Y-119480000I160000J0D01*
G01*
X73045000Y-119480000D01*
G75*
G02*
X73205000Y-119640000I0J-160000D01*
G01*
G37*
%TD*%
%TO.C,D149*%
G36*
G01*
X88310000Y-158090000D02*
X88310000Y-158410000D01*
G75*
G02*
X88150000Y-158570000I-160000J0D01*
G01*
X87705000Y-158570000D01*
G75*
G02*
X87545000Y-158410000I0J160000D01*
G01*
X87545000Y-158090000D01*
G75*
G02*
X87705000Y-157930000I160000J0D01*
G01*
X88150000Y-157930000D01*
G75*
G02*
X88310000Y-158090000I0J-160000D01*
G01*
G37*
G36*
G01*
X89455000Y-158090000D02*
X89455000Y-158410000D01*
G75*
G02*
X89295000Y-158570000I-160000J0D01*
G01*
X88850000Y-158570000D01*
G75*
G02*
X88690000Y-158410000I0J160000D01*
G01*
X88690000Y-158090000D01*
G75*
G02*
X88850000Y-157930000I160000J0D01*
G01*
X89295000Y-157930000D01*
G75*
G02*
X89455000Y-158090000I0J-160000D01*
G01*
G37*
%TD*%
%TO.C,D150*%
G36*
G01*
X159810000Y-139090000D02*
X159810000Y-139410000D01*
G75*
G02*
X159650000Y-139570000I-160000J0D01*
G01*
X159205000Y-139570000D01*
G75*
G02*
X159045000Y-139410000I0J160000D01*
G01*
X159045000Y-139090000D01*
G75*
G02*
X159205000Y-138930000I160000J0D01*
G01*
X159650000Y-138930000D01*
G75*
G02*
X159810000Y-139090000I0J-160000D01*
G01*
G37*
G36*
G01*
X160955000Y-139090000D02*
X160955000Y-139410000D01*
G75*
G02*
X160795000Y-139570000I-160000J0D01*
G01*
X160350000Y-139570000D01*
G75*
G02*
X160190000Y-139410000I0J160000D01*
G01*
X160190000Y-139090000D01*
G75*
G02*
X160350000Y-138930000I160000J0D01*
G01*
X160795000Y-138930000D01*
G75*
G02*
X160955000Y-139090000I0J-160000D01*
G01*
G37*
%TD*%
%TO.C,D151*%
G36*
G01*
X208455000Y-100840000D02*
X208455000Y-101160000D01*
G75*
G02*
X208295000Y-101320000I-160000J0D01*
G01*
X207850000Y-101320000D01*
G75*
G02*
X207690000Y-101160000I0J160000D01*
G01*
X207690000Y-100840000D01*
G75*
G02*
X207850000Y-100680000I160000J0D01*
G01*
X208295000Y-100680000D01*
G75*
G02*
X208455000Y-100840000I0J-160000D01*
G01*
G37*
G36*
G01*
X207310000Y-100840000D02*
X207310000Y-101160000D01*
G75*
G02*
X207150000Y-101320000I-160000J0D01*
G01*
X206705000Y-101320000D01*
G75*
G02*
X206545000Y-101160000I0J160000D01*
G01*
X206545000Y-100840000D01*
G75*
G02*
X206705000Y-100680000I160000J0D01*
G01*
X207150000Y-100680000D01*
G75*
G02*
X207310000Y-100840000I0J-160000D01*
G01*
G37*
%TD*%
%TO.C,D152*%
G36*
G01*
X97810000Y-119840000D02*
X97810000Y-120160000D01*
G75*
G02*
X97650000Y-120320000I-160000J0D01*
G01*
X97205000Y-120320000D01*
G75*
G02*
X97045000Y-120160000I0J160000D01*
G01*
X97045000Y-119840000D01*
G75*
G02*
X97205000Y-119680000I160000J0D01*
G01*
X97650000Y-119680000D01*
G75*
G02*
X97810000Y-119840000I0J-160000D01*
G01*
G37*
G36*
G01*
X98955000Y-119840000D02*
X98955000Y-120160000D01*
G75*
G02*
X98795000Y-120320000I-160000J0D01*
G01*
X98350000Y-120320000D01*
G75*
G02*
X98190000Y-120160000I0J160000D01*
G01*
X98190000Y-119840000D01*
G75*
G02*
X98350000Y-119680000I160000J0D01*
G01*
X98795000Y-119680000D01*
G75*
G02*
X98955000Y-119840000I0J-160000D01*
G01*
G37*
%TD*%
%TO.C,D153*%
G36*
G01*
X350310000Y-100840000D02*
X350310000Y-101160000D01*
G75*
G02*
X350150000Y-101320000I-160000J0D01*
G01*
X349705000Y-101320000D01*
G75*
G02*
X349545000Y-101160000I0J160000D01*
G01*
X349545000Y-100840000D01*
G75*
G02*
X349705000Y-100680000I160000J0D01*
G01*
X350150000Y-100680000D01*
G75*
G02*
X350310000Y-100840000I0J-160000D01*
G01*
G37*
G36*
G01*
X351455000Y-100840000D02*
X351455000Y-101160000D01*
G75*
G02*
X351295000Y-101320000I-160000J0D01*
G01*
X350850000Y-101320000D01*
G75*
G02*
X350690000Y-101160000I0J160000D01*
G01*
X350690000Y-100840000D01*
G75*
G02*
X350850000Y-100680000I160000J0D01*
G01*
X351295000Y-100680000D01*
G75*
G02*
X351455000Y-100840000I0J-160000D01*
G01*
G37*
%TD*%
%TO.C,D154*%
G36*
G01*
X132205000Y-100840000D02*
X132205000Y-101160000D01*
G75*
G02*
X132045000Y-101320000I-160000J0D01*
G01*
X131600000Y-101320000D01*
G75*
G02*
X131440000Y-101160000I0J160000D01*
G01*
X131440000Y-100840000D01*
G75*
G02*
X131600000Y-100680000I160000J0D01*
G01*
X132045000Y-100680000D01*
G75*
G02*
X132205000Y-100840000I0J-160000D01*
G01*
G37*
G36*
G01*
X131060000Y-100840000D02*
X131060000Y-101160000D01*
G75*
G02*
X130900000Y-101320000I-160000J0D01*
G01*
X130455000Y-101320000D01*
G75*
G02*
X130295000Y-101160000I0J160000D01*
G01*
X130295000Y-100840000D01*
G75*
G02*
X130455000Y-100680000I160000J0D01*
G01*
X130900000Y-100680000D01*
G75*
G02*
X131060000Y-100840000I0J-160000D01*
G01*
G37*
%TD*%
%TO.C,D155*%
G36*
G01*
X75205000Y-139090000D02*
X75205000Y-139410000D01*
G75*
G02*
X75045000Y-139570000I-160000J0D01*
G01*
X74600000Y-139570000D01*
G75*
G02*
X74440000Y-139410000I0J160000D01*
G01*
X74440000Y-139090000D01*
G75*
G02*
X74600000Y-138930000I160000J0D01*
G01*
X75045000Y-138930000D01*
G75*
G02*
X75205000Y-139090000I0J-160000D01*
G01*
G37*
G36*
G01*
X74060000Y-139090000D02*
X74060000Y-139410000D01*
G75*
G02*
X73900000Y-139570000I-160000J0D01*
G01*
X73455000Y-139570000D01*
G75*
G02*
X73295000Y-139410000I0J160000D01*
G01*
X73295000Y-139090000D01*
G75*
G02*
X73455000Y-138930000I160000J0D01*
G01*
X73900000Y-138930000D01*
G75*
G02*
X74060000Y-139090000I0J-160000D01*
G01*
G37*
%TD*%
%TO.C,D156*%
G36*
G01*
X293060000Y-139090000D02*
X293060000Y-139410000D01*
G75*
G02*
X292900000Y-139570000I-160000J0D01*
G01*
X292455000Y-139570000D01*
G75*
G02*
X292295000Y-139410000I0J160000D01*
G01*
X292295000Y-139090000D01*
G75*
G02*
X292455000Y-138930000I160000J0D01*
G01*
X292900000Y-138930000D01*
G75*
G02*
X293060000Y-139090000I0J-160000D01*
G01*
G37*
G36*
G01*
X294205000Y-139090000D02*
X294205000Y-139410000D01*
G75*
G02*
X294045000Y-139570000I-160000J0D01*
G01*
X293600000Y-139570000D01*
G75*
G02*
X293440000Y-139410000I0J160000D01*
G01*
X293440000Y-139090000D01*
G75*
G02*
X293600000Y-138930000I160000J0D01*
G01*
X294045000Y-138930000D01*
G75*
G02*
X294205000Y-139090000I0J-160000D01*
G01*
G37*
%TD*%
%TO.C,D157*%
G36*
G01*
X155060000Y-119840000D02*
X155060000Y-120160000D01*
G75*
G02*
X154900000Y-120320000I-160000J0D01*
G01*
X154455000Y-120320000D01*
G75*
G02*
X154295000Y-120160000I0J160000D01*
G01*
X154295000Y-119840000D01*
G75*
G02*
X154455000Y-119680000I160000J0D01*
G01*
X154900000Y-119680000D01*
G75*
G02*
X155060000Y-119840000I0J-160000D01*
G01*
G37*
G36*
G01*
X156205000Y-119840000D02*
X156205000Y-120160000D01*
G75*
G02*
X156045000Y-120320000I-160000J0D01*
G01*
X155600000Y-120320000D01*
G75*
G02*
X155440000Y-120160000I0J160000D01*
G01*
X155440000Y-119840000D01*
G75*
G02*
X155600000Y-119680000I160000J0D01*
G01*
X156045000Y-119680000D01*
G75*
G02*
X156205000Y-119840000I0J-160000D01*
G01*
G37*
%TD*%
%TO.C,D158*%
G36*
G01*
X331310000Y-139090000D02*
X331310000Y-139410000D01*
G75*
G02*
X331150000Y-139570000I-160000J0D01*
G01*
X330705000Y-139570000D01*
G75*
G02*
X330545000Y-139410000I0J160000D01*
G01*
X330545000Y-139090000D01*
G75*
G02*
X330705000Y-138930000I160000J0D01*
G01*
X331150000Y-138930000D01*
G75*
G02*
X331310000Y-139090000I0J-160000D01*
G01*
G37*
G36*
G01*
X332455000Y-139090000D02*
X332455000Y-139410000D01*
G75*
G02*
X332295000Y-139570000I-160000J0D01*
G01*
X331850000Y-139570000D01*
G75*
G02*
X331690000Y-139410000I0J160000D01*
G01*
X331690000Y-139090000D01*
G75*
G02*
X331850000Y-138930000I160000J0D01*
G01*
X332295000Y-138930000D01*
G75*
G02*
X332455000Y-139090000I0J-160000D01*
G01*
G37*
%TD*%
%TO.C,D159*%
G36*
G01*
X121560000Y-62840000D02*
X121560000Y-63160000D01*
G75*
G02*
X121400000Y-63320000I-160000J0D01*
G01*
X120955000Y-63320000D01*
G75*
G02*
X120795000Y-63160000I0J160000D01*
G01*
X120795000Y-62840000D01*
G75*
G02*
X120955000Y-62680000I160000J0D01*
G01*
X121400000Y-62680000D01*
G75*
G02*
X121560000Y-62840000I0J-160000D01*
G01*
G37*
G36*
G01*
X122705000Y-62840000D02*
X122705000Y-63160000D01*
G75*
G02*
X122545000Y-63320000I-160000J0D01*
G01*
X122100000Y-63320000D01*
G75*
G02*
X121940000Y-63160000I0J160000D01*
G01*
X121940000Y-62840000D01*
G75*
G02*
X122100000Y-62680000I160000J0D01*
G01*
X122545000Y-62680000D01*
G75*
G02*
X122705000Y-62840000I0J-160000D01*
G01*
G37*
%TD*%
%TO.C,D160*%
G36*
G01*
X64560000Y-81840000D02*
X64560000Y-82160000D01*
G75*
G02*
X64400000Y-82320000I-160000J0D01*
G01*
X63955000Y-82320000D01*
G75*
G02*
X63795000Y-82160000I0J160000D01*
G01*
X63795000Y-81840000D01*
G75*
G02*
X63955000Y-81680000I160000J0D01*
G01*
X64400000Y-81680000D01*
G75*
G02*
X64560000Y-81840000I0J-160000D01*
G01*
G37*
G36*
G01*
X65705000Y-81840000D02*
X65705000Y-82160000D01*
G75*
G02*
X65545000Y-82320000I-160000J0D01*
G01*
X65100000Y-82320000D01*
G75*
G02*
X64940000Y-82160000I0J160000D01*
G01*
X64940000Y-81840000D01*
G75*
G02*
X65100000Y-81680000I160000J0D01*
G01*
X65545000Y-81680000D01*
G75*
G02*
X65705000Y-81840000I0J-160000D01*
G01*
G37*
%TD*%
%TO.C,D161*%
G36*
G01*
X64560000Y-62840000D02*
X64560000Y-63160000D01*
G75*
G02*
X64400000Y-63320000I-160000J0D01*
G01*
X63955000Y-63320000D01*
G75*
G02*
X63795000Y-63160000I0J160000D01*
G01*
X63795000Y-62840000D01*
G75*
G02*
X63955000Y-62680000I160000J0D01*
G01*
X64400000Y-62680000D01*
G75*
G02*
X64560000Y-62840000I0J-160000D01*
G01*
G37*
G36*
G01*
X65705000Y-62840000D02*
X65705000Y-63160000D01*
G75*
G02*
X65545000Y-63320000I-160000J0D01*
G01*
X65100000Y-63320000D01*
G75*
G02*
X64940000Y-63160000I0J160000D01*
G01*
X64940000Y-62840000D01*
G75*
G02*
X65100000Y-62680000I160000J0D01*
G01*
X65545000Y-62680000D01*
G75*
G02*
X65705000Y-62840000I0J-160000D01*
G01*
G37*
%TD*%
%TO.C,D162*%
G36*
G01*
X313205000Y-139090000D02*
X313205000Y-139410000D01*
G75*
G02*
X313045000Y-139570000I-160000J0D01*
G01*
X312600000Y-139570000D01*
G75*
G02*
X312440000Y-139410000I0J160000D01*
G01*
X312440000Y-139090000D01*
G75*
G02*
X312600000Y-138930000I160000J0D01*
G01*
X313045000Y-138930000D01*
G75*
G02*
X313205000Y-139090000I0J-160000D01*
G01*
G37*
G36*
G01*
X312060000Y-139090000D02*
X312060000Y-139410000D01*
G75*
G02*
X311900000Y-139570000I-160000J0D01*
G01*
X311455000Y-139570000D01*
G75*
G02*
X311295000Y-139410000I0J160000D01*
G01*
X311295000Y-139090000D01*
G75*
G02*
X311455000Y-138930000I160000J0D01*
G01*
X311900000Y-138930000D01*
G75*
G02*
X312060000Y-139090000I0J-160000D01*
G01*
G37*
%TD*%
%TO.C,D163*%
G36*
G01*
X275255000Y-158090000D02*
X275255000Y-158410000D01*
G75*
G02*
X275095000Y-158570000I-160000J0D01*
G01*
X274650000Y-158570000D01*
G75*
G02*
X274490000Y-158410000I0J160000D01*
G01*
X274490000Y-158090000D01*
G75*
G02*
X274650000Y-157930000I160000J0D01*
G01*
X275095000Y-157930000D01*
G75*
G02*
X275255000Y-158090000I0J-160000D01*
G01*
G37*
G36*
G01*
X274110000Y-158090000D02*
X274110000Y-158410000D01*
G75*
G02*
X273950000Y-158570000I-160000J0D01*
G01*
X273505000Y-158570000D01*
G75*
G02*
X273345000Y-158410000I0J160000D01*
G01*
X273345000Y-158090000D01*
G75*
G02*
X273505000Y-157930000I160000J0D01*
G01*
X273950000Y-157930000D01*
G75*
G02*
X274110000Y-158090000I0J-160000D01*
G01*
G37*
%TD*%
M02*
