%TF.GenerationSoftware,KiCad,Pcbnew,(5.1.9)-1*%
%TF.CreationDate,2021-03-14T17:48:21+01:00*%
%TF.ProjectId,mkb_01,6d6b625f-3031-42e6-9b69-6361645f7063,rev?*%
%TF.SameCoordinates,Original*%
%TF.FileFunction,Soldermask,Bot*%
%TF.FilePolarity,Negative*%
%FSLAX46Y46*%
G04 Gerber Fmt 4.6, Leading zero omitted, Abs format (unit mm)*
G04 Created by KiCad (PCBNEW (5.1.9)-1) date 2021-03-14 17:48:21*
%MOMM*%
%LPD*%
G01*
G04 APERTURE LIST*
%ADD10C,2.200000*%
%ADD11C,4.000000*%
%ADD12C,1.700000*%
%ADD13C,3.050000*%
%ADD14R,0.900000X1.200000*%
%ADD15R,1.500000X1.000000*%
%ADD16R,1.700000X1.700000*%
%ADD17O,1.700000X1.700000*%
%ADD18R,2.000000X3.800000*%
%ADD19R,2.000000X1.500000*%
%ADD20R,1.500000X2.000000*%
%ADD21R,3.800000X2.000000*%
%ADD22C,0.700000*%
%ADD23O,0.900000X2.400000*%
%ADD24O,0.900000X1.700000*%
%ADD25C,3.600000*%
%ADD26C,5.600000*%
%ADD27R,3.325000X2.400000*%
G04 APERTURE END LIST*
%TO.C,C6*%
G36*
G01*
X329437500Y-76600000D02*
X328962500Y-76600000D01*
G75*
G02*
X328725000Y-76362500I0J237500D01*
G01*
X328725000Y-75762500D01*
G75*
G02*
X328962500Y-75525000I237500J0D01*
G01*
X329437500Y-75525000D01*
G75*
G02*
X329675000Y-75762500I0J-237500D01*
G01*
X329675000Y-76362500D01*
G75*
G02*
X329437500Y-76600000I-237500J0D01*
G01*
G37*
G36*
G01*
X329437500Y-74875000D02*
X328962500Y-74875000D01*
G75*
G02*
X328725000Y-74637500I0J237500D01*
G01*
X328725000Y-74037500D01*
G75*
G02*
X328962500Y-73800000I237500J0D01*
G01*
X329437500Y-73800000D01*
G75*
G02*
X329675000Y-74037500I0J-237500D01*
G01*
X329675000Y-74637500D01*
G75*
G02*
X329437500Y-74875000I-237500J0D01*
G01*
G37*
%TD*%
%TO.C,C3*%
G36*
G01*
X327937500Y-76600000D02*
X327462500Y-76600000D01*
G75*
G02*
X327225000Y-76362500I0J237500D01*
G01*
X327225000Y-75762500D01*
G75*
G02*
X327462500Y-75525000I237500J0D01*
G01*
X327937500Y-75525000D01*
G75*
G02*
X328175000Y-75762500I0J-237500D01*
G01*
X328175000Y-76362500D01*
G75*
G02*
X327937500Y-76600000I-237500J0D01*
G01*
G37*
G36*
G01*
X327937500Y-74875000D02*
X327462500Y-74875000D01*
G75*
G02*
X327225000Y-74637500I0J237500D01*
G01*
X327225000Y-74037500D01*
G75*
G02*
X327462500Y-73800000I237500J0D01*
G01*
X327937500Y-73800000D01*
G75*
G02*
X328175000Y-74037500I0J-237500D01*
G01*
X328175000Y-74637500D01*
G75*
G02*
X327937500Y-74875000I-237500J0D01*
G01*
G37*
%TD*%
D10*
%TO.C,F2*%
X100300000Y-73700000D03*
X106650000Y-71160000D03*
D11*
X102840000Y-68620000D03*
D12*
X107920000Y-68620000D03*
X97760000Y-68620000D03*
%TD*%
D10*
%TO.C,^1*%
X62200000Y-92750000D03*
X68550000Y-90210000D03*
D11*
X64740000Y-87670000D03*
D12*
X69820000Y-87670000D03*
X59660000Y-87670000D03*
%TD*%
%TO.C,A1*%
X93010000Y-125770000D03*
X103170000Y-125770000D03*
D11*
X98090000Y-125770000D03*
D10*
X101900000Y-128310000D03*
X95550000Y-130850000D03*
%TD*%
%TO.C,ALT1*%
X107470000Y-168950000D03*
X113820000Y-166410000D03*
D11*
X110010000Y-163870000D03*
D12*
X115090000Y-163870000D03*
X104930000Y-163870000D03*
%TD*%
D10*
%TO.C,ALTGR1*%
X250350000Y-168950000D03*
X256700000Y-166410000D03*
D11*
X252890000Y-163870000D03*
D12*
X257970000Y-163870000D03*
X247810000Y-163870000D03*
%TD*%
D10*
%TO.C,B1*%
X195545000Y-149900000D03*
X201895000Y-147360000D03*
D11*
X198085000Y-144820000D03*
D12*
X203165000Y-144820000D03*
X193005000Y-144820000D03*
%TD*%
%TO.C,BACKSLASH1*%
X288260000Y-87670000D03*
X298420000Y-87670000D03*
D11*
X293340000Y-87670000D03*
D10*
X297150000Y-90210000D03*
X290800000Y-92750000D03*
%TD*%
%TO.C,BACKSPACE1*%
X319375000Y-92750000D03*
X325725000Y-90210000D03*
D11*
X321915000Y-87670000D03*
D12*
X326995000Y-87670000D03*
X316835000Y-87670000D03*
D11*
X310015000Y-79430000D03*
X333815000Y-79430000D03*
D13*
X333815000Y-94670000D03*
X310015000Y-94670000D03*
%TD*%
%TO.C,C1*%
G36*
G01*
X336025000Y-57937500D02*
X336025000Y-57462500D01*
G75*
G02*
X336262500Y-57225000I237500J0D01*
G01*
X336862500Y-57225000D01*
G75*
G02*
X337100000Y-57462500I0J-237500D01*
G01*
X337100000Y-57937500D01*
G75*
G02*
X336862500Y-58175000I-237500J0D01*
G01*
X336262500Y-58175000D01*
G75*
G02*
X336025000Y-57937500I0J237500D01*
G01*
G37*
G36*
G01*
X334300000Y-57937500D02*
X334300000Y-57462500D01*
G75*
G02*
X334537500Y-57225000I237500J0D01*
G01*
X335137500Y-57225000D01*
G75*
G02*
X335375000Y-57462500I0J-237500D01*
G01*
X335375000Y-57937500D01*
G75*
G02*
X335137500Y-58175000I-237500J0D01*
G01*
X334537500Y-58175000D01*
G75*
G02*
X334300000Y-57937500I0J237500D01*
G01*
G37*
%TD*%
%TO.C,C2*%
G36*
G01*
X316162500Y-77625000D02*
X316637500Y-77625000D01*
G75*
G02*
X316875000Y-77862500I0J-237500D01*
G01*
X316875000Y-78462500D01*
G75*
G02*
X316637500Y-78700000I-237500J0D01*
G01*
X316162500Y-78700000D01*
G75*
G02*
X315925000Y-78462500I0J237500D01*
G01*
X315925000Y-77862500D01*
G75*
G02*
X316162500Y-77625000I237500J0D01*
G01*
G37*
G36*
G01*
X316162500Y-75900000D02*
X316637500Y-75900000D01*
G75*
G02*
X316875000Y-76137500I0J-237500D01*
G01*
X316875000Y-76737500D01*
G75*
G02*
X316637500Y-76975000I-237500J0D01*
G01*
X316162500Y-76975000D01*
G75*
G02*
X315925000Y-76737500I0J237500D01*
G01*
X315925000Y-76137500D01*
G75*
G02*
X316162500Y-75900000I237500J0D01*
G01*
G37*
%TD*%
%TO.C,C4*%
G36*
G01*
X340400000Y-66662500D02*
X340400000Y-67137500D01*
G75*
G02*
X340162500Y-67375000I-237500J0D01*
G01*
X339562500Y-67375000D01*
G75*
G02*
X339325000Y-67137500I0J237500D01*
G01*
X339325000Y-66662500D01*
G75*
G02*
X339562500Y-66425000I237500J0D01*
G01*
X340162500Y-66425000D01*
G75*
G02*
X340400000Y-66662500I0J-237500D01*
G01*
G37*
G36*
G01*
X338675000Y-66662500D02*
X338675000Y-67137500D01*
G75*
G02*
X338437500Y-67375000I-237500J0D01*
G01*
X337837500Y-67375000D01*
G75*
G02*
X337600000Y-67137500I0J237500D01*
G01*
X337600000Y-66662500D01*
G75*
G02*
X337837500Y-66425000I237500J0D01*
G01*
X338437500Y-66425000D01*
G75*
G02*
X338675000Y-66662500I0J-237500D01*
G01*
G37*
%TD*%
%TO.C,C5*%
G36*
G01*
X312797748Y-69038128D02*
X312461872Y-68702252D01*
G75*
G02*
X312461872Y-68366376I167938J167938D01*
G01*
X312886136Y-67942112D01*
G75*
G02*
X313222012Y-67942112I167938J-167938D01*
G01*
X313557888Y-68277988D01*
G75*
G02*
X313557888Y-68613864I-167938J-167938D01*
G01*
X313133624Y-69038128D01*
G75*
G02*
X312797748Y-69038128I-167938J167938D01*
G01*
G37*
G36*
G01*
X311577988Y-70257888D02*
X311242112Y-69922012D01*
G75*
G02*
X311242112Y-69586136I167938J167938D01*
G01*
X311666376Y-69161872D01*
G75*
G02*
X312002252Y-69161872I167938J-167938D01*
G01*
X312338128Y-69497748D01*
G75*
G02*
X312338128Y-69833624I-167938J-167938D01*
G01*
X311913864Y-70257888D01*
G75*
G02*
X311577988Y-70257888I-167938J167938D01*
G01*
G37*
%TD*%
%TO.C,C7*%
G36*
G01*
X325400000Y-65537500D02*
X325400000Y-65062500D01*
G75*
G02*
X325637500Y-64825000I237500J0D01*
G01*
X326237500Y-64825000D01*
G75*
G02*
X326475000Y-65062500I0J-237500D01*
G01*
X326475000Y-65537500D01*
G75*
G02*
X326237500Y-65775000I-237500J0D01*
G01*
X325637500Y-65775000D01*
G75*
G02*
X325400000Y-65537500I0J237500D01*
G01*
G37*
G36*
G01*
X327125000Y-65537500D02*
X327125000Y-65062500D01*
G75*
G02*
X327362500Y-64825000I237500J0D01*
G01*
X327962500Y-64825000D01*
G75*
G02*
X328200000Y-65062500I0J-237500D01*
G01*
X328200000Y-65537500D01*
G75*
G02*
X327962500Y-65775000I-237500J0D01*
G01*
X327362500Y-65775000D01*
G75*
G02*
X327125000Y-65537500I0J237500D01*
G01*
G37*
%TD*%
D12*
%TO.C,C8*%
X154905000Y-144820000D03*
X165065000Y-144820000D03*
D11*
X159985000Y-144820000D03*
D10*
X163795000Y-147360000D03*
X157445000Y-149900000D03*
%TD*%
%TO.C,CAPS1*%
X69350000Y-130850000D03*
X75700000Y-128310000D03*
D11*
X71890000Y-125770000D03*
D12*
X76970000Y-125770000D03*
X66810000Y-125770000D03*
%TD*%
%TO.C,COMMA1*%
X250155000Y-144820000D03*
X260315000Y-144820000D03*
D11*
X255235000Y-144820000D03*
D10*
X259045000Y-147360000D03*
X252695000Y-149900000D03*
%TD*%
D14*
%TO.C,D1*%
X332550000Y-57700000D03*
X329250000Y-57700000D03*
%TD*%
%TO.C,D2*%
G36*
G01*
X330900000Y-67137500D02*
X330900000Y-66662500D01*
G75*
G02*
X331137500Y-66425000I237500J0D01*
G01*
X331712500Y-66425000D01*
G75*
G02*
X331950000Y-66662500I0J-237500D01*
G01*
X331950000Y-67137500D01*
G75*
G02*
X331712500Y-67375000I-237500J0D01*
G01*
X331137500Y-67375000D01*
G75*
G02*
X330900000Y-67137500I0J237500D01*
G01*
G37*
G36*
G01*
X332650000Y-67137500D02*
X332650000Y-66662500D01*
G75*
G02*
X332887500Y-66425000I237500J0D01*
G01*
X333462500Y-66425000D01*
G75*
G02*
X333700000Y-66662500I0J-237500D01*
G01*
X333700000Y-67137500D01*
G75*
G02*
X333462500Y-67375000I-237500J0D01*
G01*
X332887500Y-67375000D01*
G75*
G02*
X332650000Y-67137500I0J237500D01*
G01*
G37*
%TD*%
%TO.C,D3*%
G36*
G01*
X70800000Y-74662500D02*
X70800000Y-75137500D01*
G75*
G02*
X70562500Y-75375000I-237500J0D01*
G01*
X69987500Y-75375000D01*
G75*
G02*
X69750000Y-75137500I0J237500D01*
G01*
X69750000Y-74662500D01*
G75*
G02*
X69987500Y-74425000I237500J0D01*
G01*
X70562500Y-74425000D01*
G75*
G02*
X70800000Y-74662500I0J-237500D01*
G01*
G37*
G36*
G01*
X69050000Y-74662500D02*
X69050000Y-75137500D01*
G75*
G02*
X68812500Y-75375000I-237500J0D01*
G01*
X68237500Y-75375000D01*
G75*
G02*
X68000000Y-75137500I0J237500D01*
G01*
X68000000Y-74662500D01*
G75*
G02*
X68237500Y-74425000I237500J0D01*
G01*
X68812500Y-74425000D01*
G75*
G02*
X69050000Y-74662500I0J-237500D01*
G01*
G37*
%TD*%
%TO.C,D4*%
G36*
G01*
X69050000Y-93762500D02*
X69050000Y-94237500D01*
G75*
G02*
X68812500Y-94475000I-237500J0D01*
G01*
X68237500Y-94475000D01*
G75*
G02*
X68000000Y-94237500I0J237500D01*
G01*
X68000000Y-93762500D01*
G75*
G02*
X68237500Y-93525000I237500J0D01*
G01*
X68812500Y-93525000D01*
G75*
G02*
X69050000Y-93762500I0J-237500D01*
G01*
G37*
G36*
G01*
X70800000Y-93762500D02*
X70800000Y-94237500D01*
G75*
G02*
X70562500Y-94475000I-237500J0D01*
G01*
X69987500Y-94475000D01*
G75*
G02*
X69750000Y-94237500I0J237500D01*
G01*
X69750000Y-93762500D01*
G75*
G02*
X69987500Y-93525000I237500J0D01*
G01*
X70562500Y-93525000D01*
G75*
G02*
X70800000Y-93762500I0J-237500D01*
G01*
G37*
%TD*%
%TO.C,D5*%
G36*
G01*
X75575000Y-112762500D02*
X75575000Y-113237500D01*
G75*
G02*
X75337500Y-113475000I-237500J0D01*
G01*
X74762500Y-113475000D01*
G75*
G02*
X74525000Y-113237500I0J237500D01*
G01*
X74525000Y-112762500D01*
G75*
G02*
X74762500Y-112525000I237500J0D01*
G01*
X75337500Y-112525000D01*
G75*
G02*
X75575000Y-112762500I0J-237500D01*
G01*
G37*
G36*
G01*
X73825000Y-112762500D02*
X73825000Y-113237500D01*
G75*
G02*
X73587500Y-113475000I-237500J0D01*
G01*
X73012500Y-113475000D01*
G75*
G02*
X72775000Y-113237500I0J237500D01*
G01*
X72775000Y-112762500D01*
G75*
G02*
X73012500Y-112525000I237500J0D01*
G01*
X73587500Y-112525000D01*
G75*
G02*
X73825000Y-112762500I0J-237500D01*
G01*
G37*
%TD*%
%TO.C,D6*%
G36*
G01*
X76250000Y-131862500D02*
X76250000Y-132337500D01*
G75*
G02*
X76012500Y-132575000I-237500J0D01*
G01*
X75437500Y-132575000D01*
G75*
G02*
X75200000Y-132337500I0J237500D01*
G01*
X75200000Y-131862500D01*
G75*
G02*
X75437500Y-131625000I237500J0D01*
G01*
X76012500Y-131625000D01*
G75*
G02*
X76250000Y-131862500I0J-237500D01*
G01*
G37*
G36*
G01*
X78000000Y-131862500D02*
X78000000Y-132337500D01*
G75*
G02*
X77762500Y-132575000I-237500J0D01*
G01*
X77187500Y-132575000D01*
G75*
G02*
X76950000Y-132337500I0J237500D01*
G01*
X76950000Y-131862500D01*
G75*
G02*
X77187500Y-131625000I237500J0D01*
G01*
X77762500Y-131625000D01*
G75*
G02*
X78000000Y-131862500I0J-237500D01*
G01*
G37*
%TD*%
%TO.C,D7*%
G36*
G01*
X107220000Y-150862500D02*
X107220000Y-151337500D01*
G75*
G02*
X106982500Y-151575000I-237500J0D01*
G01*
X106407500Y-151575000D01*
G75*
G02*
X106170000Y-151337500I0J237500D01*
G01*
X106170000Y-150862500D01*
G75*
G02*
X106407500Y-150625000I237500J0D01*
G01*
X106982500Y-150625000D01*
G75*
G02*
X107220000Y-150862500I0J-237500D01*
G01*
G37*
G36*
G01*
X108970000Y-150862500D02*
X108970000Y-151337500D01*
G75*
G02*
X108732500Y-151575000I-237500J0D01*
G01*
X108157500Y-151575000D01*
G75*
G02*
X107920000Y-151337500I0J237500D01*
G01*
X107920000Y-150862500D01*
G75*
G02*
X108157500Y-150625000I237500J0D01*
G01*
X108732500Y-150625000D01*
G75*
G02*
X108970000Y-150862500I0J-237500D01*
G01*
G37*
%TD*%
%TO.C,D8*%
G36*
G01*
X88150000Y-74662500D02*
X88150000Y-75137500D01*
G75*
G02*
X87912500Y-75375000I-237500J0D01*
G01*
X87337500Y-75375000D01*
G75*
G02*
X87100000Y-75137500I0J237500D01*
G01*
X87100000Y-74662500D01*
G75*
G02*
X87337500Y-74425000I237500J0D01*
G01*
X87912500Y-74425000D01*
G75*
G02*
X88150000Y-74662500I0J-237500D01*
G01*
G37*
G36*
G01*
X89900000Y-74662500D02*
X89900000Y-75137500D01*
G75*
G02*
X89662500Y-75375000I-237500J0D01*
G01*
X89087500Y-75375000D01*
G75*
G02*
X88850000Y-75137500I0J237500D01*
G01*
X88850000Y-74662500D01*
G75*
G02*
X89087500Y-74425000I237500J0D01*
G01*
X89662500Y-74425000D01*
G75*
G02*
X89900000Y-74662500I0J-237500D01*
G01*
G37*
%TD*%
%TO.C,D9*%
G36*
G01*
X88150000Y-93762500D02*
X88150000Y-94237500D01*
G75*
G02*
X87912500Y-94475000I-237500J0D01*
G01*
X87337500Y-94475000D01*
G75*
G02*
X87100000Y-94237500I0J237500D01*
G01*
X87100000Y-93762500D01*
G75*
G02*
X87337500Y-93525000I237500J0D01*
G01*
X87912500Y-93525000D01*
G75*
G02*
X88150000Y-93762500I0J-237500D01*
G01*
G37*
G36*
G01*
X89900000Y-93762500D02*
X89900000Y-94237500D01*
G75*
G02*
X89662500Y-94475000I-237500J0D01*
G01*
X89087500Y-94475000D01*
G75*
G02*
X88850000Y-94237500I0J237500D01*
G01*
X88850000Y-93762500D01*
G75*
G02*
X89087500Y-93525000I237500J0D01*
G01*
X89662500Y-93525000D01*
G75*
G02*
X89900000Y-93762500I0J-237500D01*
G01*
G37*
%TD*%
%TO.C,D10*%
G36*
G01*
X97650000Y-112762500D02*
X97650000Y-113237500D01*
G75*
G02*
X97412500Y-113475000I-237500J0D01*
G01*
X96837500Y-113475000D01*
G75*
G02*
X96600000Y-113237500I0J237500D01*
G01*
X96600000Y-112762500D01*
G75*
G02*
X96837500Y-112525000I237500J0D01*
G01*
X97412500Y-112525000D01*
G75*
G02*
X97650000Y-112762500I0J-237500D01*
G01*
G37*
G36*
G01*
X99400000Y-112762500D02*
X99400000Y-113237500D01*
G75*
G02*
X99162500Y-113475000I-237500J0D01*
G01*
X98587500Y-113475000D01*
G75*
G02*
X98350000Y-113237500I0J237500D01*
G01*
X98350000Y-112762500D01*
G75*
G02*
X98587500Y-112525000I237500J0D01*
G01*
X99162500Y-112525000D01*
G75*
G02*
X99400000Y-112762500I0J-237500D01*
G01*
G37*
%TD*%
%TO.C,D11*%
G36*
G01*
X104200000Y-131862500D02*
X104200000Y-132337500D01*
G75*
G02*
X103962500Y-132575000I-237500J0D01*
G01*
X103387500Y-132575000D01*
G75*
G02*
X103150000Y-132337500I0J237500D01*
G01*
X103150000Y-131862500D01*
G75*
G02*
X103387500Y-131625000I237500J0D01*
G01*
X103962500Y-131625000D01*
G75*
G02*
X104200000Y-131862500I0J-237500D01*
G01*
G37*
G36*
G01*
X102450000Y-131862500D02*
X102450000Y-132337500D01*
G75*
G02*
X102212500Y-132575000I-237500J0D01*
G01*
X101637500Y-132575000D01*
G75*
G02*
X101400000Y-132337500I0J237500D01*
G01*
X101400000Y-131862500D01*
G75*
G02*
X101637500Y-131625000I237500J0D01*
G01*
X102212500Y-131625000D01*
G75*
G02*
X102450000Y-131862500I0J-237500D01*
G01*
G37*
%TD*%
%TO.C,D12*%
G36*
G01*
X127970000Y-150862500D02*
X127970000Y-151337500D01*
G75*
G02*
X127732500Y-151575000I-237500J0D01*
G01*
X127157500Y-151575000D01*
G75*
G02*
X126920000Y-151337500I0J237500D01*
G01*
X126920000Y-150862500D01*
G75*
G02*
X127157500Y-150625000I237500J0D01*
G01*
X127732500Y-150625000D01*
G75*
G02*
X127970000Y-150862500I0J-237500D01*
G01*
G37*
G36*
G01*
X126220000Y-150862500D02*
X126220000Y-151337500D01*
G75*
G02*
X125982500Y-151575000I-237500J0D01*
G01*
X125407500Y-151575000D01*
G75*
G02*
X125170000Y-151337500I0J237500D01*
G01*
X125170000Y-150862500D01*
G75*
G02*
X125407500Y-150625000I237500J0D01*
G01*
X125982500Y-150625000D01*
G75*
G02*
X126220000Y-150862500I0J-237500D01*
G01*
G37*
%TD*%
%TO.C,D13*%
G36*
G01*
X107150000Y-74662500D02*
X107150000Y-75137500D01*
G75*
G02*
X106912500Y-75375000I-237500J0D01*
G01*
X106337500Y-75375000D01*
G75*
G02*
X106100000Y-75137500I0J237500D01*
G01*
X106100000Y-74662500D01*
G75*
G02*
X106337500Y-74425000I237500J0D01*
G01*
X106912500Y-74425000D01*
G75*
G02*
X107150000Y-74662500I0J-237500D01*
G01*
G37*
G36*
G01*
X108900000Y-74662500D02*
X108900000Y-75137500D01*
G75*
G02*
X108662500Y-75375000I-237500J0D01*
G01*
X108087500Y-75375000D01*
G75*
G02*
X107850000Y-75137500I0J237500D01*
G01*
X107850000Y-74662500D01*
G75*
G02*
X108087500Y-74425000I237500J0D01*
G01*
X108662500Y-74425000D01*
G75*
G02*
X108900000Y-74662500I0J-237500D01*
G01*
G37*
%TD*%
%TO.C,D14*%
G36*
G01*
X109000000Y-93762500D02*
X109000000Y-94237500D01*
G75*
G02*
X108762500Y-94475000I-237500J0D01*
G01*
X108187500Y-94475000D01*
G75*
G02*
X107950000Y-94237500I0J237500D01*
G01*
X107950000Y-93762500D01*
G75*
G02*
X108187500Y-93525000I237500J0D01*
G01*
X108762500Y-93525000D01*
G75*
G02*
X109000000Y-93762500I0J-237500D01*
G01*
G37*
G36*
G01*
X107250000Y-93762500D02*
X107250000Y-94237500D01*
G75*
G02*
X107012500Y-94475000I-237500J0D01*
G01*
X106437500Y-94475000D01*
G75*
G02*
X106200000Y-94237500I0J237500D01*
G01*
X106200000Y-93762500D01*
G75*
G02*
X106437500Y-93525000I237500J0D01*
G01*
X107012500Y-93525000D01*
G75*
G02*
X107250000Y-93762500I0J-237500D01*
G01*
G37*
%TD*%
%TO.C,D15*%
G36*
G01*
X118500000Y-112762500D02*
X118500000Y-113237500D01*
G75*
G02*
X118262500Y-113475000I-237500J0D01*
G01*
X117687500Y-113475000D01*
G75*
G02*
X117450000Y-113237500I0J237500D01*
G01*
X117450000Y-112762500D01*
G75*
G02*
X117687500Y-112525000I237500J0D01*
G01*
X118262500Y-112525000D01*
G75*
G02*
X118500000Y-112762500I0J-237500D01*
G01*
G37*
G36*
G01*
X116750000Y-112762500D02*
X116750000Y-113237500D01*
G75*
G02*
X116512500Y-113475000I-237500J0D01*
G01*
X115937500Y-113475000D01*
G75*
G02*
X115700000Y-113237500I0J237500D01*
G01*
X115700000Y-112762500D01*
G75*
G02*
X115937500Y-112525000I237500J0D01*
G01*
X116512500Y-112525000D01*
G75*
G02*
X116750000Y-112762500I0J-237500D01*
G01*
G37*
%TD*%
%TO.C,D16*%
G36*
G01*
X121550000Y-131862500D02*
X121550000Y-132337500D01*
G75*
G02*
X121312500Y-132575000I-237500J0D01*
G01*
X120737500Y-132575000D01*
G75*
G02*
X120500000Y-132337500I0J237500D01*
G01*
X120500000Y-131862500D01*
G75*
G02*
X120737500Y-131625000I237500J0D01*
G01*
X121312500Y-131625000D01*
G75*
G02*
X121550000Y-131862500I0J-237500D01*
G01*
G37*
G36*
G01*
X123300000Y-131862500D02*
X123300000Y-132337500D01*
G75*
G02*
X123062500Y-132575000I-237500J0D01*
G01*
X122487500Y-132575000D01*
G75*
G02*
X122250000Y-132337500I0J237500D01*
G01*
X122250000Y-131862500D01*
G75*
G02*
X122487500Y-131625000I237500J0D01*
G01*
X123062500Y-131625000D01*
G75*
G02*
X123300000Y-131862500I0J-237500D01*
G01*
G37*
%TD*%
%TO.C,D17*%
G36*
G01*
X144150000Y-139137500D02*
X144150000Y-138662500D01*
G75*
G02*
X144387500Y-138425000I237500J0D01*
G01*
X144962500Y-138425000D01*
G75*
G02*
X145200000Y-138662500I0J-237500D01*
G01*
X145200000Y-139137500D01*
G75*
G02*
X144962500Y-139375000I-237500J0D01*
G01*
X144387500Y-139375000D01*
G75*
G02*
X144150000Y-139137500I0J237500D01*
G01*
G37*
G36*
G01*
X142400000Y-139137500D02*
X142400000Y-138662500D01*
G75*
G02*
X142637500Y-138425000I237500J0D01*
G01*
X143212500Y-138425000D01*
G75*
G02*
X143450000Y-138662500I0J-237500D01*
G01*
X143450000Y-139137500D01*
G75*
G02*
X143212500Y-139375000I-237500J0D01*
G01*
X142637500Y-139375000D01*
G75*
G02*
X142400000Y-139137500I0J237500D01*
G01*
G37*
%TD*%
D10*
%TO.C,D18*%
X133650000Y-130850000D03*
X140000000Y-128310000D03*
D11*
X136190000Y-125770000D03*
D12*
X141270000Y-125770000D03*
X131110000Y-125770000D03*
%TD*%
%TO.C,D19*%
G36*
G01*
X126250000Y-74662500D02*
X126250000Y-75137500D01*
G75*
G02*
X126012500Y-75375000I-237500J0D01*
G01*
X125437500Y-75375000D01*
G75*
G02*
X125200000Y-75137500I0J237500D01*
G01*
X125200000Y-74662500D01*
G75*
G02*
X125437500Y-74425000I237500J0D01*
G01*
X126012500Y-74425000D01*
G75*
G02*
X126250000Y-74662500I0J-237500D01*
G01*
G37*
G36*
G01*
X128000000Y-74662500D02*
X128000000Y-75137500D01*
G75*
G02*
X127762500Y-75375000I-237500J0D01*
G01*
X127187500Y-75375000D01*
G75*
G02*
X126950000Y-75137500I0J237500D01*
G01*
X126950000Y-74662500D01*
G75*
G02*
X127187500Y-74425000I237500J0D01*
G01*
X127762500Y-74425000D01*
G75*
G02*
X128000000Y-74662500I0J-237500D01*
G01*
G37*
%TD*%
%TO.C,D20*%
G36*
G01*
X128000000Y-93662500D02*
X128000000Y-94137500D01*
G75*
G02*
X127762500Y-94375000I-237500J0D01*
G01*
X127187500Y-94375000D01*
G75*
G02*
X126950000Y-94137500I0J237500D01*
G01*
X126950000Y-93662500D01*
G75*
G02*
X127187500Y-93425000I237500J0D01*
G01*
X127762500Y-93425000D01*
G75*
G02*
X128000000Y-93662500I0J-237500D01*
G01*
G37*
G36*
G01*
X126250000Y-93662500D02*
X126250000Y-94137500D01*
G75*
G02*
X126012500Y-94375000I-237500J0D01*
G01*
X125437500Y-94375000D01*
G75*
G02*
X125200000Y-94137500I0J237500D01*
G01*
X125200000Y-93662500D01*
G75*
G02*
X125437500Y-93425000I237500J0D01*
G01*
X126012500Y-93425000D01*
G75*
G02*
X126250000Y-93662500I0J-237500D01*
G01*
G37*
%TD*%
%TO.C,D21*%
G36*
G01*
X135750000Y-112762500D02*
X135750000Y-113237500D01*
G75*
G02*
X135512500Y-113475000I-237500J0D01*
G01*
X134937500Y-113475000D01*
G75*
G02*
X134700000Y-113237500I0J237500D01*
G01*
X134700000Y-112762500D01*
G75*
G02*
X134937500Y-112525000I237500J0D01*
G01*
X135512500Y-112525000D01*
G75*
G02*
X135750000Y-112762500I0J-237500D01*
G01*
G37*
G36*
G01*
X137500000Y-112762500D02*
X137500000Y-113237500D01*
G75*
G02*
X137262500Y-113475000I-237500J0D01*
G01*
X136687500Y-113475000D01*
G75*
G02*
X136450000Y-113237500I0J237500D01*
G01*
X136450000Y-112762500D01*
G75*
G02*
X136687500Y-112525000I237500J0D01*
G01*
X137262500Y-112525000D01*
G75*
G02*
X137500000Y-112762500I0J-237500D01*
G01*
G37*
%TD*%
%TO.C,D22*%
G36*
G01*
X140550000Y-131762500D02*
X140550000Y-132237500D01*
G75*
G02*
X140312500Y-132475000I-237500J0D01*
G01*
X139737500Y-132475000D01*
G75*
G02*
X139500000Y-132237500I0J237500D01*
G01*
X139500000Y-131762500D01*
G75*
G02*
X139737500Y-131525000I237500J0D01*
G01*
X140312500Y-131525000D01*
G75*
G02*
X140550000Y-131762500I0J-237500D01*
G01*
G37*
G36*
G01*
X142300000Y-131762500D02*
X142300000Y-132237500D01*
G75*
G02*
X142062500Y-132475000I-237500J0D01*
G01*
X141487500Y-132475000D01*
G75*
G02*
X141250000Y-132237500I0J237500D01*
G01*
X141250000Y-131762500D01*
G75*
G02*
X141487500Y-131525000I237500J0D01*
G01*
X142062500Y-131525000D01*
G75*
G02*
X142300000Y-131762500I0J-237500D01*
G01*
G37*
%TD*%
%TO.C,D23*%
G36*
G01*
X161500000Y-139137500D02*
X161500000Y-138662500D01*
G75*
G02*
X161737500Y-138425000I237500J0D01*
G01*
X162312500Y-138425000D01*
G75*
G02*
X162550000Y-138662500I0J-237500D01*
G01*
X162550000Y-139137500D01*
G75*
G02*
X162312500Y-139375000I-237500J0D01*
G01*
X161737500Y-139375000D01*
G75*
G02*
X161500000Y-139137500I0J237500D01*
G01*
G37*
G36*
G01*
X163250000Y-139137500D02*
X163250000Y-138662500D01*
G75*
G02*
X163487500Y-138425000I237500J0D01*
G01*
X164062500Y-138425000D01*
G75*
G02*
X164300000Y-138662500I0J-237500D01*
G01*
X164300000Y-139137500D01*
G75*
G02*
X164062500Y-139375000I-237500J0D01*
G01*
X163487500Y-139375000D01*
G75*
G02*
X163250000Y-139137500I0J237500D01*
G01*
G37*
%TD*%
%TO.C,D24*%
G36*
G01*
X145250000Y-74662500D02*
X145250000Y-75137500D01*
G75*
G02*
X145012500Y-75375000I-237500J0D01*
G01*
X144437500Y-75375000D01*
G75*
G02*
X144200000Y-75137500I0J237500D01*
G01*
X144200000Y-74662500D01*
G75*
G02*
X144437500Y-74425000I237500J0D01*
G01*
X145012500Y-74425000D01*
G75*
G02*
X145250000Y-74662500I0J-237500D01*
G01*
G37*
G36*
G01*
X147000000Y-74662500D02*
X147000000Y-75137500D01*
G75*
G02*
X146762500Y-75375000I-237500J0D01*
G01*
X146187500Y-75375000D01*
G75*
G02*
X145950000Y-75137500I0J237500D01*
G01*
X145950000Y-74662500D01*
G75*
G02*
X146187500Y-74425000I237500J0D01*
G01*
X146762500Y-74425000D01*
G75*
G02*
X147000000Y-74662500I0J-237500D01*
G01*
G37*
%TD*%
%TO.C,D25*%
G36*
G01*
X145250000Y-93662500D02*
X145250000Y-94137500D01*
G75*
G02*
X145012500Y-94375000I-237500J0D01*
G01*
X144437500Y-94375000D01*
G75*
G02*
X144200000Y-94137500I0J237500D01*
G01*
X144200000Y-93662500D01*
G75*
G02*
X144437500Y-93425000I237500J0D01*
G01*
X145012500Y-93425000D01*
G75*
G02*
X145250000Y-93662500I0J-237500D01*
G01*
G37*
G36*
G01*
X147000000Y-93662500D02*
X147000000Y-94137500D01*
G75*
G02*
X146762500Y-94375000I-237500J0D01*
G01*
X146187500Y-94375000D01*
G75*
G02*
X145950000Y-94137500I0J237500D01*
G01*
X145950000Y-93662500D01*
G75*
G02*
X146187500Y-93425000I237500J0D01*
G01*
X146762500Y-93425000D01*
G75*
G02*
X147000000Y-93662500I0J-237500D01*
G01*
G37*
%TD*%
%TO.C,D26*%
G36*
G01*
X156600000Y-112762500D02*
X156600000Y-113237500D01*
G75*
G02*
X156362500Y-113475000I-237500J0D01*
G01*
X155787500Y-113475000D01*
G75*
G02*
X155550000Y-113237500I0J237500D01*
G01*
X155550000Y-112762500D01*
G75*
G02*
X155787500Y-112525000I237500J0D01*
G01*
X156362500Y-112525000D01*
G75*
G02*
X156600000Y-112762500I0J-237500D01*
G01*
G37*
G36*
G01*
X154850000Y-112762500D02*
X154850000Y-113237500D01*
G75*
G02*
X154612500Y-113475000I-237500J0D01*
G01*
X154037500Y-113475000D01*
G75*
G02*
X153800000Y-113237500I0J237500D01*
G01*
X153800000Y-112762500D01*
G75*
G02*
X154037500Y-112525000I237500J0D01*
G01*
X154612500Y-112525000D01*
G75*
G02*
X154850000Y-112762500I0J-237500D01*
G01*
G37*
%TD*%
%TO.C,D27*%
G36*
G01*
X159550000Y-131762500D02*
X159550000Y-132237500D01*
G75*
G02*
X159312500Y-132475000I-237500J0D01*
G01*
X158737500Y-132475000D01*
G75*
G02*
X158500000Y-132237500I0J237500D01*
G01*
X158500000Y-131762500D01*
G75*
G02*
X158737500Y-131525000I237500J0D01*
G01*
X159312500Y-131525000D01*
G75*
G02*
X159550000Y-131762500I0J-237500D01*
G01*
G37*
G36*
G01*
X161300000Y-131762500D02*
X161300000Y-132237500D01*
G75*
G02*
X161062500Y-132475000I-237500J0D01*
G01*
X160487500Y-132475000D01*
G75*
G02*
X160250000Y-132237500I0J237500D01*
G01*
X160250000Y-131762500D01*
G75*
G02*
X160487500Y-131525000I237500J0D01*
G01*
X161062500Y-131525000D01*
G75*
G02*
X161300000Y-131762500I0J-237500D01*
G01*
G37*
%TD*%
%TO.C,D28*%
G36*
G01*
X182250000Y-139237500D02*
X182250000Y-138762500D01*
G75*
G02*
X182487500Y-138525000I237500J0D01*
G01*
X183062500Y-138525000D01*
G75*
G02*
X183300000Y-138762500I0J-237500D01*
G01*
X183300000Y-139237500D01*
G75*
G02*
X183062500Y-139475000I-237500J0D01*
G01*
X182487500Y-139475000D01*
G75*
G02*
X182250000Y-139237500I0J237500D01*
G01*
G37*
G36*
G01*
X180500000Y-139237500D02*
X180500000Y-138762500D01*
G75*
G02*
X180737500Y-138525000I237500J0D01*
G01*
X181312500Y-138525000D01*
G75*
G02*
X181550000Y-138762500I0J-237500D01*
G01*
X181550000Y-139237500D01*
G75*
G02*
X181312500Y-139475000I-237500J0D01*
G01*
X180737500Y-139475000D01*
G75*
G02*
X180500000Y-139237500I0J237500D01*
G01*
G37*
%TD*%
%TO.C,D29*%
G36*
G01*
X166100000Y-74662500D02*
X166100000Y-75137500D01*
G75*
G02*
X165862500Y-75375000I-237500J0D01*
G01*
X165287500Y-75375000D01*
G75*
G02*
X165050000Y-75137500I0J237500D01*
G01*
X165050000Y-74662500D01*
G75*
G02*
X165287500Y-74425000I237500J0D01*
G01*
X165862500Y-74425000D01*
G75*
G02*
X166100000Y-74662500I0J-237500D01*
G01*
G37*
G36*
G01*
X164350000Y-74662500D02*
X164350000Y-75137500D01*
G75*
G02*
X164112500Y-75375000I-237500J0D01*
G01*
X163537500Y-75375000D01*
G75*
G02*
X163300000Y-75137500I0J237500D01*
G01*
X163300000Y-74662500D01*
G75*
G02*
X163537500Y-74425000I237500J0D01*
G01*
X164112500Y-74425000D01*
G75*
G02*
X164350000Y-74662500I0J-237500D01*
G01*
G37*
%TD*%
%TO.C,D30*%
G36*
G01*
X166100000Y-93662500D02*
X166100000Y-94137500D01*
G75*
G02*
X165862500Y-94375000I-237500J0D01*
G01*
X165287500Y-94375000D01*
G75*
G02*
X165050000Y-94137500I0J237500D01*
G01*
X165050000Y-93662500D01*
G75*
G02*
X165287500Y-93425000I237500J0D01*
G01*
X165862500Y-93425000D01*
G75*
G02*
X166100000Y-93662500I0J-237500D01*
G01*
G37*
G36*
G01*
X164350000Y-93662500D02*
X164350000Y-94137500D01*
G75*
G02*
X164112500Y-94375000I-237500J0D01*
G01*
X163537500Y-94375000D01*
G75*
G02*
X163300000Y-94137500I0J237500D01*
G01*
X163300000Y-93662500D01*
G75*
G02*
X163537500Y-93425000I237500J0D01*
G01*
X164112500Y-93425000D01*
G75*
G02*
X164350000Y-93662500I0J-237500D01*
G01*
G37*
%TD*%
%TO.C,D31*%
G36*
G01*
X173850000Y-112762500D02*
X173850000Y-113237500D01*
G75*
G02*
X173612500Y-113475000I-237500J0D01*
G01*
X173037500Y-113475000D01*
G75*
G02*
X172800000Y-113237500I0J237500D01*
G01*
X172800000Y-112762500D01*
G75*
G02*
X173037500Y-112525000I237500J0D01*
G01*
X173612500Y-112525000D01*
G75*
G02*
X173850000Y-112762500I0J-237500D01*
G01*
G37*
G36*
G01*
X175600000Y-112762500D02*
X175600000Y-113237500D01*
G75*
G02*
X175362500Y-113475000I-237500J0D01*
G01*
X174787500Y-113475000D01*
G75*
G02*
X174550000Y-113237500I0J237500D01*
G01*
X174550000Y-112762500D01*
G75*
G02*
X174787500Y-112525000I237500J0D01*
G01*
X175362500Y-112525000D01*
G75*
G02*
X175600000Y-112762500I0J-237500D01*
G01*
G37*
%TD*%
%TO.C,D32*%
G36*
G01*
X180400000Y-131762500D02*
X180400000Y-132237500D01*
G75*
G02*
X180162500Y-132475000I-237500J0D01*
G01*
X179587500Y-132475000D01*
G75*
G02*
X179350000Y-132237500I0J237500D01*
G01*
X179350000Y-131762500D01*
G75*
G02*
X179587500Y-131525000I237500J0D01*
G01*
X180162500Y-131525000D01*
G75*
G02*
X180400000Y-131762500I0J-237500D01*
G01*
G37*
G36*
G01*
X178650000Y-131762500D02*
X178650000Y-132237500D01*
G75*
G02*
X178412500Y-132475000I-237500J0D01*
G01*
X177837500Y-132475000D01*
G75*
G02*
X177600000Y-132237500I0J237500D01*
G01*
X177600000Y-131762500D01*
G75*
G02*
X177837500Y-131525000I237500J0D01*
G01*
X178412500Y-131525000D01*
G75*
G02*
X178650000Y-131762500I0J-237500D01*
G01*
G37*
%TD*%
%TO.C,D33*%
G36*
G01*
X199600000Y-139137500D02*
X199600000Y-138662500D01*
G75*
G02*
X199837500Y-138425000I237500J0D01*
G01*
X200412500Y-138425000D01*
G75*
G02*
X200650000Y-138662500I0J-237500D01*
G01*
X200650000Y-139137500D01*
G75*
G02*
X200412500Y-139375000I-237500J0D01*
G01*
X199837500Y-139375000D01*
G75*
G02*
X199600000Y-139137500I0J237500D01*
G01*
G37*
G36*
G01*
X201350000Y-139137500D02*
X201350000Y-138662500D01*
G75*
G02*
X201587500Y-138425000I237500J0D01*
G01*
X202162500Y-138425000D01*
G75*
G02*
X202400000Y-138662500I0J-237500D01*
G01*
X202400000Y-139137500D01*
G75*
G02*
X202162500Y-139375000I-237500J0D01*
G01*
X201587500Y-139375000D01*
G75*
G02*
X201350000Y-139137500I0J237500D01*
G01*
G37*
%TD*%
%TO.C,D34*%
G36*
G01*
X183450000Y-74662500D02*
X183450000Y-75137500D01*
G75*
G02*
X183212500Y-75375000I-237500J0D01*
G01*
X182637500Y-75375000D01*
G75*
G02*
X182400000Y-75137500I0J237500D01*
G01*
X182400000Y-74662500D01*
G75*
G02*
X182637500Y-74425000I237500J0D01*
G01*
X183212500Y-74425000D01*
G75*
G02*
X183450000Y-74662500I0J-237500D01*
G01*
G37*
G36*
G01*
X185200000Y-74662500D02*
X185200000Y-75137500D01*
G75*
G02*
X184962500Y-75375000I-237500J0D01*
G01*
X184387500Y-75375000D01*
G75*
G02*
X184150000Y-75137500I0J237500D01*
G01*
X184150000Y-74662500D01*
G75*
G02*
X184387500Y-74425000I237500J0D01*
G01*
X184962500Y-74425000D01*
G75*
G02*
X185200000Y-74662500I0J-237500D01*
G01*
G37*
%TD*%
%TO.C,D35*%
G36*
G01*
X185100000Y-93662500D02*
X185100000Y-94137500D01*
G75*
G02*
X184862500Y-94375000I-237500J0D01*
G01*
X184287500Y-94375000D01*
G75*
G02*
X184050000Y-94137500I0J237500D01*
G01*
X184050000Y-93662500D01*
G75*
G02*
X184287500Y-93425000I237500J0D01*
G01*
X184862500Y-93425000D01*
G75*
G02*
X185100000Y-93662500I0J-237500D01*
G01*
G37*
G36*
G01*
X183350000Y-93662500D02*
X183350000Y-94137500D01*
G75*
G02*
X183112500Y-94375000I-237500J0D01*
G01*
X182537500Y-94375000D01*
G75*
G02*
X182300000Y-94137500I0J237500D01*
G01*
X182300000Y-93662500D01*
G75*
G02*
X182537500Y-93425000I237500J0D01*
G01*
X183112500Y-93425000D01*
G75*
G02*
X183350000Y-93662500I0J-237500D01*
G01*
G37*
%TD*%
%TO.C,D36*%
G36*
G01*
X194700000Y-112762500D02*
X194700000Y-113237500D01*
G75*
G02*
X194462500Y-113475000I-237500J0D01*
G01*
X193887500Y-113475000D01*
G75*
G02*
X193650000Y-113237500I0J237500D01*
G01*
X193650000Y-112762500D01*
G75*
G02*
X193887500Y-112525000I237500J0D01*
G01*
X194462500Y-112525000D01*
G75*
G02*
X194700000Y-112762500I0J-237500D01*
G01*
G37*
G36*
G01*
X192950000Y-112762500D02*
X192950000Y-113237500D01*
G75*
G02*
X192712500Y-113475000I-237500J0D01*
G01*
X192137500Y-113475000D01*
G75*
G02*
X191900000Y-113237500I0J237500D01*
G01*
X191900000Y-112762500D01*
G75*
G02*
X192137500Y-112525000I237500J0D01*
G01*
X192712500Y-112525000D01*
G75*
G02*
X192950000Y-112762500I0J-237500D01*
G01*
G37*
%TD*%
%TO.C,D37*%
G36*
G01*
X197650000Y-131762500D02*
X197650000Y-132237500D01*
G75*
G02*
X197412500Y-132475000I-237500J0D01*
G01*
X196837500Y-132475000D01*
G75*
G02*
X196600000Y-132237500I0J237500D01*
G01*
X196600000Y-131762500D01*
G75*
G02*
X196837500Y-131525000I237500J0D01*
G01*
X197412500Y-131525000D01*
G75*
G02*
X197650000Y-131762500I0J-237500D01*
G01*
G37*
G36*
G01*
X199400000Y-131762500D02*
X199400000Y-132237500D01*
G75*
G02*
X199162500Y-132475000I-237500J0D01*
G01*
X198587500Y-132475000D01*
G75*
G02*
X198350000Y-132237500I0J237500D01*
G01*
X198350000Y-131762500D01*
G75*
G02*
X198587500Y-131525000I237500J0D01*
G01*
X199162500Y-131525000D01*
G75*
G02*
X199400000Y-131762500I0J-237500D01*
G01*
G37*
%TD*%
%TO.C,D38*%
G36*
G01*
X186040000Y-157762500D02*
X186040000Y-158237500D01*
G75*
G02*
X185802500Y-158475000I-237500J0D01*
G01*
X185227500Y-158475000D01*
G75*
G02*
X184990000Y-158237500I0J237500D01*
G01*
X184990000Y-157762500D01*
G75*
G02*
X185227500Y-157525000I237500J0D01*
G01*
X185802500Y-157525000D01*
G75*
G02*
X186040000Y-157762500I0J-237500D01*
G01*
G37*
G36*
G01*
X187790000Y-157762500D02*
X187790000Y-158237500D01*
G75*
G02*
X187552500Y-158475000I-237500J0D01*
G01*
X186977500Y-158475000D01*
G75*
G02*
X186740000Y-158237500I0J237500D01*
G01*
X186740000Y-157762500D01*
G75*
G02*
X186977500Y-157525000I237500J0D01*
G01*
X187552500Y-157525000D01*
G75*
G02*
X187790000Y-157762500I0J-237500D01*
G01*
G37*
%TD*%
%TO.C,D39*%
G36*
G01*
X202450000Y-74662500D02*
X202450000Y-75137500D01*
G75*
G02*
X202212500Y-75375000I-237500J0D01*
G01*
X201637500Y-75375000D01*
G75*
G02*
X201400000Y-75137500I0J237500D01*
G01*
X201400000Y-74662500D01*
G75*
G02*
X201637500Y-74425000I237500J0D01*
G01*
X202212500Y-74425000D01*
G75*
G02*
X202450000Y-74662500I0J-237500D01*
G01*
G37*
G36*
G01*
X204200000Y-74662500D02*
X204200000Y-75137500D01*
G75*
G02*
X203962500Y-75375000I-237500J0D01*
G01*
X203387500Y-75375000D01*
G75*
G02*
X203150000Y-75137500I0J237500D01*
G01*
X203150000Y-74662500D01*
G75*
G02*
X203387500Y-74425000I237500J0D01*
G01*
X203962500Y-74425000D01*
G75*
G02*
X204200000Y-74662500I0J-237500D01*
G01*
G37*
%TD*%
%TO.C,D40*%
G36*
G01*
X204200000Y-93662500D02*
X204200000Y-94137500D01*
G75*
G02*
X203962500Y-94375000I-237500J0D01*
G01*
X203387500Y-94375000D01*
G75*
G02*
X203150000Y-94137500I0J237500D01*
G01*
X203150000Y-93662500D01*
G75*
G02*
X203387500Y-93425000I237500J0D01*
G01*
X203962500Y-93425000D01*
G75*
G02*
X204200000Y-93662500I0J-237500D01*
G01*
G37*
G36*
G01*
X202450000Y-93662500D02*
X202450000Y-94137500D01*
G75*
G02*
X202212500Y-94375000I-237500J0D01*
G01*
X201637500Y-94375000D01*
G75*
G02*
X201400000Y-94137500I0J237500D01*
G01*
X201400000Y-93662500D01*
G75*
G02*
X201637500Y-93425000I237500J0D01*
G01*
X202212500Y-93425000D01*
G75*
G02*
X202450000Y-93662500I0J-237500D01*
G01*
G37*
%TD*%
%TO.C,D41*%
G36*
G01*
X211950000Y-112762500D02*
X211950000Y-113237500D01*
G75*
G02*
X211712500Y-113475000I-237500J0D01*
G01*
X211137500Y-113475000D01*
G75*
G02*
X210900000Y-113237500I0J237500D01*
G01*
X210900000Y-112762500D01*
G75*
G02*
X211137500Y-112525000I237500J0D01*
G01*
X211712500Y-112525000D01*
G75*
G02*
X211950000Y-112762500I0J-237500D01*
G01*
G37*
G36*
G01*
X213700000Y-112762500D02*
X213700000Y-113237500D01*
G75*
G02*
X213462500Y-113475000I-237500J0D01*
G01*
X212887500Y-113475000D01*
G75*
G02*
X212650000Y-113237500I0J237500D01*
G01*
X212650000Y-112762500D01*
G75*
G02*
X212887500Y-112525000I237500J0D01*
G01*
X213462500Y-112525000D01*
G75*
G02*
X213700000Y-112762500I0J-237500D01*
G01*
G37*
%TD*%
%TO.C,D42*%
G36*
G01*
X213900000Y-132337500D02*
X213900000Y-131862500D01*
G75*
G02*
X214137500Y-131625000I237500J0D01*
G01*
X214712500Y-131625000D01*
G75*
G02*
X214950000Y-131862500I0J-237500D01*
G01*
X214950000Y-132337500D01*
G75*
G02*
X214712500Y-132575000I-237500J0D01*
G01*
X214137500Y-132575000D01*
G75*
G02*
X213900000Y-132337500I0J237500D01*
G01*
G37*
G36*
G01*
X215650000Y-132337500D02*
X215650000Y-131862500D01*
G75*
G02*
X215887500Y-131625000I237500J0D01*
G01*
X216462500Y-131625000D01*
G75*
G02*
X216700000Y-131862500I0J-237500D01*
G01*
X216700000Y-132337500D01*
G75*
G02*
X216462500Y-132575000I-237500J0D01*
G01*
X215887500Y-132575000D01*
G75*
G02*
X215650000Y-132337500I0J237500D01*
G01*
G37*
%TD*%
%TO.C,D43*%
G36*
G01*
X223270000Y-138762500D02*
X223270000Y-139237500D01*
G75*
G02*
X223032500Y-139475000I-237500J0D01*
G01*
X222457500Y-139475000D01*
G75*
G02*
X222220000Y-139237500I0J237500D01*
G01*
X222220000Y-138762500D01*
G75*
G02*
X222457500Y-138525000I237500J0D01*
G01*
X223032500Y-138525000D01*
G75*
G02*
X223270000Y-138762500I0J-237500D01*
G01*
G37*
G36*
G01*
X221520000Y-138762500D02*
X221520000Y-139237500D01*
G75*
G02*
X221282500Y-139475000I-237500J0D01*
G01*
X220707500Y-139475000D01*
G75*
G02*
X220470000Y-139237500I0J237500D01*
G01*
X220470000Y-138762500D01*
G75*
G02*
X220707500Y-138525000I237500J0D01*
G01*
X221282500Y-138525000D01*
G75*
G02*
X221520000Y-138762500I0J-237500D01*
G01*
G37*
%TD*%
%TO.C,D44*%
G36*
G01*
X223200000Y-74662500D02*
X223200000Y-75137500D01*
G75*
G02*
X222962500Y-75375000I-237500J0D01*
G01*
X222387500Y-75375000D01*
G75*
G02*
X222150000Y-75137500I0J237500D01*
G01*
X222150000Y-74662500D01*
G75*
G02*
X222387500Y-74425000I237500J0D01*
G01*
X222962500Y-74425000D01*
G75*
G02*
X223200000Y-74662500I0J-237500D01*
G01*
G37*
G36*
G01*
X221450000Y-74662500D02*
X221450000Y-75137500D01*
G75*
G02*
X221212500Y-75375000I-237500J0D01*
G01*
X220637500Y-75375000D01*
G75*
G02*
X220400000Y-75137500I0J237500D01*
G01*
X220400000Y-74662500D01*
G75*
G02*
X220637500Y-74425000I237500J0D01*
G01*
X221212500Y-74425000D01*
G75*
G02*
X221450000Y-74662500I0J-237500D01*
G01*
G37*
%TD*%
%TO.C,D45*%
G36*
G01*
X221550000Y-93662500D02*
X221550000Y-94137500D01*
G75*
G02*
X221312500Y-94375000I-237500J0D01*
G01*
X220737500Y-94375000D01*
G75*
G02*
X220500000Y-94137500I0J237500D01*
G01*
X220500000Y-93662500D01*
G75*
G02*
X220737500Y-93425000I237500J0D01*
G01*
X221312500Y-93425000D01*
G75*
G02*
X221550000Y-93662500I0J-237500D01*
G01*
G37*
G36*
G01*
X223300000Y-93662500D02*
X223300000Y-94137500D01*
G75*
G02*
X223062500Y-94375000I-237500J0D01*
G01*
X222487500Y-94375000D01*
G75*
G02*
X222250000Y-94137500I0J237500D01*
G01*
X222250000Y-93662500D01*
G75*
G02*
X222487500Y-93425000I237500J0D01*
G01*
X223062500Y-93425000D01*
G75*
G02*
X223300000Y-93662500I0J-237500D01*
G01*
G37*
%TD*%
%TO.C,D46*%
G36*
G01*
X232800000Y-112762500D02*
X232800000Y-113237500D01*
G75*
G02*
X232562500Y-113475000I-237500J0D01*
G01*
X231987500Y-113475000D01*
G75*
G02*
X231750000Y-113237500I0J237500D01*
G01*
X231750000Y-112762500D01*
G75*
G02*
X231987500Y-112525000I237500J0D01*
G01*
X232562500Y-112525000D01*
G75*
G02*
X232800000Y-112762500I0J-237500D01*
G01*
G37*
G36*
G01*
X231050000Y-112762500D02*
X231050000Y-113237500D01*
G75*
G02*
X230812500Y-113475000I-237500J0D01*
G01*
X230237500Y-113475000D01*
G75*
G02*
X230000000Y-113237500I0J237500D01*
G01*
X230000000Y-112762500D01*
G75*
G02*
X230237500Y-112525000I237500J0D01*
G01*
X230812500Y-112525000D01*
G75*
G02*
X231050000Y-112762500I0J-237500D01*
G01*
G37*
%TD*%
%TO.C,D47*%
G36*
G01*
X234650000Y-132237500D02*
X234650000Y-131762500D01*
G75*
G02*
X234887500Y-131525000I237500J0D01*
G01*
X235462500Y-131525000D01*
G75*
G02*
X235700000Y-131762500I0J-237500D01*
G01*
X235700000Y-132237500D01*
G75*
G02*
X235462500Y-132475000I-237500J0D01*
G01*
X234887500Y-132475000D01*
G75*
G02*
X234650000Y-132237500I0J237500D01*
G01*
G37*
G36*
G01*
X232900000Y-132237500D02*
X232900000Y-131762500D01*
G75*
G02*
X233137500Y-131525000I237500J0D01*
G01*
X233712500Y-131525000D01*
G75*
G02*
X233950000Y-131762500I0J-237500D01*
G01*
X233950000Y-132237500D01*
G75*
G02*
X233712500Y-132475000I-237500J0D01*
G01*
X233137500Y-132475000D01*
G75*
G02*
X232900000Y-132237500I0J237500D01*
G01*
G37*
%TD*%
%TO.C,D48*%
G36*
G01*
X240620000Y-138762500D02*
X240620000Y-139237500D01*
G75*
G02*
X240382500Y-139475000I-237500J0D01*
G01*
X239807500Y-139475000D01*
G75*
G02*
X239570000Y-139237500I0J237500D01*
G01*
X239570000Y-138762500D01*
G75*
G02*
X239807500Y-138525000I237500J0D01*
G01*
X240382500Y-138525000D01*
G75*
G02*
X240620000Y-138762500I0J-237500D01*
G01*
G37*
G36*
G01*
X242370000Y-138762500D02*
X242370000Y-139237500D01*
G75*
G02*
X242132500Y-139475000I-237500J0D01*
G01*
X241557500Y-139475000D01*
G75*
G02*
X241320000Y-139237500I0J237500D01*
G01*
X241320000Y-138762500D01*
G75*
G02*
X241557500Y-138525000I237500J0D01*
G01*
X242132500Y-138525000D01*
G75*
G02*
X242370000Y-138762500I0J-237500D01*
G01*
G37*
%TD*%
%TO.C,D49*%
G36*
G01*
X242300000Y-74662500D02*
X242300000Y-75137500D01*
G75*
G02*
X242062500Y-75375000I-237500J0D01*
G01*
X241487500Y-75375000D01*
G75*
G02*
X241250000Y-75137500I0J237500D01*
G01*
X241250000Y-74662500D01*
G75*
G02*
X241487500Y-74425000I237500J0D01*
G01*
X242062500Y-74425000D01*
G75*
G02*
X242300000Y-74662500I0J-237500D01*
G01*
G37*
G36*
G01*
X240550000Y-74662500D02*
X240550000Y-75137500D01*
G75*
G02*
X240312500Y-75375000I-237500J0D01*
G01*
X239737500Y-75375000D01*
G75*
G02*
X239500000Y-75137500I0J237500D01*
G01*
X239500000Y-74662500D01*
G75*
G02*
X239737500Y-74425000I237500J0D01*
G01*
X240312500Y-74425000D01*
G75*
G02*
X240550000Y-74662500I0J-237500D01*
G01*
G37*
%TD*%
%TO.C,D50*%
G36*
G01*
X242300000Y-93662500D02*
X242300000Y-94137500D01*
G75*
G02*
X242062500Y-94375000I-237500J0D01*
G01*
X241487500Y-94375000D01*
G75*
G02*
X241250000Y-94137500I0J237500D01*
G01*
X241250000Y-93662500D01*
G75*
G02*
X241487500Y-93425000I237500J0D01*
G01*
X242062500Y-93425000D01*
G75*
G02*
X242300000Y-93662500I0J-237500D01*
G01*
G37*
G36*
G01*
X240550000Y-93662500D02*
X240550000Y-94137500D01*
G75*
G02*
X240312500Y-94375000I-237500J0D01*
G01*
X239737500Y-94375000D01*
G75*
G02*
X239500000Y-94137500I0J237500D01*
G01*
X239500000Y-93662500D01*
G75*
G02*
X239737500Y-93425000I237500J0D01*
G01*
X240312500Y-93425000D01*
G75*
G02*
X240550000Y-93662500I0J-237500D01*
G01*
G37*
%TD*%
%TO.C,D51*%
G36*
G01*
X251800000Y-112762500D02*
X251800000Y-113237500D01*
G75*
G02*
X251562500Y-113475000I-237500J0D01*
G01*
X250987500Y-113475000D01*
G75*
G02*
X250750000Y-113237500I0J237500D01*
G01*
X250750000Y-112762500D01*
G75*
G02*
X250987500Y-112525000I237500J0D01*
G01*
X251562500Y-112525000D01*
G75*
G02*
X251800000Y-112762500I0J-237500D01*
G01*
G37*
G36*
G01*
X250050000Y-112762500D02*
X250050000Y-113237500D01*
G75*
G02*
X249812500Y-113475000I-237500J0D01*
G01*
X249237500Y-113475000D01*
G75*
G02*
X249000000Y-113237500I0J237500D01*
G01*
X249000000Y-112762500D01*
G75*
G02*
X249237500Y-112525000I237500J0D01*
G01*
X249812500Y-112525000D01*
G75*
G02*
X250050000Y-112762500I0J-237500D01*
G01*
G37*
%TD*%
%TO.C,D52*%
G36*
G01*
X252000000Y-132237500D02*
X252000000Y-131762500D01*
G75*
G02*
X252237500Y-131525000I237500J0D01*
G01*
X252812500Y-131525000D01*
G75*
G02*
X253050000Y-131762500I0J-237500D01*
G01*
X253050000Y-132237500D01*
G75*
G02*
X252812500Y-132475000I-237500J0D01*
G01*
X252237500Y-132475000D01*
G75*
G02*
X252000000Y-132237500I0J237500D01*
G01*
G37*
G36*
G01*
X253750000Y-132237500D02*
X253750000Y-131762500D01*
G75*
G02*
X253987500Y-131525000I237500J0D01*
G01*
X254562500Y-131525000D01*
G75*
G02*
X254800000Y-131762500I0J-237500D01*
G01*
X254800000Y-132237500D01*
G75*
G02*
X254562500Y-132475000I-237500J0D01*
G01*
X253987500Y-132475000D01*
G75*
G02*
X253750000Y-132237500I0J237500D01*
G01*
G37*
%TD*%
%TO.C,D53*%
G36*
G01*
X261370000Y-138762500D02*
X261370000Y-139237500D01*
G75*
G02*
X261132500Y-139475000I-237500J0D01*
G01*
X260557500Y-139475000D01*
G75*
G02*
X260320000Y-139237500I0J237500D01*
G01*
X260320000Y-138762500D01*
G75*
G02*
X260557500Y-138525000I237500J0D01*
G01*
X261132500Y-138525000D01*
G75*
G02*
X261370000Y-138762500I0J-237500D01*
G01*
G37*
G36*
G01*
X259620000Y-138762500D02*
X259620000Y-139237500D01*
G75*
G02*
X259382500Y-139475000I-237500J0D01*
G01*
X258807500Y-139475000D01*
G75*
G02*
X258570000Y-139237500I0J237500D01*
G01*
X258570000Y-138762500D01*
G75*
G02*
X258807500Y-138525000I237500J0D01*
G01*
X259382500Y-138525000D01*
G75*
G02*
X259620000Y-138762500I0J-237500D01*
G01*
G37*
%TD*%
%TO.C,D54*%
G36*
G01*
X259550000Y-74662500D02*
X259550000Y-75137500D01*
G75*
G02*
X259312500Y-75375000I-237500J0D01*
G01*
X258737500Y-75375000D01*
G75*
G02*
X258500000Y-75137500I0J237500D01*
G01*
X258500000Y-74662500D01*
G75*
G02*
X258737500Y-74425000I237500J0D01*
G01*
X259312500Y-74425000D01*
G75*
G02*
X259550000Y-74662500I0J-237500D01*
G01*
G37*
G36*
G01*
X261300000Y-74662500D02*
X261300000Y-75137500D01*
G75*
G02*
X261062500Y-75375000I-237500J0D01*
G01*
X260487500Y-75375000D01*
G75*
G02*
X260250000Y-75137500I0J237500D01*
G01*
X260250000Y-74662500D01*
G75*
G02*
X260487500Y-74425000I237500J0D01*
G01*
X261062500Y-74425000D01*
G75*
G02*
X261300000Y-74662500I0J-237500D01*
G01*
G37*
%TD*%
%TO.C,D55*%
G36*
G01*
X259650000Y-93662500D02*
X259650000Y-94137500D01*
G75*
G02*
X259412500Y-94375000I-237500J0D01*
G01*
X258837500Y-94375000D01*
G75*
G02*
X258600000Y-94137500I0J237500D01*
G01*
X258600000Y-93662500D01*
G75*
G02*
X258837500Y-93425000I237500J0D01*
G01*
X259412500Y-93425000D01*
G75*
G02*
X259650000Y-93662500I0J-237500D01*
G01*
G37*
G36*
G01*
X261400000Y-93662500D02*
X261400000Y-94137500D01*
G75*
G02*
X261162500Y-94375000I-237500J0D01*
G01*
X260587500Y-94375000D01*
G75*
G02*
X260350000Y-94137500I0J237500D01*
G01*
X260350000Y-93662500D01*
G75*
G02*
X260587500Y-93425000I237500J0D01*
G01*
X261162500Y-93425000D01*
G75*
G02*
X261400000Y-93662500I0J-237500D01*
G01*
G37*
%TD*%
%TO.C,D56*%
G36*
G01*
X269150000Y-112762500D02*
X269150000Y-113237500D01*
G75*
G02*
X268912500Y-113475000I-237500J0D01*
G01*
X268337500Y-113475000D01*
G75*
G02*
X268100000Y-113237500I0J237500D01*
G01*
X268100000Y-112762500D01*
G75*
G02*
X268337500Y-112525000I237500J0D01*
G01*
X268912500Y-112525000D01*
G75*
G02*
X269150000Y-112762500I0J-237500D01*
G01*
G37*
G36*
G01*
X270900000Y-112762500D02*
X270900000Y-113237500D01*
G75*
G02*
X270662500Y-113475000I-237500J0D01*
G01*
X270087500Y-113475000D01*
G75*
G02*
X269850000Y-113237500I0J237500D01*
G01*
X269850000Y-112762500D01*
G75*
G02*
X270087500Y-112525000I237500J0D01*
G01*
X270662500Y-112525000D01*
G75*
G02*
X270900000Y-112762500I0J-237500D01*
G01*
G37*
%TD*%
%TO.C,D57*%
G36*
G01*
X272750000Y-132237500D02*
X272750000Y-131762500D01*
G75*
G02*
X272987500Y-131525000I237500J0D01*
G01*
X273562500Y-131525000D01*
G75*
G02*
X273800000Y-131762500I0J-237500D01*
G01*
X273800000Y-132237500D01*
G75*
G02*
X273562500Y-132475000I-237500J0D01*
G01*
X272987500Y-132475000D01*
G75*
G02*
X272750000Y-132237500I0J237500D01*
G01*
G37*
G36*
G01*
X271000000Y-132237500D02*
X271000000Y-131762500D01*
G75*
G02*
X271237500Y-131525000I237500J0D01*
G01*
X271812500Y-131525000D01*
G75*
G02*
X272050000Y-131762500I0J-237500D01*
G01*
X272050000Y-132237500D01*
G75*
G02*
X271812500Y-132475000I-237500J0D01*
G01*
X271237500Y-132475000D01*
G75*
G02*
X271000000Y-132237500I0J237500D01*
G01*
G37*
%TD*%
%TO.C,D58*%
G36*
G01*
X278620000Y-138762500D02*
X278620000Y-139237500D01*
G75*
G02*
X278382500Y-139475000I-237500J0D01*
G01*
X277807500Y-139475000D01*
G75*
G02*
X277570000Y-139237500I0J237500D01*
G01*
X277570000Y-138762500D01*
G75*
G02*
X277807500Y-138525000I237500J0D01*
G01*
X278382500Y-138525000D01*
G75*
G02*
X278620000Y-138762500I0J-237500D01*
G01*
G37*
G36*
G01*
X280370000Y-138762500D02*
X280370000Y-139237500D01*
G75*
G02*
X280132500Y-139475000I-237500J0D01*
G01*
X279557500Y-139475000D01*
G75*
G02*
X279320000Y-139237500I0J237500D01*
G01*
X279320000Y-138762500D01*
G75*
G02*
X279557500Y-138525000I237500J0D01*
G01*
X280132500Y-138525000D01*
G75*
G02*
X280370000Y-138762500I0J-237500D01*
G01*
G37*
%TD*%
%TO.C,D59*%
G36*
G01*
X278650000Y-74662500D02*
X278650000Y-75137500D01*
G75*
G02*
X278412500Y-75375000I-237500J0D01*
G01*
X277837500Y-75375000D01*
G75*
G02*
X277600000Y-75137500I0J237500D01*
G01*
X277600000Y-74662500D01*
G75*
G02*
X277837500Y-74425000I237500J0D01*
G01*
X278412500Y-74425000D01*
G75*
G02*
X278650000Y-74662500I0J-237500D01*
G01*
G37*
G36*
G01*
X280400000Y-74662500D02*
X280400000Y-75137500D01*
G75*
G02*
X280162500Y-75375000I-237500J0D01*
G01*
X279587500Y-75375000D01*
G75*
G02*
X279350000Y-75137500I0J237500D01*
G01*
X279350000Y-74662500D01*
G75*
G02*
X279587500Y-74425000I237500J0D01*
G01*
X280162500Y-74425000D01*
G75*
G02*
X280400000Y-74662500I0J-237500D01*
G01*
G37*
%TD*%
%TO.C,D60*%
G36*
G01*
X280400000Y-93662500D02*
X280400000Y-94137500D01*
G75*
G02*
X280162500Y-94375000I-237500J0D01*
G01*
X279587500Y-94375000D01*
G75*
G02*
X279350000Y-94137500I0J237500D01*
G01*
X279350000Y-93662500D01*
G75*
G02*
X279587500Y-93425000I237500J0D01*
G01*
X280162500Y-93425000D01*
G75*
G02*
X280400000Y-93662500I0J-237500D01*
G01*
G37*
G36*
G01*
X278650000Y-93662500D02*
X278650000Y-94137500D01*
G75*
G02*
X278412500Y-94375000I-237500J0D01*
G01*
X277837500Y-94375000D01*
G75*
G02*
X277600000Y-94137500I0J237500D01*
G01*
X277600000Y-93662500D01*
G75*
G02*
X277837500Y-93425000I237500J0D01*
G01*
X278412500Y-93425000D01*
G75*
G02*
X278650000Y-93662500I0J-237500D01*
G01*
G37*
%TD*%
%TO.C,D61*%
G36*
G01*
X289900000Y-112762500D02*
X289900000Y-113237500D01*
G75*
G02*
X289662500Y-113475000I-237500J0D01*
G01*
X289087500Y-113475000D01*
G75*
G02*
X288850000Y-113237500I0J237500D01*
G01*
X288850000Y-112762500D01*
G75*
G02*
X289087500Y-112525000I237500J0D01*
G01*
X289662500Y-112525000D01*
G75*
G02*
X289900000Y-112762500I0J-237500D01*
G01*
G37*
G36*
G01*
X288150000Y-112762500D02*
X288150000Y-113237500D01*
G75*
G02*
X287912500Y-113475000I-237500J0D01*
G01*
X287337500Y-113475000D01*
G75*
G02*
X287100000Y-113237500I0J237500D01*
G01*
X287100000Y-112762500D01*
G75*
G02*
X287337500Y-112525000I237500J0D01*
G01*
X287912500Y-112525000D01*
G75*
G02*
X288150000Y-112762500I0J-237500D01*
G01*
G37*
%TD*%
%TO.C,D62*%
G36*
G01*
X290100000Y-132237500D02*
X290100000Y-131762500D01*
G75*
G02*
X290337500Y-131525000I237500J0D01*
G01*
X290912500Y-131525000D01*
G75*
G02*
X291150000Y-131762500I0J-237500D01*
G01*
X291150000Y-132237500D01*
G75*
G02*
X290912500Y-132475000I-237500J0D01*
G01*
X290337500Y-132475000D01*
G75*
G02*
X290100000Y-132237500I0J237500D01*
G01*
G37*
G36*
G01*
X291850000Y-132237500D02*
X291850000Y-131762500D01*
G75*
G02*
X292087500Y-131525000I237500J0D01*
G01*
X292662500Y-131525000D01*
G75*
G02*
X292900000Y-131762500I0J-237500D01*
G01*
X292900000Y-132237500D01*
G75*
G02*
X292662500Y-132475000I-237500J0D01*
G01*
X292087500Y-132475000D01*
G75*
G02*
X291850000Y-132237500I0J237500D01*
G01*
G37*
%TD*%
%TO.C,D63*%
G36*
G01*
X299470000Y-138762500D02*
X299470000Y-139237500D01*
G75*
G02*
X299232500Y-139475000I-237500J0D01*
G01*
X298657500Y-139475000D01*
G75*
G02*
X298420000Y-139237500I0J237500D01*
G01*
X298420000Y-138762500D01*
G75*
G02*
X298657500Y-138525000I237500J0D01*
G01*
X299232500Y-138525000D01*
G75*
G02*
X299470000Y-138762500I0J-237500D01*
G01*
G37*
G36*
G01*
X297720000Y-138762500D02*
X297720000Y-139237500D01*
G75*
G02*
X297482500Y-139475000I-237500J0D01*
G01*
X296907500Y-139475000D01*
G75*
G02*
X296670000Y-139237500I0J237500D01*
G01*
X296670000Y-138762500D01*
G75*
G02*
X296907500Y-138525000I237500J0D01*
G01*
X297482500Y-138525000D01*
G75*
G02*
X297720000Y-138762500I0J-237500D01*
G01*
G37*
%TD*%
%TO.C,D64*%
G36*
G01*
X295400000Y-74662500D02*
X295400000Y-75137500D01*
G75*
G02*
X295162500Y-75375000I-237500J0D01*
G01*
X294587500Y-75375000D01*
G75*
G02*
X294350000Y-75137500I0J237500D01*
G01*
X294350000Y-74662500D01*
G75*
G02*
X294587500Y-74425000I237500J0D01*
G01*
X295162500Y-74425000D01*
G75*
G02*
X295400000Y-74662500I0J-237500D01*
G01*
G37*
G36*
G01*
X293650000Y-74662500D02*
X293650000Y-75137500D01*
G75*
G02*
X293412500Y-75375000I-237500J0D01*
G01*
X292837500Y-75375000D01*
G75*
G02*
X292600000Y-75137500I0J237500D01*
G01*
X292600000Y-74662500D01*
G75*
G02*
X292837500Y-74425000I237500J0D01*
G01*
X293412500Y-74425000D01*
G75*
G02*
X293650000Y-74662500I0J-237500D01*
G01*
G37*
%TD*%
%TO.C,D65*%
G36*
G01*
X299500000Y-93662500D02*
X299500000Y-94137500D01*
G75*
G02*
X299262500Y-94375000I-237500J0D01*
G01*
X298687500Y-94375000D01*
G75*
G02*
X298450000Y-94137500I0J237500D01*
G01*
X298450000Y-93662500D01*
G75*
G02*
X298687500Y-93425000I237500J0D01*
G01*
X299262500Y-93425000D01*
G75*
G02*
X299500000Y-93662500I0J-237500D01*
G01*
G37*
G36*
G01*
X297750000Y-93662500D02*
X297750000Y-94137500D01*
G75*
G02*
X297512500Y-94375000I-237500J0D01*
G01*
X296937500Y-94375000D01*
G75*
G02*
X296700000Y-94137500I0J237500D01*
G01*
X296700000Y-93662500D01*
G75*
G02*
X296937500Y-93425000I237500J0D01*
G01*
X297512500Y-93425000D01*
G75*
G02*
X297750000Y-93662500I0J-237500D01*
G01*
G37*
%TD*%
%TO.C,D66*%
G36*
G01*
X307250000Y-112762500D02*
X307250000Y-113237500D01*
G75*
G02*
X307012500Y-113475000I-237500J0D01*
G01*
X306437500Y-113475000D01*
G75*
G02*
X306200000Y-113237500I0J237500D01*
G01*
X306200000Y-112762500D01*
G75*
G02*
X306437500Y-112525000I237500J0D01*
G01*
X307012500Y-112525000D01*
G75*
G02*
X307250000Y-112762500I0J-237500D01*
G01*
G37*
G36*
G01*
X309000000Y-112762500D02*
X309000000Y-113237500D01*
G75*
G02*
X308762500Y-113475000I-237500J0D01*
G01*
X308187500Y-113475000D01*
G75*
G02*
X307950000Y-113237500I0J237500D01*
G01*
X307950000Y-112762500D01*
G75*
G02*
X308187500Y-112525000I237500J0D01*
G01*
X308762500Y-112525000D01*
G75*
G02*
X309000000Y-112762500I0J-237500D01*
G01*
G37*
%TD*%
%TO.C,D67*%
G36*
G01*
X310950000Y-132237500D02*
X310950000Y-131762500D01*
G75*
G02*
X311187500Y-131525000I237500J0D01*
G01*
X311762500Y-131525000D01*
G75*
G02*
X312000000Y-131762500I0J-237500D01*
G01*
X312000000Y-132237500D01*
G75*
G02*
X311762500Y-132475000I-237500J0D01*
G01*
X311187500Y-132475000D01*
G75*
G02*
X310950000Y-132237500I0J237500D01*
G01*
G37*
G36*
G01*
X309200000Y-132237500D02*
X309200000Y-131762500D01*
G75*
G02*
X309437500Y-131525000I237500J0D01*
G01*
X310012500Y-131525000D01*
G75*
G02*
X310250000Y-131762500I0J-237500D01*
G01*
X310250000Y-132237500D01*
G75*
G02*
X310012500Y-132475000I-237500J0D01*
G01*
X309437500Y-132475000D01*
G75*
G02*
X309200000Y-132237500I0J237500D01*
G01*
G37*
%TD*%
%TO.C,D68*%
G36*
G01*
X356600000Y-74662500D02*
X356600000Y-75137500D01*
G75*
G02*
X356362500Y-75375000I-237500J0D01*
G01*
X355787500Y-75375000D01*
G75*
G02*
X355550000Y-75137500I0J237500D01*
G01*
X355550000Y-74662500D01*
G75*
G02*
X355787500Y-74425000I237500J0D01*
G01*
X356362500Y-74425000D01*
G75*
G02*
X356600000Y-74662500I0J-237500D01*
G01*
G37*
G36*
G01*
X354850000Y-74662500D02*
X354850000Y-75137500D01*
G75*
G02*
X354612500Y-75375000I-237500J0D01*
G01*
X354037500Y-75375000D01*
G75*
G02*
X353800000Y-75137500I0J237500D01*
G01*
X353800000Y-74662500D01*
G75*
G02*
X354037500Y-74425000I237500J0D01*
G01*
X354612500Y-74425000D01*
G75*
G02*
X354850000Y-74662500I0J-237500D01*
G01*
G37*
%TD*%
%TO.C,D69*%
G36*
G01*
X325150000Y-94137500D02*
X325150000Y-93662500D01*
G75*
G02*
X325387500Y-93425000I237500J0D01*
G01*
X325962500Y-93425000D01*
G75*
G02*
X326200000Y-93662500I0J-237500D01*
G01*
X326200000Y-94137500D01*
G75*
G02*
X325962500Y-94375000I-237500J0D01*
G01*
X325387500Y-94375000D01*
G75*
G02*
X325150000Y-94137500I0J237500D01*
G01*
G37*
G36*
G01*
X323400000Y-94137500D02*
X323400000Y-93662500D01*
G75*
G02*
X323637500Y-93425000I237500J0D01*
G01*
X324212500Y-93425000D01*
G75*
G02*
X324450000Y-93662500I0J-237500D01*
G01*
X324450000Y-94137500D01*
G75*
G02*
X324212500Y-94375000I-237500J0D01*
G01*
X323637500Y-94375000D01*
G75*
G02*
X323400000Y-94137500I0J237500D01*
G01*
G37*
%TD*%
%TO.C,D70*%
G36*
G01*
X323000000Y-110637500D02*
X323000000Y-110162500D01*
G75*
G02*
X323237500Y-109925000I237500J0D01*
G01*
X323812500Y-109925000D01*
G75*
G02*
X324050000Y-110162500I0J-237500D01*
G01*
X324050000Y-110637500D01*
G75*
G02*
X323812500Y-110875000I-237500J0D01*
G01*
X323237500Y-110875000D01*
G75*
G02*
X323000000Y-110637500I0J237500D01*
G01*
G37*
G36*
G01*
X324750000Y-110637500D02*
X324750000Y-110162500D01*
G75*
G02*
X324987500Y-109925000I237500J0D01*
G01*
X325562500Y-109925000D01*
G75*
G02*
X325800000Y-110162500I0J-237500D01*
G01*
X325800000Y-110637500D01*
G75*
G02*
X325562500Y-110875000I-237500J0D01*
G01*
X324987500Y-110875000D01*
G75*
G02*
X324750000Y-110637500I0J237500D01*
G01*
G37*
%TD*%
%TO.C,D71*%
G36*
G01*
X313910000Y-151327500D02*
X313910000Y-150852500D01*
G75*
G02*
X314147500Y-150615000I237500J0D01*
G01*
X314722500Y-150615000D01*
G75*
G02*
X314960000Y-150852500I0J-237500D01*
G01*
X314960000Y-151327500D01*
G75*
G02*
X314722500Y-151565000I-237500J0D01*
G01*
X314147500Y-151565000D01*
G75*
G02*
X313910000Y-151327500I0J237500D01*
G01*
G37*
G36*
G01*
X315660000Y-151327500D02*
X315660000Y-150852500D01*
G75*
G02*
X315897500Y-150615000I237500J0D01*
G01*
X316472500Y-150615000D01*
G75*
G02*
X316710000Y-150852500I0J-237500D01*
G01*
X316710000Y-151327500D01*
G75*
G02*
X316472500Y-151565000I-237500J0D01*
G01*
X315897500Y-151565000D01*
G75*
G02*
X315660000Y-151327500I0J237500D01*
G01*
G37*
%TD*%
%TO.C,D72*%
G36*
G01*
X356600000Y-93662500D02*
X356600000Y-94137500D01*
G75*
G02*
X356362500Y-94375000I-237500J0D01*
G01*
X355787500Y-94375000D01*
G75*
G02*
X355550000Y-94137500I0J237500D01*
G01*
X355550000Y-93662500D01*
G75*
G02*
X355787500Y-93425000I237500J0D01*
G01*
X356362500Y-93425000D01*
G75*
G02*
X356600000Y-93662500I0J-237500D01*
G01*
G37*
G36*
G01*
X354850000Y-93662500D02*
X354850000Y-94137500D01*
G75*
G02*
X354612500Y-94375000I-237500J0D01*
G01*
X354037500Y-94375000D01*
G75*
G02*
X353800000Y-94137500I0J237500D01*
G01*
X353800000Y-93662500D01*
G75*
G02*
X354037500Y-93425000I237500J0D01*
G01*
X354612500Y-93425000D01*
G75*
G02*
X354850000Y-93662500I0J-237500D01*
G01*
G37*
%TD*%
%TO.C,D73*%
G36*
G01*
X356600000Y-131762500D02*
X356600000Y-132237500D01*
G75*
G02*
X356362500Y-132475000I-237500J0D01*
G01*
X355787500Y-132475000D01*
G75*
G02*
X355550000Y-132237500I0J237500D01*
G01*
X355550000Y-131762500D01*
G75*
G02*
X355787500Y-131525000I237500J0D01*
G01*
X356362500Y-131525000D01*
G75*
G02*
X356600000Y-131762500I0J-237500D01*
G01*
G37*
G36*
G01*
X354850000Y-131762500D02*
X354850000Y-132237500D01*
G75*
G02*
X354612500Y-132475000I-237500J0D01*
G01*
X354037500Y-132475000D01*
G75*
G02*
X353800000Y-132237500I0J237500D01*
G01*
X353800000Y-131762500D01*
G75*
G02*
X354037500Y-131525000I237500J0D01*
G01*
X354612500Y-131525000D01*
G75*
G02*
X354850000Y-131762500I0J-237500D01*
G01*
G37*
%TD*%
%TO.C,D74*%
G36*
G01*
X334680000Y-158247500D02*
X334680000Y-157772500D01*
G75*
G02*
X334917500Y-157535000I237500J0D01*
G01*
X335492500Y-157535000D01*
G75*
G02*
X335730000Y-157772500I0J-237500D01*
G01*
X335730000Y-158247500D01*
G75*
G02*
X335492500Y-158485000I-237500J0D01*
G01*
X334917500Y-158485000D01*
G75*
G02*
X334680000Y-158247500I0J237500D01*
G01*
G37*
G36*
G01*
X332930000Y-158247500D02*
X332930000Y-157772500D01*
G75*
G02*
X333167500Y-157535000I237500J0D01*
G01*
X333742500Y-157535000D01*
G75*
G02*
X333980000Y-157772500I0J-237500D01*
G01*
X333980000Y-158247500D01*
G75*
G02*
X333742500Y-158485000I-237500J0D01*
G01*
X333167500Y-158485000D01*
G75*
G02*
X332930000Y-158247500I0J237500D01*
G01*
G37*
%TD*%
%TO.C,D75*%
G36*
G01*
X315680000Y-158247500D02*
X315680000Y-157772500D01*
G75*
G02*
X315917500Y-157535000I237500J0D01*
G01*
X316492500Y-157535000D01*
G75*
G02*
X316730000Y-157772500I0J-237500D01*
G01*
X316730000Y-158247500D01*
G75*
G02*
X316492500Y-158485000I-237500J0D01*
G01*
X315917500Y-158485000D01*
G75*
G02*
X315680000Y-158247500I0J237500D01*
G01*
G37*
G36*
G01*
X313930000Y-158247500D02*
X313930000Y-157772500D01*
G75*
G02*
X314167500Y-157535000I237500J0D01*
G01*
X314742500Y-157535000D01*
G75*
G02*
X314980000Y-157772500I0J-237500D01*
G01*
X314980000Y-158247500D01*
G75*
G02*
X314742500Y-158485000I-237500J0D01*
G01*
X314167500Y-158485000D01*
G75*
G02*
X313930000Y-158247500I0J237500D01*
G01*
G37*
%TD*%
%TO.C,D76*%
G36*
G01*
X354850000Y-112762500D02*
X354850000Y-113237500D01*
G75*
G02*
X354612500Y-113475000I-237500J0D01*
G01*
X354037500Y-113475000D01*
G75*
G02*
X353800000Y-113237500I0J237500D01*
G01*
X353800000Y-112762500D01*
G75*
G02*
X354037500Y-112525000I237500J0D01*
G01*
X354612500Y-112525000D01*
G75*
G02*
X354850000Y-112762500I0J-237500D01*
G01*
G37*
G36*
G01*
X356600000Y-112762500D02*
X356600000Y-113237500D01*
G75*
G02*
X356362500Y-113475000I-237500J0D01*
G01*
X355787500Y-113475000D01*
G75*
G02*
X355550000Y-113237500I0J237500D01*
G01*
X355550000Y-112762500D01*
G75*
G02*
X355787500Y-112525000I237500J0D01*
G01*
X356362500Y-112525000D01*
G75*
G02*
X356600000Y-112762500I0J-237500D01*
G01*
G37*
%TD*%
%TO.C,D77*%
G36*
G01*
X354850000Y-138762500D02*
X354850000Y-139237500D01*
G75*
G02*
X354612500Y-139475000I-237500J0D01*
G01*
X354037500Y-139475000D01*
G75*
G02*
X353800000Y-139237500I0J237500D01*
G01*
X353800000Y-138762500D01*
G75*
G02*
X354037500Y-138525000I237500J0D01*
G01*
X354612500Y-138525000D01*
G75*
G02*
X354850000Y-138762500I0J-237500D01*
G01*
G37*
G36*
G01*
X356600000Y-138762500D02*
X356600000Y-139237500D01*
G75*
G02*
X356362500Y-139475000I-237500J0D01*
G01*
X355787500Y-139475000D01*
G75*
G02*
X355550000Y-139237500I0J237500D01*
G01*
X355550000Y-138762500D01*
G75*
G02*
X355787500Y-138525000I237500J0D01*
G01*
X356362500Y-138525000D01*
G75*
G02*
X356600000Y-138762500I0J-237500D01*
G01*
G37*
%TD*%
%TO.C,D78*%
G36*
G01*
X352000000Y-158237500D02*
X352000000Y-157762500D01*
G75*
G02*
X352237500Y-157525000I237500J0D01*
G01*
X352812500Y-157525000D01*
G75*
G02*
X353050000Y-157762500I0J-237500D01*
G01*
X353050000Y-158237500D01*
G75*
G02*
X352812500Y-158475000I-237500J0D01*
G01*
X352237500Y-158475000D01*
G75*
G02*
X352000000Y-158237500I0J237500D01*
G01*
G37*
G36*
G01*
X353750000Y-158237500D02*
X353750000Y-157762500D01*
G75*
G02*
X353987500Y-157525000I237500J0D01*
G01*
X354562500Y-157525000D01*
G75*
G02*
X354800000Y-157762500I0J-237500D01*
G01*
X354800000Y-158237500D01*
G75*
G02*
X354562500Y-158475000I-237500J0D01*
G01*
X353987500Y-158475000D01*
G75*
G02*
X353750000Y-158237500I0J237500D01*
G01*
G37*
%TD*%
%TO.C,D79*%
G36*
G01*
X299430000Y-157772500D02*
X299430000Y-158247500D01*
G75*
G02*
X299192500Y-158485000I-237500J0D01*
G01*
X298617500Y-158485000D01*
G75*
G02*
X298380000Y-158247500I0J237500D01*
G01*
X298380000Y-157772500D01*
G75*
G02*
X298617500Y-157535000I237500J0D01*
G01*
X299192500Y-157535000D01*
G75*
G02*
X299430000Y-157772500I0J-237500D01*
G01*
G37*
G36*
G01*
X297680000Y-157772500D02*
X297680000Y-158247500D01*
G75*
G02*
X297442500Y-158485000I-237500J0D01*
G01*
X296867500Y-158485000D01*
G75*
G02*
X296630000Y-158247500I0J237500D01*
G01*
X296630000Y-157772500D01*
G75*
G02*
X296867500Y-157535000I237500J0D01*
G01*
X297442500Y-157535000D01*
G75*
G02*
X297680000Y-157772500I0J-237500D01*
G01*
G37*
%TD*%
%TO.C,DEL1*%
X345410000Y-68620000D03*
X355570000Y-68620000D03*
D11*
X350490000Y-68620000D03*
D10*
X354300000Y-71160000D03*
X347950000Y-73700000D03*
%TD*%
%TO.C,DOWN1*%
X309855000Y-168960000D03*
X316205000Y-166420000D03*
D11*
X312395000Y-163880000D03*
D12*
X317475000Y-163880000D03*
X307315000Y-163880000D03*
%TD*%
D10*
%TO.C,E1*%
X128875000Y-111800000D03*
X135225000Y-109260000D03*
D11*
X131415000Y-106720000D03*
D12*
X136495000Y-106720000D03*
X126335000Y-106720000D03*
%TD*%
D10*
%TO.C,EIGHT1*%
X214600000Y-92750000D03*
X220950000Y-90210000D03*
D11*
X217140000Y-87670000D03*
D12*
X222220000Y-87670000D03*
X212060000Y-87670000D03*
%TD*%
%TO.C,END1*%
X345410000Y-125770000D03*
X355570000Y-125770000D03*
D11*
X350490000Y-125770000D03*
D10*
X354300000Y-128310000D03*
X347950000Y-130850000D03*
%TD*%
%TO.C,ENTER1*%
X331600000Y-111175000D03*
X325250000Y-113715000D03*
D11*
X329060000Y-116255000D03*
D12*
X323980000Y-116255000D03*
X334140000Y-116255000D03*
D11*
X337300000Y-104355000D03*
X337300000Y-128155000D03*
D13*
X322060000Y-128155000D03*
X322060000Y-104355000D03*
%TD*%
D12*
%TO.C,ESC1*%
X59660000Y-68620000D03*
X69820000Y-68620000D03*
D11*
X64740000Y-68620000D03*
D10*
X68550000Y-71160000D03*
X62200000Y-73700000D03*
%TD*%
%TO.C,F1*%
X81250000Y-73700000D03*
X87600000Y-71160000D03*
D11*
X83790000Y-68620000D03*
D12*
X88870000Y-68620000D03*
X78710000Y-68620000D03*
%TD*%
D10*
%TO.C,F3*%
X119350000Y-73700000D03*
X125700000Y-71160000D03*
D11*
X121890000Y-68620000D03*
D12*
X126970000Y-68620000D03*
X116810000Y-68620000D03*
%TD*%
%TO.C,F4*%
X135860000Y-68620000D03*
X146020000Y-68620000D03*
D11*
X140940000Y-68620000D03*
D10*
X144750000Y-71160000D03*
X138400000Y-73700000D03*
%TD*%
D12*
%TO.C,F5*%
X154910000Y-68620000D03*
X165070000Y-68620000D03*
D11*
X159990000Y-68620000D03*
D10*
X163800000Y-71160000D03*
X157450000Y-73700000D03*
%TD*%
D12*
%TO.C,F6*%
X173960000Y-68620000D03*
X184120000Y-68620000D03*
D11*
X179040000Y-68620000D03*
D10*
X182850000Y-71160000D03*
X176500000Y-73700000D03*
%TD*%
%TO.C,F7*%
X195550000Y-73700000D03*
X201900000Y-71160000D03*
D11*
X198090000Y-68620000D03*
D12*
X203170000Y-68620000D03*
X193010000Y-68620000D03*
%TD*%
%TO.C,F8*%
X212060000Y-68620000D03*
X222220000Y-68620000D03*
D11*
X217140000Y-68620000D03*
D10*
X220950000Y-71160000D03*
X214600000Y-73700000D03*
%TD*%
%TO.C,F9*%
X233650000Y-73700000D03*
X240000000Y-71160000D03*
D11*
X236190000Y-68620000D03*
D12*
X241270000Y-68620000D03*
X231110000Y-68620000D03*
%TD*%
%TO.C,F10*%
X250160000Y-68620000D03*
X260320000Y-68620000D03*
D11*
X255240000Y-68620000D03*
D10*
X259050000Y-71160000D03*
X252700000Y-73700000D03*
%TD*%
D12*
%TO.C,F11*%
X269210000Y-68620000D03*
X279370000Y-68620000D03*
D11*
X274290000Y-68620000D03*
D10*
X278100000Y-71160000D03*
X271750000Y-73700000D03*
%TD*%
%TO.C,F12*%
X290800000Y-73700000D03*
X297150000Y-71160000D03*
D11*
X293340000Y-68620000D03*
D12*
X298420000Y-68620000D03*
X288260000Y-68620000D03*
%TD*%
%TO.C,F13*%
X150160000Y-125770000D03*
X160320000Y-125770000D03*
D11*
X155240000Y-125770000D03*
D10*
X159050000Y-128310000D03*
X152700000Y-130850000D03*
%TD*%
D12*
%TO.C,FIVE1*%
X154910000Y-87670000D03*
X165070000Y-87670000D03*
D11*
X159990000Y-87670000D03*
D10*
X163800000Y-90210000D03*
X157450000Y-92750000D03*
%TD*%
%TO.C,FOUR1*%
X138400000Y-92750000D03*
X144750000Y-90210000D03*
D11*
X140940000Y-87670000D03*
D12*
X146020000Y-87670000D03*
X135860000Y-87670000D03*
%TD*%
%TO.C,G1*%
X169210000Y-125770000D03*
X179370000Y-125770000D03*
D11*
X174290000Y-125770000D03*
D10*
X178100000Y-128310000D03*
X171750000Y-130850000D03*
%TD*%
%TO.C,GREATER1*%
X100295000Y-149900000D03*
X106645000Y-147360000D03*
D11*
X102835000Y-144820000D03*
D12*
X107915000Y-144820000D03*
X97755000Y-144820000D03*
%TD*%
D10*
%TO.C,H1*%
X190800000Y-130850000D03*
X197150000Y-128310000D03*
D11*
X193340000Y-125770000D03*
D12*
X198420000Y-125770000D03*
X188260000Y-125770000D03*
%TD*%
%TO.C,HASH1*%
X302560000Y-125770000D03*
X312720000Y-125770000D03*
D11*
X307640000Y-125770000D03*
D10*
X311450000Y-128310000D03*
X305100000Y-130850000D03*
%TD*%
D12*
%TO.C,I1*%
X221585000Y-106720000D03*
X231745000Y-106720000D03*
D11*
X226665000Y-106720000D03*
D10*
X230475000Y-109260000D03*
X224125000Y-111800000D03*
%TD*%
%TO.C,J2*%
X209850000Y-130850000D03*
X216200000Y-128310000D03*
D11*
X212390000Y-125770000D03*
D12*
X217470000Y-125770000D03*
X207310000Y-125770000D03*
%TD*%
D15*
%TO.C,JP1*%
X333100000Y-75500000D03*
X333100000Y-74200000D03*
X333100000Y-72900000D03*
%TD*%
D12*
%TO.C,K1*%
X226360000Y-125770000D03*
X236520000Y-125770000D03*
D11*
X231440000Y-125770000D03*
D10*
X235250000Y-128310000D03*
X228900000Y-130850000D03*
%TD*%
D12*
%TO.C,L1*%
X245410000Y-125770000D03*
X255570000Y-125770000D03*
D11*
X250490000Y-125770000D03*
D10*
X254300000Y-128310000D03*
X247950000Y-130850000D03*
%TD*%
%TO.C,LEFT1*%
X290800000Y-168960000D03*
X297150000Y-166420000D03*
D11*
X293340000Y-163880000D03*
D12*
X298420000Y-163880000D03*
X288260000Y-163880000D03*
%TD*%
%TO.C,LINE1*%
X288255000Y-144820000D03*
X298415000Y-144820000D03*
D11*
X293335000Y-144820000D03*
D10*
X297145000Y-147360000D03*
X290795000Y-149900000D03*
%TD*%
%TO.C,M1*%
X233645000Y-149900000D03*
X239995000Y-147360000D03*
D11*
X236185000Y-144820000D03*
D12*
X241265000Y-144820000D03*
X231105000Y-144820000D03*
%TD*%
%TO.C,N1*%
X212055000Y-144820000D03*
X222215000Y-144820000D03*
D11*
X217135000Y-144820000D03*
D10*
X220945000Y-147360000D03*
X214595000Y-149900000D03*
%TD*%
D12*
%TO.C,NINE1*%
X231110000Y-87670000D03*
X241270000Y-87670000D03*
D11*
X236190000Y-87670000D03*
D10*
X240000000Y-90210000D03*
X233650000Y-92750000D03*
%TD*%
D12*
%TO.C,O1*%
X240635000Y-106720000D03*
X250795000Y-106720000D03*
D11*
X245715000Y-106720000D03*
D10*
X249525000Y-109260000D03*
X243175000Y-111800000D03*
%TD*%
D12*
%TO.C,ONE1*%
X78710000Y-87670000D03*
X88870000Y-87670000D03*
D11*
X83790000Y-87670000D03*
D10*
X87600000Y-90210000D03*
X81250000Y-92750000D03*
%TD*%
%TO.C,P1*%
X262225000Y-111800000D03*
X268575000Y-109260000D03*
D11*
X264765000Y-106720000D03*
D12*
X269845000Y-106720000D03*
X259685000Y-106720000D03*
%TD*%
%TO.C,PLUS1*%
X297785000Y-106720000D03*
X307945000Y-106720000D03*
D11*
X302865000Y-106720000D03*
D10*
X306675000Y-109260000D03*
X300325000Y-111800000D03*
%TD*%
%TO.C,POINT1*%
X271745000Y-149900000D03*
X278095000Y-147360000D03*
D11*
X274285000Y-144820000D03*
D12*
X279365000Y-144820000D03*
X269205000Y-144820000D03*
%TD*%
%TO.C,POS1*%
X345410000Y-106720000D03*
X355570000Y-106720000D03*
D11*
X350490000Y-106720000D03*
D10*
X354300000Y-109260000D03*
X347950000Y-111800000D03*
%TD*%
%TO.C,PRINT1*%
X347950000Y-92750000D03*
X354300000Y-90210000D03*
D11*
X350490000Y-87670000D03*
D12*
X355570000Y-87670000D03*
X345410000Y-87670000D03*
%TD*%
%TO.C,Q1*%
X88235000Y-106720000D03*
X98395000Y-106720000D03*
D11*
X93315000Y-106720000D03*
D10*
X97125000Y-109260000D03*
X90775000Y-111800000D03*
%TD*%
%TO.C,R1*%
G36*
G01*
X314800000Y-58762500D02*
X314800000Y-59237500D01*
G75*
G02*
X314562500Y-59475000I-237500J0D01*
G01*
X314062500Y-59475000D01*
G75*
G02*
X313825000Y-59237500I0J237500D01*
G01*
X313825000Y-58762500D01*
G75*
G02*
X314062500Y-58525000I237500J0D01*
G01*
X314562500Y-58525000D01*
G75*
G02*
X314800000Y-58762500I0J-237500D01*
G01*
G37*
G36*
G01*
X312975000Y-58762500D02*
X312975000Y-59237500D01*
G75*
G02*
X312737500Y-59475000I-237500J0D01*
G01*
X312237500Y-59475000D01*
G75*
G02*
X312000000Y-59237500I0J237500D01*
G01*
X312000000Y-58762500D01*
G75*
G02*
X312237500Y-58525000I237500J0D01*
G01*
X312737500Y-58525000D01*
G75*
G02*
X312975000Y-58762500I0J-237500D01*
G01*
G37*
%TD*%
%TO.C,R2*%
G36*
G01*
X313825000Y-57737500D02*
X313825000Y-57262500D01*
G75*
G02*
X314062500Y-57025000I237500J0D01*
G01*
X314562500Y-57025000D01*
G75*
G02*
X314800000Y-57262500I0J-237500D01*
G01*
X314800000Y-57737500D01*
G75*
G02*
X314562500Y-57975000I-237500J0D01*
G01*
X314062500Y-57975000D01*
G75*
G02*
X313825000Y-57737500I0J237500D01*
G01*
G37*
G36*
G01*
X312000000Y-57737500D02*
X312000000Y-57262500D01*
G75*
G02*
X312237500Y-57025000I237500J0D01*
G01*
X312737500Y-57025000D01*
G75*
G02*
X312975000Y-57262500I0J-237500D01*
G01*
X312975000Y-57737500D01*
G75*
G02*
X312737500Y-57975000I-237500J0D01*
G01*
X312237500Y-57975000D01*
G75*
G02*
X312000000Y-57737500I0J237500D01*
G01*
G37*
%TD*%
%TO.C,R3*%
G36*
G01*
X337000000Y-66662500D02*
X337000000Y-67137500D01*
G75*
G02*
X336762500Y-67375000I-237500J0D01*
G01*
X336262500Y-67375000D01*
G75*
G02*
X336025000Y-67137500I0J237500D01*
G01*
X336025000Y-66662500D01*
G75*
G02*
X336262500Y-66425000I237500J0D01*
G01*
X336762500Y-66425000D01*
G75*
G02*
X337000000Y-66662500I0J-237500D01*
G01*
G37*
G36*
G01*
X335175000Y-66662500D02*
X335175000Y-67137500D01*
G75*
G02*
X334937500Y-67375000I-237500J0D01*
G01*
X334437500Y-67375000D01*
G75*
G02*
X334200000Y-67137500I0J237500D01*
G01*
X334200000Y-66662500D01*
G75*
G02*
X334437500Y-66425000I237500J0D01*
G01*
X334937500Y-66425000D01*
G75*
G02*
X335175000Y-66662500I0J-237500D01*
G01*
G37*
%TD*%
D12*
%TO.C,R4*%
X145385000Y-106720000D03*
X155545000Y-106720000D03*
D11*
X150465000Y-106720000D03*
D10*
X154275000Y-109260000D03*
X147925000Y-111800000D03*
%TD*%
D12*
%TO.C,RIGHT1*%
X326365000Y-163880000D03*
X336525000Y-163880000D03*
D11*
X331445000Y-163880000D03*
D10*
X335255000Y-166420000D03*
X328905000Y-168960000D03*
%TD*%
%TO.C,S1*%
X114600000Y-130850000D03*
X120950000Y-128310000D03*
D11*
X117140000Y-125770000D03*
D12*
X122220000Y-125770000D03*
X112060000Y-125770000D03*
%TD*%
%TO.C,SEVEN1*%
X193010000Y-87670000D03*
X203170000Y-87670000D03*
D11*
X198090000Y-87670000D03*
D10*
X201900000Y-90210000D03*
X195550000Y-92750000D03*
%TD*%
%TO.C,SIX1*%
X176500000Y-92750000D03*
X182850000Y-90210000D03*
D11*
X179040000Y-87670000D03*
D12*
X184120000Y-87670000D03*
X173960000Y-87670000D03*
%TD*%
D10*
%TO.C,SPACE1*%
X178910000Y-168950000D03*
X185260000Y-166410000D03*
D11*
X181450000Y-163870000D03*
D12*
X186530000Y-163870000D03*
X176370000Y-163870000D03*
D11*
X131450000Y-155630000D03*
X231450000Y-155630000D03*
D13*
X231450000Y-170870000D03*
X131450000Y-170870000D03*
%TD*%
D16*
%TO.C,SWD_CONN1*%
X288200000Y-58900000D03*
D17*
X290740000Y-58900000D03*
X293280000Y-58900000D03*
X295820000Y-58900000D03*
X298360000Y-58900000D03*
%TD*%
D12*
%TO.C,T1*%
X164435000Y-106720000D03*
X174595000Y-106720000D03*
D11*
X169515000Y-106720000D03*
D10*
X173325000Y-109260000D03*
X166975000Y-111800000D03*
%TD*%
D12*
%TO.C,TAB1*%
X64420000Y-106720000D03*
X74580000Y-106720000D03*
D11*
X69500000Y-106720000D03*
D10*
X73310000Y-109260000D03*
X66960000Y-111800000D03*
%TD*%
%TO.C,THREE1*%
X119350000Y-92750000D03*
X125700000Y-90210000D03*
D11*
X121890000Y-87670000D03*
D12*
X126970000Y-87670000D03*
X116810000Y-87670000D03*
%TD*%
D10*
%TO.C,TWO1*%
X100300000Y-92750000D03*
X106650000Y-90210000D03*
D11*
X102840000Y-87670000D03*
D12*
X107920000Y-87670000D03*
X97760000Y-87670000D03*
%TD*%
D18*
%TO.C,U1*%
X336050000Y-62450000D03*
D19*
X329750000Y-62450000D03*
X329750000Y-60150000D03*
X329750000Y-64750000D03*
%TD*%
D10*
%TO.C,U3*%
X205075000Y-111800000D03*
X211425000Y-109260000D03*
D11*
X207615000Y-106720000D03*
D12*
X212695000Y-106720000D03*
X202535000Y-106720000D03*
%TD*%
%TO.C,UP1*%
X307310000Y-144830000D03*
X317470000Y-144830000D03*
D11*
X312390000Y-144830000D03*
D10*
X316200000Y-147370000D03*
X309850000Y-149910000D03*
%TD*%
D16*
%TO.C,USART_1_CONN1*%
X268000000Y-58900000D03*
D17*
X270540000Y-58900000D03*
X273080000Y-58900000D03*
X275620000Y-58900000D03*
X278160000Y-58900000D03*
X280700000Y-58900000D03*
%TD*%
D10*
%TO.C,V1*%
X176495000Y-149900000D03*
X182845000Y-147360000D03*
D11*
X179035000Y-144820000D03*
D12*
X184115000Y-144820000D03*
X173955000Y-144820000D03*
%TD*%
D10*
%TO.C,W1*%
X109825000Y-111800000D03*
X116175000Y-109260000D03*
D11*
X112365000Y-106720000D03*
D12*
X117445000Y-106720000D03*
X107285000Y-106720000D03*
%TD*%
%TO.C,X1*%
X135855000Y-144820000D03*
X146015000Y-144820000D03*
D11*
X140935000Y-144820000D03*
D10*
X144745000Y-147360000D03*
X138395000Y-149900000D03*
%TD*%
%TO.C,Y1*%
X119345000Y-149900000D03*
X125695000Y-147360000D03*
D11*
X121885000Y-144820000D03*
D12*
X126965000Y-144820000D03*
X116805000Y-144820000D03*
%TD*%
D10*
%TO.C,Z1*%
X186025000Y-111800000D03*
X192375000Y-109260000D03*
D11*
X188565000Y-106720000D03*
D12*
X193645000Y-106720000D03*
X183485000Y-106720000D03*
%TD*%
D10*
%TO.C,ZERO1*%
X252700000Y-92750000D03*
X259050000Y-90210000D03*
D11*
X255240000Y-87670000D03*
D12*
X260320000Y-87670000D03*
X250160000Y-87670000D03*
%TD*%
D10*
%TO.C,\u00DF11111*%
X271750000Y-92750000D03*
X278100000Y-90210000D03*
D11*
X274290000Y-87670000D03*
D12*
X279370000Y-87670000D03*
X269210000Y-87670000D03*
%TD*%
D10*
%TO.C,\u00C411111*%
X286050000Y-130850000D03*
X292400000Y-128310000D03*
D11*
X288590000Y-125770000D03*
D12*
X293670000Y-125770000D03*
X283510000Y-125770000D03*
%TD*%
D10*
%TO.C,\u00D611111*%
X267000000Y-130850000D03*
X273350000Y-128310000D03*
D11*
X269540000Y-125770000D03*
D12*
X274620000Y-125770000D03*
X264460000Y-125770000D03*
%TD*%
D10*
%TO.C,\u00DC11111*%
X281275000Y-111800000D03*
X287625000Y-109260000D03*
D11*
X283815000Y-106720000D03*
D12*
X288895000Y-106720000D03*
X278735000Y-106720000D03*
%TD*%
D10*
%TO.C,STRG1*%
X64600000Y-168950000D03*
X70950000Y-166410000D03*
D11*
X67140000Y-163870000D03*
D12*
X72220000Y-163870000D03*
X62060000Y-163870000D03*
%TD*%
D20*
%TO.C,Q2*%
X298100000Y-76350000D03*
X302700000Y-76350000D03*
X300400000Y-76350000D03*
D21*
X300400000Y-82650000D03*
%TD*%
D18*
%TO.C,Q3*%
X311350000Y-113600000D03*
D19*
X317650000Y-113600000D03*
X317650000Y-115900000D03*
X317650000Y-111300000D03*
%TD*%
%TO.C,R5*%
G36*
G01*
X301100000Y-74062500D02*
X301100000Y-74537500D01*
G75*
G02*
X300862500Y-74775000I-237500J0D01*
G01*
X300362500Y-74775000D01*
G75*
G02*
X300125000Y-74537500I0J237500D01*
G01*
X300125000Y-74062500D01*
G75*
G02*
X300362500Y-73825000I237500J0D01*
G01*
X300862500Y-73825000D01*
G75*
G02*
X301100000Y-74062500I0J-237500D01*
G01*
G37*
G36*
G01*
X299275000Y-74062500D02*
X299275000Y-74537500D01*
G75*
G02*
X299037500Y-74775000I-237500J0D01*
G01*
X298537500Y-74775000D01*
G75*
G02*
X298300000Y-74537500I0J237500D01*
G01*
X298300000Y-74062500D01*
G75*
G02*
X298537500Y-73825000I237500J0D01*
G01*
X299037500Y-73825000D01*
G75*
G02*
X299275000Y-74062500I0J-237500D01*
G01*
G37*
%TD*%
%TO.C,R6*%
G36*
G01*
X319937500Y-111975000D02*
X319462500Y-111975000D01*
G75*
G02*
X319225000Y-111737500I0J237500D01*
G01*
X319225000Y-111237500D01*
G75*
G02*
X319462500Y-111000000I237500J0D01*
G01*
X319937500Y-111000000D01*
G75*
G02*
X320175000Y-111237500I0J-237500D01*
G01*
X320175000Y-111737500D01*
G75*
G02*
X319937500Y-111975000I-237500J0D01*
G01*
G37*
G36*
G01*
X319937500Y-113800000D02*
X319462500Y-113800000D01*
G75*
G02*
X319225000Y-113562500I0J237500D01*
G01*
X319225000Y-113062500D01*
G75*
G02*
X319462500Y-112825000I237500J0D01*
G01*
X319937500Y-112825000D01*
G75*
G02*
X320175000Y-113062500I0J-237500D01*
G01*
X320175000Y-113562500D01*
G75*
G02*
X319937500Y-113800000I-237500J0D01*
G01*
G37*
%TD*%
%TO.C,R7*%
G36*
G01*
X131625000Y-120137500D02*
X131625000Y-119662500D01*
G75*
G02*
X131862500Y-119425000I237500J0D01*
G01*
X132362500Y-119425000D01*
G75*
G02*
X132600000Y-119662500I0J-237500D01*
G01*
X132600000Y-120137500D01*
G75*
G02*
X132362500Y-120375000I-237500J0D01*
G01*
X131862500Y-120375000D01*
G75*
G02*
X131625000Y-120137500I0J237500D01*
G01*
G37*
G36*
G01*
X129800000Y-120137500D02*
X129800000Y-119662500D01*
G75*
G02*
X130037500Y-119425000I237500J0D01*
G01*
X130537500Y-119425000D01*
G75*
G02*
X130775000Y-119662500I0J-237500D01*
G01*
X130775000Y-120137500D01*
G75*
G02*
X130537500Y-120375000I-237500J0D01*
G01*
X130037500Y-120375000D01*
G75*
G02*
X129800000Y-120137500I0J237500D01*
G01*
G37*
%TD*%
%TO.C,R8*%
G36*
G01*
X207925000Y-120137500D02*
X207925000Y-119662500D01*
G75*
G02*
X208162500Y-119425000I237500J0D01*
G01*
X208662500Y-119425000D01*
G75*
G02*
X208900000Y-119662500I0J-237500D01*
G01*
X208900000Y-120137500D01*
G75*
G02*
X208662500Y-120375000I-237500J0D01*
G01*
X208162500Y-120375000D01*
G75*
G02*
X207925000Y-120137500I0J237500D01*
G01*
G37*
G36*
G01*
X206100000Y-120137500D02*
X206100000Y-119662500D01*
G75*
G02*
X206337500Y-119425000I237500J0D01*
G01*
X206837500Y-119425000D01*
G75*
G02*
X207075000Y-119662500I0J-237500D01*
G01*
X207075000Y-120137500D01*
G75*
G02*
X206837500Y-120375000I-237500J0D01*
G01*
X206337500Y-120375000D01*
G75*
G02*
X206100000Y-120137500I0J237500D01*
G01*
G37*
%TD*%
%TO.C,R9*%
G36*
G01*
X88825000Y-101137500D02*
X88825000Y-100662500D01*
G75*
G02*
X89062500Y-100425000I237500J0D01*
G01*
X89562500Y-100425000D01*
G75*
G02*
X89800000Y-100662500I0J-237500D01*
G01*
X89800000Y-101137500D01*
G75*
G02*
X89562500Y-101375000I-237500J0D01*
G01*
X89062500Y-101375000D01*
G75*
G02*
X88825000Y-101137500I0J237500D01*
G01*
G37*
G36*
G01*
X87000000Y-101137500D02*
X87000000Y-100662500D01*
G75*
G02*
X87237500Y-100425000I237500J0D01*
G01*
X87737500Y-100425000D01*
G75*
G02*
X87975000Y-100662500I0J-237500D01*
G01*
X87975000Y-101137500D01*
G75*
G02*
X87737500Y-101375000I-237500J0D01*
G01*
X87237500Y-101375000D01*
G75*
G02*
X87000000Y-101137500I0J237500D01*
G01*
G37*
%TD*%
%TO.C,R10*%
G36*
G01*
X65025000Y-101137500D02*
X65025000Y-100662500D01*
G75*
G02*
X65262500Y-100425000I237500J0D01*
G01*
X65762500Y-100425000D01*
G75*
G02*
X66000000Y-100662500I0J-237500D01*
G01*
X66000000Y-101137500D01*
G75*
G02*
X65762500Y-101375000I-237500J0D01*
G01*
X65262500Y-101375000D01*
G75*
G02*
X65025000Y-101137500I0J237500D01*
G01*
G37*
G36*
G01*
X63200000Y-101137500D02*
X63200000Y-100662500D01*
G75*
G02*
X63437500Y-100425000I237500J0D01*
G01*
X63937500Y-100425000D01*
G75*
G02*
X64175000Y-100662500I0J-237500D01*
G01*
X64175000Y-101137500D01*
G75*
G02*
X63937500Y-101375000I-237500J0D01*
G01*
X63437500Y-101375000D01*
G75*
G02*
X63200000Y-101137500I0J237500D01*
G01*
G37*
%TD*%
%TO.C,R11*%
G36*
G01*
X250725000Y-82037500D02*
X250725000Y-81562500D01*
G75*
G02*
X250962500Y-81325000I237500J0D01*
G01*
X251462500Y-81325000D01*
G75*
G02*
X251700000Y-81562500I0J-237500D01*
G01*
X251700000Y-82037500D01*
G75*
G02*
X251462500Y-82275000I-237500J0D01*
G01*
X250962500Y-82275000D01*
G75*
G02*
X250725000Y-82037500I0J237500D01*
G01*
G37*
G36*
G01*
X248900000Y-82037500D02*
X248900000Y-81562500D01*
G75*
G02*
X249137500Y-81325000I237500J0D01*
G01*
X249637500Y-81325000D01*
G75*
G02*
X249875000Y-81562500I0J-237500D01*
G01*
X249875000Y-82037500D01*
G75*
G02*
X249637500Y-82275000I-237500J0D01*
G01*
X249137500Y-82275000D01*
G75*
G02*
X248900000Y-82037500I0J237500D01*
G01*
G37*
%TD*%
%TO.C,R12*%
G36*
G01*
X212625000Y-63037500D02*
X212625000Y-62562500D01*
G75*
G02*
X212862500Y-62325000I237500J0D01*
G01*
X213362500Y-62325000D01*
G75*
G02*
X213600000Y-62562500I0J-237500D01*
G01*
X213600000Y-63037500D01*
G75*
G02*
X213362500Y-63275000I-237500J0D01*
G01*
X212862500Y-63275000D01*
G75*
G02*
X212625000Y-63037500I0J237500D01*
G01*
G37*
G36*
G01*
X210800000Y-63037500D02*
X210800000Y-62562500D01*
G75*
G02*
X211037500Y-62325000I237500J0D01*
G01*
X211537500Y-62325000D01*
G75*
G02*
X211775000Y-62562500I0J-237500D01*
G01*
X211775000Y-63037500D01*
G75*
G02*
X211537500Y-63275000I-237500J0D01*
G01*
X211037500Y-63275000D01*
G75*
G02*
X210800000Y-63037500I0J237500D01*
G01*
G37*
%TD*%
%TO.C,R13*%
G36*
G01*
X354837500Y-85600000D02*
X354362500Y-85600000D01*
G75*
G02*
X354125000Y-85362500I0J237500D01*
G01*
X354125000Y-84862500D01*
G75*
G02*
X354362500Y-84625000I237500J0D01*
G01*
X354837500Y-84625000D01*
G75*
G02*
X355075000Y-84862500I0J-237500D01*
G01*
X355075000Y-85362500D01*
G75*
G02*
X354837500Y-85600000I-237500J0D01*
G01*
G37*
G36*
G01*
X354837500Y-83775000D02*
X354362500Y-83775000D01*
G75*
G02*
X354125000Y-83537500I0J237500D01*
G01*
X354125000Y-83037500D01*
G75*
G02*
X354362500Y-82800000I237500J0D01*
G01*
X354837500Y-82800000D01*
G75*
G02*
X355075000Y-83037500I0J-237500D01*
G01*
X355075000Y-83537500D01*
G75*
G02*
X354837500Y-83775000I-237500J0D01*
G01*
G37*
%TD*%
%TO.C,R14*%
G36*
G01*
X287000000Y-158237500D02*
X287000000Y-157762500D01*
G75*
G02*
X287237500Y-157525000I237500J0D01*
G01*
X287737500Y-157525000D01*
G75*
G02*
X287975000Y-157762500I0J-237500D01*
G01*
X287975000Y-158237500D01*
G75*
G02*
X287737500Y-158475000I-237500J0D01*
G01*
X287237500Y-158475000D01*
G75*
G02*
X287000000Y-158237500I0J237500D01*
G01*
G37*
G36*
G01*
X288825000Y-158237500D02*
X288825000Y-157762500D01*
G75*
G02*
X289062500Y-157525000I237500J0D01*
G01*
X289562500Y-157525000D01*
G75*
G02*
X289800000Y-157762500I0J-237500D01*
G01*
X289800000Y-158237500D01*
G75*
G02*
X289562500Y-158475000I-237500J0D01*
G01*
X289062500Y-158475000D01*
G75*
G02*
X288825000Y-158237500I0J237500D01*
G01*
G37*
%TD*%
%TO.C,R15*%
G36*
G01*
X172700000Y-82037500D02*
X172700000Y-81562500D01*
G75*
G02*
X172937500Y-81325000I237500J0D01*
G01*
X173437500Y-81325000D01*
G75*
G02*
X173675000Y-81562500I0J-237500D01*
G01*
X173675000Y-82037500D01*
G75*
G02*
X173437500Y-82275000I-237500J0D01*
G01*
X172937500Y-82275000D01*
G75*
G02*
X172700000Y-82037500I0J237500D01*
G01*
G37*
G36*
G01*
X174525000Y-82037500D02*
X174525000Y-81562500D01*
G75*
G02*
X174762500Y-81325000I237500J0D01*
G01*
X175262500Y-81325000D01*
G75*
G02*
X175500000Y-81562500I0J-237500D01*
G01*
X175500000Y-82037500D01*
G75*
G02*
X175262500Y-82275000I-237500J0D01*
G01*
X174762500Y-82275000D01*
G75*
G02*
X174525000Y-82037500I0J237500D01*
G01*
G37*
%TD*%
%TO.C,R16*%
G36*
G01*
X187000000Y-120137500D02*
X187000000Y-119662500D01*
G75*
G02*
X187237500Y-119425000I237500J0D01*
G01*
X187737500Y-119425000D01*
G75*
G02*
X187975000Y-119662500I0J-237500D01*
G01*
X187975000Y-120137500D01*
G75*
G02*
X187737500Y-120375000I-237500J0D01*
G01*
X187237500Y-120375000D01*
G75*
G02*
X187000000Y-120137500I0J237500D01*
G01*
G37*
G36*
G01*
X188825000Y-120137500D02*
X188825000Y-119662500D01*
G75*
G02*
X189062500Y-119425000I237500J0D01*
G01*
X189562500Y-119425000D01*
G75*
G02*
X189800000Y-119662500I0J-237500D01*
G01*
X189800000Y-120137500D01*
G75*
G02*
X189562500Y-120375000I-237500J0D01*
G01*
X189062500Y-120375000D01*
G75*
G02*
X188825000Y-120137500I0J237500D01*
G01*
G37*
%TD*%
%TO.C,R17*%
G36*
G01*
X96470000Y-139237500D02*
X96470000Y-138762500D01*
G75*
G02*
X96707500Y-138525000I237500J0D01*
G01*
X97207500Y-138525000D01*
G75*
G02*
X97445000Y-138762500I0J-237500D01*
G01*
X97445000Y-139237500D01*
G75*
G02*
X97207500Y-139475000I-237500J0D01*
G01*
X96707500Y-139475000D01*
G75*
G02*
X96470000Y-139237500I0J237500D01*
G01*
G37*
G36*
G01*
X98295000Y-139237500D02*
X98295000Y-138762500D01*
G75*
G02*
X98532500Y-138525000I237500J0D01*
G01*
X99032500Y-138525000D01*
G75*
G02*
X99270000Y-138762500I0J-237500D01*
G01*
X99270000Y-139237500D01*
G75*
G02*
X99032500Y-139475000I-237500J0D01*
G01*
X98532500Y-139475000D01*
G75*
G02*
X98295000Y-139237500I0J237500D01*
G01*
G37*
%TD*%
%TO.C,R18*%
G36*
G01*
X244100000Y-120137500D02*
X244100000Y-119662500D01*
G75*
G02*
X244337500Y-119425000I237500J0D01*
G01*
X244837500Y-119425000D01*
G75*
G02*
X245075000Y-119662500I0J-237500D01*
G01*
X245075000Y-120137500D01*
G75*
G02*
X244837500Y-120375000I-237500J0D01*
G01*
X244337500Y-120375000D01*
G75*
G02*
X244100000Y-120137500I0J237500D01*
G01*
G37*
G36*
G01*
X245925000Y-120137500D02*
X245925000Y-119662500D01*
G75*
G02*
X246162500Y-119425000I237500J0D01*
G01*
X246662500Y-119425000D01*
G75*
G02*
X246900000Y-119662500I0J-237500D01*
G01*
X246900000Y-120137500D01*
G75*
G02*
X246662500Y-120375000I-237500J0D01*
G01*
X246162500Y-120375000D01*
G75*
G02*
X245925000Y-120137500I0J237500D01*
G01*
G37*
%TD*%
%TO.C,R19*%
G36*
G01*
X288825000Y-82037500D02*
X288825000Y-81562500D01*
G75*
G02*
X289062500Y-81325000I237500J0D01*
G01*
X289562500Y-81325000D01*
G75*
G02*
X289800000Y-81562500I0J-237500D01*
G01*
X289800000Y-82037500D01*
G75*
G02*
X289562500Y-82275000I-237500J0D01*
G01*
X289062500Y-82275000D01*
G75*
G02*
X288825000Y-82037500I0J237500D01*
G01*
G37*
G36*
G01*
X287000000Y-82037500D02*
X287000000Y-81562500D01*
G75*
G02*
X287237500Y-81325000I237500J0D01*
G01*
X287737500Y-81325000D01*
G75*
G02*
X287975000Y-81562500I0J-237500D01*
G01*
X287975000Y-82037500D01*
G75*
G02*
X287737500Y-82275000I-237500J0D01*
G01*
X287237500Y-82275000D01*
G75*
G02*
X287000000Y-82037500I0J237500D01*
G01*
G37*
%TD*%
%TO.C,R20*%
G36*
G01*
X117325000Y-82037500D02*
X117325000Y-81562500D01*
G75*
G02*
X117562500Y-81325000I237500J0D01*
G01*
X118062500Y-81325000D01*
G75*
G02*
X118300000Y-81562500I0J-237500D01*
G01*
X118300000Y-82037500D01*
G75*
G02*
X118062500Y-82275000I-237500J0D01*
G01*
X117562500Y-82275000D01*
G75*
G02*
X117325000Y-82037500I0J237500D01*
G01*
G37*
G36*
G01*
X115500000Y-82037500D02*
X115500000Y-81562500D01*
G75*
G02*
X115737500Y-81325000I237500J0D01*
G01*
X116237500Y-81325000D01*
G75*
G02*
X116475000Y-81562500I0J-237500D01*
G01*
X116475000Y-82037500D01*
G75*
G02*
X116237500Y-82275000I-237500J0D01*
G01*
X115737500Y-82275000D01*
G75*
G02*
X115500000Y-82037500I0J237500D01*
G01*
G37*
%TD*%
%TO.C,R21*%
G36*
G01*
X345925000Y-158237500D02*
X345925000Y-157762500D01*
G75*
G02*
X346162500Y-157525000I237500J0D01*
G01*
X346662500Y-157525000D01*
G75*
G02*
X346900000Y-157762500I0J-237500D01*
G01*
X346900000Y-158237500D01*
G75*
G02*
X346662500Y-158475000I-237500J0D01*
G01*
X346162500Y-158475000D01*
G75*
G02*
X345925000Y-158237500I0J237500D01*
G01*
G37*
G36*
G01*
X344100000Y-158237500D02*
X344100000Y-157762500D01*
G75*
G02*
X344337500Y-157525000I237500J0D01*
G01*
X344837500Y-157525000D01*
G75*
G02*
X345075000Y-157762500I0J-237500D01*
G01*
X345075000Y-158237500D01*
G75*
G02*
X344837500Y-158475000I-237500J0D01*
G01*
X344337500Y-158475000D01*
G75*
G02*
X344100000Y-158237500I0J237500D01*
G01*
G37*
%TD*%
%TO.C,R22*%
G36*
G01*
X333575000Y-121862500D02*
X333575000Y-122337500D01*
G75*
G02*
X333337500Y-122575000I-237500J0D01*
G01*
X332837500Y-122575000D01*
G75*
G02*
X332600000Y-122337500I0J237500D01*
G01*
X332600000Y-121862500D01*
G75*
G02*
X332837500Y-121625000I237500J0D01*
G01*
X333337500Y-121625000D01*
G75*
G02*
X333575000Y-121862500I0J-237500D01*
G01*
G37*
G36*
G01*
X335400000Y-121862500D02*
X335400000Y-122337500D01*
G75*
G02*
X335162500Y-122575000I-237500J0D01*
G01*
X334662500Y-122575000D01*
G75*
G02*
X334425000Y-122337500I0J237500D01*
G01*
X334425000Y-121862500D01*
G75*
G02*
X334662500Y-121625000I237500J0D01*
G01*
X335162500Y-121625000D01*
G75*
G02*
X335400000Y-121862500I0J-237500D01*
G01*
G37*
%TD*%
%TO.C,R23*%
G36*
G01*
X288825000Y-63037500D02*
X288825000Y-62562500D01*
G75*
G02*
X289062500Y-62325000I237500J0D01*
G01*
X289562500Y-62325000D01*
G75*
G02*
X289800000Y-62562500I0J-237500D01*
G01*
X289800000Y-63037500D01*
G75*
G02*
X289562500Y-63275000I-237500J0D01*
G01*
X289062500Y-63275000D01*
G75*
G02*
X288825000Y-63037500I0J237500D01*
G01*
G37*
G36*
G01*
X287000000Y-63037500D02*
X287000000Y-62562500D01*
G75*
G02*
X287237500Y-62325000I237500J0D01*
G01*
X287737500Y-62325000D01*
G75*
G02*
X287975000Y-62562500I0J-237500D01*
G01*
X287975000Y-63037500D01*
G75*
G02*
X287737500Y-63275000I-237500J0D01*
G01*
X287237500Y-63275000D01*
G75*
G02*
X287000000Y-63037500I0J237500D01*
G01*
G37*
%TD*%
%TO.C,R24*%
G36*
G01*
X191700000Y-63037500D02*
X191700000Y-62562500D01*
G75*
G02*
X191937500Y-62325000I237500J0D01*
G01*
X192437500Y-62325000D01*
G75*
G02*
X192675000Y-62562500I0J-237500D01*
G01*
X192675000Y-63037500D01*
G75*
G02*
X192437500Y-63275000I-237500J0D01*
G01*
X191937500Y-63275000D01*
G75*
G02*
X191700000Y-63037500I0J237500D01*
G01*
G37*
G36*
G01*
X193525000Y-63037500D02*
X193525000Y-62562500D01*
G75*
G02*
X193762500Y-62325000I237500J0D01*
G01*
X194262500Y-62325000D01*
G75*
G02*
X194500000Y-62562500I0J-237500D01*
G01*
X194500000Y-63037500D01*
G75*
G02*
X194262500Y-63275000I-237500J0D01*
G01*
X193762500Y-63275000D01*
G75*
G02*
X193525000Y-63037500I0J237500D01*
G01*
G37*
%TD*%
%TO.C,R25*%
G36*
G01*
X326925000Y-158237500D02*
X326925000Y-157762500D01*
G75*
G02*
X327162500Y-157525000I237500J0D01*
G01*
X327662500Y-157525000D01*
G75*
G02*
X327900000Y-157762500I0J-237500D01*
G01*
X327900000Y-158237500D01*
G75*
G02*
X327662500Y-158475000I-237500J0D01*
G01*
X327162500Y-158475000D01*
G75*
G02*
X326925000Y-158237500I0J237500D01*
G01*
G37*
G36*
G01*
X325100000Y-158237500D02*
X325100000Y-157762500D01*
G75*
G02*
X325337500Y-157525000I237500J0D01*
G01*
X325837500Y-157525000D01*
G75*
G02*
X326075000Y-157762500I0J-237500D01*
G01*
X326075000Y-158237500D01*
G75*
G02*
X325837500Y-158475000I-237500J0D01*
G01*
X325337500Y-158475000D01*
G75*
G02*
X325100000Y-158237500I0J237500D01*
G01*
G37*
%TD*%
%TO.C,R26*%
G36*
G01*
X301300000Y-120137500D02*
X301300000Y-119662500D01*
G75*
G02*
X301537500Y-119425000I237500J0D01*
G01*
X302037500Y-119425000D01*
G75*
G02*
X302275000Y-119662500I0J-237500D01*
G01*
X302275000Y-120137500D01*
G75*
G02*
X302037500Y-120375000I-237500J0D01*
G01*
X301537500Y-120375000D01*
G75*
G02*
X301300000Y-120137500I0J237500D01*
G01*
G37*
G36*
G01*
X303125000Y-120137500D02*
X303125000Y-119662500D01*
G75*
G02*
X303362500Y-119425000I237500J0D01*
G01*
X303862500Y-119425000D01*
G75*
G02*
X304100000Y-119662500I0J-237500D01*
G01*
X304100000Y-120137500D01*
G75*
G02*
X303862500Y-120375000I-237500J0D01*
G01*
X303362500Y-120375000D01*
G75*
G02*
X303125000Y-120137500I0J237500D01*
G01*
G37*
%TD*%
%TO.C,R27*%
G36*
G01*
X225100000Y-120137500D02*
X225100000Y-119662500D01*
G75*
G02*
X225337500Y-119425000I237500J0D01*
G01*
X225837500Y-119425000D01*
G75*
G02*
X226075000Y-119662500I0J-237500D01*
G01*
X226075000Y-120137500D01*
G75*
G02*
X225837500Y-120375000I-237500J0D01*
G01*
X225337500Y-120375000D01*
G75*
G02*
X225100000Y-120137500I0J237500D01*
G01*
G37*
G36*
G01*
X226925000Y-120137500D02*
X226925000Y-119662500D01*
G75*
G02*
X227162500Y-119425000I237500J0D01*
G01*
X227662500Y-119425000D01*
G75*
G02*
X227900000Y-119662500I0J-237500D01*
G01*
X227900000Y-120137500D01*
G75*
G02*
X227662500Y-120375000I-237500J0D01*
G01*
X227162500Y-120375000D01*
G75*
G02*
X226925000Y-120137500I0J237500D01*
G01*
G37*
%TD*%
%TO.C,R28*%
G36*
G01*
X153600000Y-63037500D02*
X153600000Y-62562500D01*
G75*
G02*
X153837500Y-62325000I237500J0D01*
G01*
X154337500Y-62325000D01*
G75*
G02*
X154575000Y-62562500I0J-237500D01*
G01*
X154575000Y-63037500D01*
G75*
G02*
X154337500Y-63275000I-237500J0D01*
G01*
X153837500Y-63275000D01*
G75*
G02*
X153600000Y-63037500I0J237500D01*
G01*
G37*
G36*
G01*
X155425000Y-63037500D02*
X155425000Y-62562500D01*
G75*
G02*
X155662500Y-62325000I237500J0D01*
G01*
X156162500Y-62325000D01*
G75*
G02*
X156400000Y-62562500I0J-237500D01*
G01*
X156400000Y-63037500D01*
G75*
G02*
X156162500Y-63275000I-237500J0D01*
G01*
X155662500Y-63275000D01*
G75*
G02*
X155425000Y-63037500I0J237500D01*
G01*
G37*
%TD*%
%TO.C,R29*%
G36*
G01*
X248325000Y-158237500D02*
X248325000Y-157762500D01*
G75*
G02*
X248562500Y-157525000I237500J0D01*
G01*
X249062500Y-157525000D01*
G75*
G02*
X249300000Y-157762500I0J-237500D01*
G01*
X249300000Y-158237500D01*
G75*
G02*
X249062500Y-158475000I-237500J0D01*
G01*
X248562500Y-158475000D01*
G75*
G02*
X248325000Y-158237500I0J237500D01*
G01*
G37*
G36*
G01*
X246500000Y-158237500D02*
X246500000Y-157762500D01*
G75*
G02*
X246737500Y-157525000I237500J0D01*
G01*
X247237500Y-157525000D01*
G75*
G02*
X247475000Y-157762500I0J-237500D01*
G01*
X247475000Y-158237500D01*
G75*
G02*
X247237500Y-158475000I-237500J0D01*
G01*
X246737500Y-158475000D01*
G75*
G02*
X246500000Y-158237500I0J237500D01*
G01*
G37*
%TD*%
%TO.C,R30*%
G36*
G01*
X345925000Y-139237500D02*
X345925000Y-138762500D01*
G75*
G02*
X346162500Y-138525000I237500J0D01*
G01*
X346662500Y-138525000D01*
G75*
G02*
X346900000Y-138762500I0J-237500D01*
G01*
X346900000Y-139237500D01*
G75*
G02*
X346662500Y-139475000I-237500J0D01*
G01*
X346162500Y-139475000D01*
G75*
G02*
X345925000Y-139237500I0J237500D01*
G01*
G37*
G36*
G01*
X344100000Y-139237500D02*
X344100000Y-138762500D01*
G75*
G02*
X344337500Y-138525000I237500J0D01*
G01*
X344837500Y-138525000D01*
G75*
G02*
X345075000Y-138762500I0J-237500D01*
G01*
X345075000Y-139237500D01*
G75*
G02*
X344837500Y-139475000I-237500J0D01*
G01*
X344337500Y-139475000D01*
G75*
G02*
X344100000Y-139237500I0J237500D01*
G01*
G37*
%TD*%
%TO.C,R31*%
G36*
G01*
X250725000Y-62937500D02*
X250725000Y-62462500D01*
G75*
G02*
X250962500Y-62225000I237500J0D01*
G01*
X251462500Y-62225000D01*
G75*
G02*
X251700000Y-62462500I0J-237500D01*
G01*
X251700000Y-62937500D01*
G75*
G02*
X251462500Y-63175000I-237500J0D01*
G01*
X250962500Y-63175000D01*
G75*
G02*
X250725000Y-62937500I0J237500D01*
G01*
G37*
G36*
G01*
X248900000Y-62937500D02*
X248900000Y-62462500D01*
G75*
G02*
X249137500Y-62225000I237500J0D01*
G01*
X249637500Y-62225000D01*
G75*
G02*
X249875000Y-62462500I0J-237500D01*
G01*
X249875000Y-62937500D01*
G75*
G02*
X249637500Y-63175000I-237500J0D01*
G01*
X249137500Y-63175000D01*
G75*
G02*
X248900000Y-62937500I0J237500D01*
G01*
G37*
%TD*%
%TO.C,R32*%
G36*
G01*
X153600000Y-82037500D02*
X153600000Y-81562500D01*
G75*
G02*
X153837500Y-81325000I237500J0D01*
G01*
X154337500Y-81325000D01*
G75*
G02*
X154575000Y-81562500I0J-237500D01*
G01*
X154575000Y-82037500D01*
G75*
G02*
X154337500Y-82275000I-237500J0D01*
G01*
X153837500Y-82275000D01*
G75*
G02*
X153600000Y-82037500I0J237500D01*
G01*
G37*
G36*
G01*
X155425000Y-82037500D02*
X155425000Y-81562500D01*
G75*
G02*
X155662500Y-81325000I237500J0D01*
G01*
X156162500Y-81325000D01*
G75*
G02*
X156400000Y-81562500I0J-237500D01*
G01*
X156400000Y-82037500D01*
G75*
G02*
X156162500Y-82275000I-237500J0D01*
G01*
X155662500Y-82275000D01*
G75*
G02*
X155425000Y-82037500I0J237500D01*
G01*
G37*
%TD*%
%TO.C,R33*%
G36*
G01*
X176925000Y-158237500D02*
X176925000Y-157762500D01*
G75*
G02*
X177162500Y-157525000I237500J0D01*
G01*
X177662500Y-157525000D01*
G75*
G02*
X177900000Y-157762500I0J-237500D01*
G01*
X177900000Y-158237500D01*
G75*
G02*
X177662500Y-158475000I-237500J0D01*
G01*
X177162500Y-158475000D01*
G75*
G02*
X176925000Y-158237500I0J237500D01*
G01*
G37*
G36*
G01*
X175100000Y-158237500D02*
X175100000Y-157762500D01*
G75*
G02*
X175337500Y-157525000I237500J0D01*
G01*
X175837500Y-157525000D01*
G75*
G02*
X176075000Y-157762500I0J-237500D01*
G01*
X176075000Y-158237500D01*
G75*
G02*
X175837500Y-158475000I-237500J0D01*
G01*
X175337500Y-158475000D01*
G75*
G02*
X175100000Y-158237500I0J237500D01*
G01*
G37*
%TD*%
%TO.C,R34*%
G36*
G01*
X67325000Y-121637500D02*
X67325000Y-121162500D01*
G75*
G02*
X67562500Y-120925000I237500J0D01*
G01*
X68062500Y-120925000D01*
G75*
G02*
X68300000Y-121162500I0J-237500D01*
G01*
X68300000Y-121637500D01*
G75*
G02*
X68062500Y-121875000I-237500J0D01*
G01*
X67562500Y-121875000D01*
G75*
G02*
X67325000Y-121637500I0J237500D01*
G01*
G37*
G36*
G01*
X65500000Y-121637500D02*
X65500000Y-121162500D01*
G75*
G02*
X65737500Y-120925000I237500J0D01*
G01*
X66237500Y-120925000D01*
G75*
G02*
X66475000Y-121162500I0J-237500D01*
G01*
X66475000Y-121637500D01*
G75*
G02*
X66237500Y-121875000I-237500J0D01*
G01*
X65737500Y-121875000D01*
G75*
G02*
X65500000Y-121637500I0J237500D01*
G01*
G37*
%TD*%
%TO.C,R35*%
G36*
G01*
X267900000Y-139137500D02*
X267900000Y-138662500D01*
G75*
G02*
X268137500Y-138425000I237500J0D01*
G01*
X268637500Y-138425000D01*
G75*
G02*
X268875000Y-138662500I0J-237500D01*
G01*
X268875000Y-139137500D01*
G75*
G02*
X268637500Y-139375000I-237500J0D01*
G01*
X268137500Y-139375000D01*
G75*
G02*
X267900000Y-139137500I0J237500D01*
G01*
G37*
G36*
G01*
X269725000Y-139137500D02*
X269725000Y-138662500D01*
G75*
G02*
X269962500Y-138425000I237500J0D01*
G01*
X270462500Y-138425000D01*
G75*
G02*
X270700000Y-138662500I0J-237500D01*
G01*
X270700000Y-139137500D01*
G75*
G02*
X270462500Y-139375000I-237500J0D01*
G01*
X269962500Y-139375000D01*
G75*
G02*
X269725000Y-139137500I0J237500D01*
G01*
G37*
%TD*%
%TO.C,R36*%
G36*
G01*
X344100000Y-120137500D02*
X344100000Y-119662500D01*
G75*
G02*
X344337500Y-119425000I237500J0D01*
G01*
X344837500Y-119425000D01*
G75*
G02*
X345075000Y-119662500I0J-237500D01*
G01*
X345075000Y-120137500D01*
G75*
G02*
X344837500Y-120375000I-237500J0D01*
G01*
X344337500Y-120375000D01*
G75*
G02*
X344100000Y-120137500I0J237500D01*
G01*
G37*
G36*
G01*
X345925000Y-120137500D02*
X345925000Y-119662500D01*
G75*
G02*
X346162500Y-119425000I237500J0D01*
G01*
X346662500Y-119425000D01*
G75*
G02*
X346900000Y-119662500I0J-237500D01*
G01*
X346900000Y-120137500D01*
G75*
G02*
X346662500Y-120375000I-237500J0D01*
G01*
X346162500Y-120375000D01*
G75*
G02*
X345925000Y-120137500I0J237500D01*
G01*
G37*
%TD*%
%TO.C,R37*%
G36*
G01*
X60800000Y-158237500D02*
X60800000Y-157762500D01*
G75*
G02*
X61037500Y-157525000I237500J0D01*
G01*
X61537500Y-157525000D01*
G75*
G02*
X61775000Y-157762500I0J-237500D01*
G01*
X61775000Y-158237500D01*
G75*
G02*
X61537500Y-158475000I-237500J0D01*
G01*
X61037500Y-158475000D01*
G75*
G02*
X60800000Y-158237500I0J237500D01*
G01*
G37*
G36*
G01*
X62625000Y-158237500D02*
X62625000Y-157762500D01*
G75*
G02*
X62862500Y-157525000I237500J0D01*
G01*
X63362500Y-157525000D01*
G75*
G02*
X63600000Y-157762500I0J-237500D01*
G01*
X63600000Y-158237500D01*
G75*
G02*
X63362500Y-158475000I-237500J0D01*
G01*
X62862500Y-158475000D01*
G75*
G02*
X62625000Y-158237500I0J237500D01*
G01*
G37*
%TD*%
%TO.C,R38*%
G36*
G01*
X269825000Y-63037500D02*
X269825000Y-62562500D01*
G75*
G02*
X270062500Y-62325000I237500J0D01*
G01*
X270562500Y-62325000D01*
G75*
G02*
X270800000Y-62562500I0J-237500D01*
G01*
X270800000Y-63037500D01*
G75*
G02*
X270562500Y-63275000I-237500J0D01*
G01*
X270062500Y-63275000D01*
G75*
G02*
X269825000Y-63037500I0J237500D01*
G01*
G37*
G36*
G01*
X268000000Y-63037500D02*
X268000000Y-62562500D01*
G75*
G02*
X268237500Y-62325000I237500J0D01*
G01*
X268737500Y-62325000D01*
G75*
G02*
X268975000Y-62562500I0J-237500D01*
G01*
X268975000Y-63037500D01*
G75*
G02*
X268737500Y-63275000I-237500J0D01*
G01*
X268237500Y-63275000D01*
G75*
G02*
X268000000Y-63037500I0J237500D01*
G01*
G37*
%TD*%
%TO.C,R39*%
G36*
G01*
X229800000Y-139237500D02*
X229800000Y-138762500D01*
G75*
G02*
X230037500Y-138525000I237500J0D01*
G01*
X230537500Y-138525000D01*
G75*
G02*
X230775000Y-138762500I0J-237500D01*
G01*
X230775000Y-139237500D01*
G75*
G02*
X230537500Y-139475000I-237500J0D01*
G01*
X230037500Y-139475000D01*
G75*
G02*
X229800000Y-139237500I0J237500D01*
G01*
G37*
G36*
G01*
X231625000Y-139237500D02*
X231625000Y-138762500D01*
G75*
G02*
X231862500Y-138525000I237500J0D01*
G01*
X232362500Y-138525000D01*
G75*
G02*
X232600000Y-138762500I0J-237500D01*
G01*
X232600000Y-139237500D01*
G75*
G02*
X232362500Y-139475000I-237500J0D01*
G01*
X231862500Y-139475000D01*
G75*
G02*
X231625000Y-139237500I0J237500D01*
G01*
G37*
%TD*%
%TO.C,R40*%
G36*
G01*
X307825000Y-158237500D02*
X307825000Y-157762500D01*
G75*
G02*
X308062500Y-157525000I237500J0D01*
G01*
X308562500Y-157525000D01*
G75*
G02*
X308800000Y-157762500I0J-237500D01*
G01*
X308800000Y-158237500D01*
G75*
G02*
X308562500Y-158475000I-237500J0D01*
G01*
X308062500Y-158475000D01*
G75*
G02*
X307825000Y-158237500I0J237500D01*
G01*
G37*
G36*
G01*
X306000000Y-158237500D02*
X306000000Y-157762500D01*
G75*
G02*
X306237500Y-157525000I237500J0D01*
G01*
X306737500Y-157525000D01*
G75*
G02*
X306975000Y-157762500I0J-237500D01*
G01*
X306975000Y-158237500D01*
G75*
G02*
X306737500Y-158475000I-237500J0D01*
G01*
X306237500Y-158475000D01*
G75*
G02*
X306000000Y-158237500I0J237500D01*
G01*
G37*
%TD*%
%TO.C,R41*%
G36*
G01*
X231625000Y-63037500D02*
X231625000Y-62562500D01*
G75*
G02*
X231862500Y-62325000I237500J0D01*
G01*
X232362500Y-62325000D01*
G75*
G02*
X232600000Y-62562500I0J-237500D01*
G01*
X232600000Y-63037500D01*
G75*
G02*
X232362500Y-63275000I-237500J0D01*
G01*
X231862500Y-63275000D01*
G75*
G02*
X231625000Y-63037500I0J237500D01*
G01*
G37*
G36*
G01*
X229800000Y-63037500D02*
X229800000Y-62562500D01*
G75*
G02*
X230037500Y-62325000I237500J0D01*
G01*
X230537500Y-62325000D01*
G75*
G02*
X230775000Y-62562500I0J-237500D01*
G01*
X230775000Y-63037500D01*
G75*
G02*
X230537500Y-63275000I-237500J0D01*
G01*
X230037500Y-63275000D01*
G75*
G02*
X229800000Y-63037500I0J237500D01*
G01*
G37*
%TD*%
%TO.C,R42*%
G36*
G01*
X112625000Y-120137500D02*
X112625000Y-119662500D01*
G75*
G02*
X112862500Y-119425000I237500J0D01*
G01*
X113362500Y-119425000D01*
G75*
G02*
X113600000Y-119662500I0J-237500D01*
G01*
X113600000Y-120137500D01*
G75*
G02*
X113362500Y-120375000I-237500J0D01*
G01*
X112862500Y-120375000D01*
G75*
G02*
X112625000Y-120137500I0J237500D01*
G01*
G37*
G36*
G01*
X110800000Y-120137500D02*
X110800000Y-119662500D01*
G75*
G02*
X111037500Y-119425000I237500J0D01*
G01*
X111537500Y-119425000D01*
G75*
G02*
X111775000Y-119662500I0J-237500D01*
G01*
X111775000Y-120137500D01*
G75*
G02*
X111537500Y-120375000I-237500J0D01*
G01*
X111037500Y-120375000D01*
G75*
G02*
X110800000Y-120137500I0J237500D01*
G01*
G37*
%TD*%
%TO.C,R43*%
G36*
G01*
X356800000Y-65162500D02*
X356800000Y-65637500D01*
G75*
G02*
X356562500Y-65875000I-237500J0D01*
G01*
X356062500Y-65875000D01*
G75*
G02*
X355825000Y-65637500I0J237500D01*
G01*
X355825000Y-65162500D01*
G75*
G02*
X356062500Y-64925000I237500J0D01*
G01*
X356562500Y-64925000D01*
G75*
G02*
X356800000Y-65162500I0J-237500D01*
G01*
G37*
G36*
G01*
X354975000Y-65162500D02*
X354975000Y-65637500D01*
G75*
G02*
X354737500Y-65875000I-237500J0D01*
G01*
X354237500Y-65875000D01*
G75*
G02*
X354000000Y-65637500I0J237500D01*
G01*
X354000000Y-65162500D01*
G75*
G02*
X354237500Y-64925000I237500J0D01*
G01*
X354737500Y-64925000D01*
G75*
G02*
X354975000Y-65162500I0J-237500D01*
G01*
G37*
%TD*%
%TO.C,R44*%
G36*
G01*
X184025000Y-101037500D02*
X184025000Y-100562500D01*
G75*
G02*
X184262500Y-100325000I237500J0D01*
G01*
X184762500Y-100325000D01*
G75*
G02*
X185000000Y-100562500I0J-237500D01*
G01*
X185000000Y-101037500D01*
G75*
G02*
X184762500Y-101275000I-237500J0D01*
G01*
X184262500Y-101275000D01*
G75*
G02*
X184025000Y-101037500I0J237500D01*
G01*
G37*
G36*
G01*
X182200000Y-101037500D02*
X182200000Y-100562500D01*
G75*
G02*
X182437500Y-100325000I237500J0D01*
G01*
X182937500Y-100325000D01*
G75*
G02*
X183175000Y-100562500I0J-237500D01*
G01*
X183175000Y-101037500D01*
G75*
G02*
X182937500Y-101275000I-237500J0D01*
G01*
X182437500Y-101275000D01*
G75*
G02*
X182200000Y-101037500I0J237500D01*
G01*
G37*
%TD*%
%TO.C,R45*%
G36*
G01*
X248900000Y-139237500D02*
X248900000Y-138762500D01*
G75*
G02*
X249137500Y-138525000I237500J0D01*
G01*
X249637500Y-138525000D01*
G75*
G02*
X249875000Y-138762500I0J-237500D01*
G01*
X249875000Y-139237500D01*
G75*
G02*
X249637500Y-139475000I-237500J0D01*
G01*
X249137500Y-139475000D01*
G75*
G02*
X248900000Y-139237500I0J237500D01*
G01*
G37*
G36*
G01*
X250725000Y-139237500D02*
X250725000Y-138762500D01*
G75*
G02*
X250962500Y-138525000I237500J0D01*
G01*
X251462500Y-138525000D01*
G75*
G02*
X251700000Y-138762500I0J-237500D01*
G01*
X251700000Y-139237500D01*
G75*
G02*
X251462500Y-139475000I-237500J0D01*
G01*
X250962500Y-139475000D01*
G75*
G02*
X250725000Y-139237500I0J237500D01*
G01*
G37*
%TD*%
%TO.C,R46*%
G36*
G01*
X96500000Y-63037500D02*
X96500000Y-62562500D01*
G75*
G02*
X96737500Y-62325000I237500J0D01*
G01*
X97237500Y-62325000D01*
G75*
G02*
X97475000Y-62562500I0J-237500D01*
G01*
X97475000Y-63037500D01*
G75*
G02*
X97237500Y-63275000I-237500J0D01*
G01*
X96737500Y-63275000D01*
G75*
G02*
X96500000Y-63037500I0J237500D01*
G01*
G37*
G36*
G01*
X98325000Y-63037500D02*
X98325000Y-62562500D01*
G75*
G02*
X98562500Y-62325000I237500J0D01*
G01*
X99062500Y-62325000D01*
G75*
G02*
X99300000Y-62562500I0J-237500D01*
G01*
X99300000Y-63037500D01*
G75*
G02*
X99062500Y-63275000I-237500J0D01*
G01*
X98562500Y-63275000D01*
G75*
G02*
X98325000Y-63037500I0J237500D01*
G01*
G37*
%TD*%
%TO.C,R47*%
G36*
G01*
X210800000Y-139237500D02*
X210800000Y-138762500D01*
G75*
G02*
X211037500Y-138525000I237500J0D01*
G01*
X211537500Y-138525000D01*
G75*
G02*
X211775000Y-138762500I0J-237500D01*
G01*
X211775000Y-139237500D01*
G75*
G02*
X211537500Y-139475000I-237500J0D01*
G01*
X211037500Y-139475000D01*
G75*
G02*
X210800000Y-139237500I0J237500D01*
G01*
G37*
G36*
G01*
X212625000Y-139237500D02*
X212625000Y-138762500D01*
G75*
G02*
X212862500Y-138525000I237500J0D01*
G01*
X213362500Y-138525000D01*
G75*
G02*
X213600000Y-138762500I0J-237500D01*
G01*
X213600000Y-139237500D01*
G75*
G02*
X213362500Y-139475000I-237500J0D01*
G01*
X212862500Y-139475000D01*
G75*
G02*
X212625000Y-139237500I0J237500D01*
G01*
G37*
%TD*%
%TO.C,R48*%
G36*
G01*
X136425000Y-139237500D02*
X136425000Y-138762500D01*
G75*
G02*
X136662500Y-138525000I237500J0D01*
G01*
X137162500Y-138525000D01*
G75*
G02*
X137400000Y-138762500I0J-237500D01*
G01*
X137400000Y-139237500D01*
G75*
G02*
X137162500Y-139475000I-237500J0D01*
G01*
X136662500Y-139475000D01*
G75*
G02*
X136425000Y-139237500I0J237500D01*
G01*
G37*
G36*
G01*
X134600000Y-139237500D02*
X134600000Y-138762500D01*
G75*
G02*
X134837500Y-138525000I237500J0D01*
G01*
X135337500Y-138525000D01*
G75*
G02*
X135575000Y-138762500I0J-237500D01*
G01*
X135575000Y-139237500D01*
G75*
G02*
X135337500Y-139475000I-237500J0D01*
G01*
X134837500Y-139475000D01*
G75*
G02*
X134600000Y-139237500I0J237500D01*
G01*
G37*
%TD*%
%TO.C,R49*%
G36*
G01*
X172700000Y-63037500D02*
X172700000Y-62562500D01*
G75*
G02*
X172937500Y-62325000I237500J0D01*
G01*
X173437500Y-62325000D01*
G75*
G02*
X173675000Y-62562500I0J-237500D01*
G01*
X173675000Y-63037500D01*
G75*
G02*
X173437500Y-63275000I-237500J0D01*
G01*
X172937500Y-63275000D01*
G75*
G02*
X172700000Y-63037500I0J237500D01*
G01*
G37*
G36*
G01*
X174525000Y-63037500D02*
X174525000Y-62562500D01*
G75*
G02*
X174762500Y-62325000I237500J0D01*
G01*
X175262500Y-62325000D01*
G75*
G02*
X175500000Y-62562500I0J-237500D01*
G01*
X175500000Y-63037500D01*
G75*
G02*
X175262500Y-63275000I-237500J0D01*
G01*
X174762500Y-63275000D01*
G75*
G02*
X174525000Y-63037500I0J237500D01*
G01*
G37*
%TD*%
%TO.C,R50*%
G36*
G01*
X267900000Y-82037500D02*
X267900000Y-81562500D01*
G75*
G02*
X268137500Y-81325000I237500J0D01*
G01*
X268637500Y-81325000D01*
G75*
G02*
X268875000Y-81562500I0J-237500D01*
G01*
X268875000Y-82037500D01*
G75*
G02*
X268637500Y-82275000I-237500J0D01*
G01*
X268137500Y-82275000D01*
G75*
G02*
X267900000Y-82037500I0J237500D01*
G01*
G37*
G36*
G01*
X269725000Y-82037500D02*
X269725000Y-81562500D01*
G75*
G02*
X269962500Y-81325000I237500J0D01*
G01*
X270462500Y-81325000D01*
G75*
G02*
X270700000Y-81562500I0J-237500D01*
G01*
X270700000Y-82037500D01*
G75*
G02*
X270462500Y-82275000I-237500J0D01*
G01*
X269962500Y-82275000D01*
G75*
G02*
X269725000Y-82037500I0J237500D01*
G01*
G37*
%TD*%
%TO.C,R51*%
G36*
G01*
X145925000Y-101137500D02*
X145925000Y-100662500D01*
G75*
G02*
X146162500Y-100425000I237500J0D01*
G01*
X146662500Y-100425000D01*
G75*
G02*
X146900000Y-100662500I0J-237500D01*
G01*
X146900000Y-101137500D01*
G75*
G02*
X146662500Y-101375000I-237500J0D01*
G01*
X146162500Y-101375000D01*
G75*
G02*
X145925000Y-101137500I0J237500D01*
G01*
G37*
G36*
G01*
X144100000Y-101137500D02*
X144100000Y-100662500D01*
G75*
G02*
X144337500Y-100425000I237500J0D01*
G01*
X144837500Y-100425000D01*
G75*
G02*
X145075000Y-100662500I0J-237500D01*
G01*
X145075000Y-101137500D01*
G75*
G02*
X144837500Y-101375000I-237500J0D01*
G01*
X144337500Y-101375000D01*
G75*
G02*
X144100000Y-101137500I0J237500D01*
G01*
G37*
%TD*%
%TO.C,R52*%
G36*
G01*
X260225000Y-101137500D02*
X260225000Y-100662500D01*
G75*
G02*
X260462500Y-100425000I237500J0D01*
G01*
X260962500Y-100425000D01*
G75*
G02*
X261200000Y-100662500I0J-237500D01*
G01*
X261200000Y-101137500D01*
G75*
G02*
X260962500Y-101375000I-237500J0D01*
G01*
X260462500Y-101375000D01*
G75*
G02*
X260225000Y-101137500I0J237500D01*
G01*
G37*
G36*
G01*
X258400000Y-101137500D02*
X258400000Y-100662500D01*
G75*
G02*
X258637500Y-100425000I237500J0D01*
G01*
X259137500Y-100425000D01*
G75*
G02*
X259375000Y-100662500I0J-237500D01*
G01*
X259375000Y-101137500D01*
G75*
G02*
X259137500Y-101375000I-237500J0D01*
G01*
X258637500Y-101375000D01*
G75*
G02*
X258400000Y-101137500I0J237500D01*
G01*
G37*
%TD*%
%TO.C,R53*%
G36*
G01*
X77400000Y-63037500D02*
X77400000Y-62562500D01*
G75*
G02*
X77637500Y-62325000I237500J0D01*
G01*
X78137500Y-62325000D01*
G75*
G02*
X78375000Y-62562500I0J-237500D01*
G01*
X78375000Y-63037500D01*
G75*
G02*
X78137500Y-63275000I-237500J0D01*
G01*
X77637500Y-63275000D01*
G75*
G02*
X77400000Y-63037500I0J237500D01*
G01*
G37*
G36*
G01*
X79225000Y-63037500D02*
X79225000Y-62562500D01*
G75*
G02*
X79462500Y-62325000I237500J0D01*
G01*
X79962500Y-62325000D01*
G75*
G02*
X80200000Y-62562500I0J-237500D01*
G01*
X80200000Y-63037500D01*
G75*
G02*
X79962500Y-63275000I-237500J0D01*
G01*
X79462500Y-63275000D01*
G75*
G02*
X79225000Y-63037500I0J237500D01*
G01*
G37*
%TD*%
%TO.C,R54*%
G36*
G01*
X284025000Y-120137500D02*
X284025000Y-119662500D01*
G75*
G02*
X284262500Y-119425000I237500J0D01*
G01*
X284762500Y-119425000D01*
G75*
G02*
X285000000Y-119662500I0J-237500D01*
G01*
X285000000Y-120137500D01*
G75*
G02*
X284762500Y-120375000I-237500J0D01*
G01*
X284262500Y-120375000D01*
G75*
G02*
X284025000Y-120137500I0J237500D01*
G01*
G37*
G36*
G01*
X282200000Y-120137500D02*
X282200000Y-119662500D01*
G75*
G02*
X282437500Y-119425000I237500J0D01*
G01*
X282937500Y-119425000D01*
G75*
G02*
X283175000Y-119662500I0J-237500D01*
G01*
X283175000Y-120137500D01*
G75*
G02*
X282937500Y-120375000I-237500J0D01*
G01*
X282437500Y-120375000D01*
G75*
G02*
X282200000Y-120137500I0J237500D01*
G01*
G37*
%TD*%
%TO.C,R55*%
G36*
G01*
X263200000Y-120137500D02*
X263200000Y-119662500D01*
G75*
G02*
X263437500Y-119425000I237500J0D01*
G01*
X263937500Y-119425000D01*
G75*
G02*
X264175000Y-119662500I0J-237500D01*
G01*
X264175000Y-120137500D01*
G75*
G02*
X263937500Y-120375000I-237500J0D01*
G01*
X263437500Y-120375000D01*
G75*
G02*
X263200000Y-120137500I0J237500D01*
G01*
G37*
G36*
G01*
X265025000Y-120137500D02*
X265025000Y-119662500D01*
G75*
G02*
X265262500Y-119425000I237500J0D01*
G01*
X265762500Y-119425000D01*
G75*
G02*
X266000000Y-119662500I0J-237500D01*
G01*
X266000000Y-120137500D01*
G75*
G02*
X265762500Y-120375000I-237500J0D01*
G01*
X265262500Y-120375000D01*
G75*
G02*
X265025000Y-120137500I0J237500D01*
G01*
G37*
%TD*%
%TO.C,R56*%
G36*
G01*
X229800000Y-82037500D02*
X229800000Y-81562500D01*
G75*
G02*
X230037500Y-81325000I237500J0D01*
G01*
X230537500Y-81325000D01*
G75*
G02*
X230775000Y-81562500I0J-237500D01*
G01*
X230775000Y-82037500D01*
G75*
G02*
X230537500Y-82275000I-237500J0D01*
G01*
X230037500Y-82275000D01*
G75*
G02*
X229800000Y-82037500I0J237500D01*
G01*
G37*
G36*
G01*
X231625000Y-82037500D02*
X231625000Y-81562500D01*
G75*
G02*
X231862500Y-81325000I237500J0D01*
G01*
X232362500Y-81325000D01*
G75*
G02*
X232600000Y-81562500I0J-237500D01*
G01*
X232600000Y-82037500D01*
G75*
G02*
X232362500Y-82275000I-237500J0D01*
G01*
X231862500Y-82275000D01*
G75*
G02*
X231625000Y-82037500I0J237500D01*
G01*
G37*
%TD*%
%TO.C,R57*%
G36*
G01*
X326375000Y-84462500D02*
X326375000Y-84937500D01*
G75*
G02*
X326137500Y-85175000I-237500J0D01*
G01*
X325637500Y-85175000D01*
G75*
G02*
X325400000Y-84937500I0J237500D01*
G01*
X325400000Y-84462500D01*
G75*
G02*
X325637500Y-84225000I237500J0D01*
G01*
X326137500Y-84225000D01*
G75*
G02*
X326375000Y-84462500I0J-237500D01*
G01*
G37*
G36*
G01*
X328200000Y-84462500D02*
X328200000Y-84937500D01*
G75*
G02*
X327962500Y-85175000I-237500J0D01*
G01*
X327462500Y-85175000D01*
G75*
G02*
X327225000Y-84937500I0J237500D01*
G01*
X327225000Y-84462500D01*
G75*
G02*
X327462500Y-84225000I237500J0D01*
G01*
X327962500Y-84225000D01*
G75*
G02*
X328200000Y-84462500I0J-237500D01*
G01*
G37*
%TD*%
%TO.C,R58*%
G36*
G01*
X136425000Y-63037500D02*
X136425000Y-62562500D01*
G75*
G02*
X136662500Y-62325000I237500J0D01*
G01*
X137162500Y-62325000D01*
G75*
G02*
X137400000Y-62562500I0J-237500D01*
G01*
X137400000Y-63037500D01*
G75*
G02*
X137162500Y-63275000I-237500J0D01*
G01*
X136662500Y-63275000D01*
G75*
G02*
X136425000Y-63037500I0J237500D01*
G01*
G37*
G36*
G01*
X134600000Y-63037500D02*
X134600000Y-62562500D01*
G75*
G02*
X134837500Y-62325000I237500J0D01*
G01*
X135337500Y-62325000D01*
G75*
G02*
X135575000Y-62562500I0J-237500D01*
G01*
X135575000Y-63037500D01*
G75*
G02*
X135337500Y-63275000I-237500J0D01*
G01*
X134837500Y-63275000D01*
G75*
G02*
X134600000Y-63037500I0J237500D01*
G01*
G37*
%TD*%
%TO.C,R59*%
G36*
G01*
X106000000Y-101137500D02*
X106000000Y-100662500D01*
G75*
G02*
X106237500Y-100425000I237500J0D01*
G01*
X106737500Y-100425000D01*
G75*
G02*
X106975000Y-100662500I0J-237500D01*
G01*
X106975000Y-101137500D01*
G75*
G02*
X106737500Y-101375000I-237500J0D01*
G01*
X106237500Y-101375000D01*
G75*
G02*
X106000000Y-101137500I0J237500D01*
G01*
G37*
G36*
G01*
X107825000Y-101137500D02*
X107825000Y-100662500D01*
G75*
G02*
X108062500Y-100425000I237500J0D01*
G01*
X108562500Y-100425000D01*
G75*
G02*
X108800000Y-100662500I0J-237500D01*
G01*
X108800000Y-101137500D01*
G75*
G02*
X108562500Y-101375000I-237500J0D01*
G01*
X108062500Y-101375000D01*
G75*
G02*
X107825000Y-101137500I0J237500D01*
G01*
G37*
%TD*%
%TO.C,R60*%
G36*
G01*
X79225000Y-82037500D02*
X79225000Y-81562500D01*
G75*
G02*
X79462500Y-81325000I237500J0D01*
G01*
X79962500Y-81325000D01*
G75*
G02*
X80200000Y-81562500I0J-237500D01*
G01*
X80200000Y-82037500D01*
G75*
G02*
X79962500Y-82275000I-237500J0D01*
G01*
X79462500Y-82275000D01*
G75*
G02*
X79225000Y-82037500I0J237500D01*
G01*
G37*
G36*
G01*
X77400000Y-82037500D02*
X77400000Y-81562500D01*
G75*
G02*
X77637500Y-81325000I237500J0D01*
G01*
X78137500Y-81325000D01*
G75*
G02*
X78375000Y-81562500I0J-237500D01*
G01*
X78375000Y-82037500D01*
G75*
G02*
X78137500Y-82275000I-237500J0D01*
G01*
X77637500Y-82275000D01*
G75*
G02*
X77400000Y-82037500I0J237500D01*
G01*
G37*
%TD*%
%TO.C,R61*%
G36*
G01*
X279325000Y-101137500D02*
X279325000Y-100662500D01*
G75*
G02*
X279562500Y-100425000I237500J0D01*
G01*
X280062500Y-100425000D01*
G75*
G02*
X280300000Y-100662500I0J-237500D01*
G01*
X280300000Y-101137500D01*
G75*
G02*
X280062500Y-101375000I-237500J0D01*
G01*
X279562500Y-101375000D01*
G75*
G02*
X279325000Y-101137500I0J237500D01*
G01*
G37*
G36*
G01*
X277500000Y-101137500D02*
X277500000Y-100662500D01*
G75*
G02*
X277737500Y-100425000I237500J0D01*
G01*
X278237500Y-100425000D01*
G75*
G02*
X278475000Y-100662500I0J-237500D01*
G01*
X278475000Y-101137500D01*
G75*
G02*
X278237500Y-101375000I-237500J0D01*
G01*
X277737500Y-101375000D01*
G75*
G02*
X277500000Y-101137500I0J237500D01*
G01*
G37*
%TD*%
%TO.C,R62*%
G36*
G01*
X98325000Y-82037500D02*
X98325000Y-81562500D01*
G75*
G02*
X98562500Y-81325000I237500J0D01*
G01*
X99062500Y-81325000D01*
G75*
G02*
X99300000Y-81562500I0J-237500D01*
G01*
X99300000Y-82037500D01*
G75*
G02*
X99062500Y-82275000I-237500J0D01*
G01*
X98562500Y-82275000D01*
G75*
G02*
X98325000Y-82037500I0J237500D01*
G01*
G37*
G36*
G01*
X96500000Y-82037500D02*
X96500000Y-81562500D01*
G75*
G02*
X96737500Y-81325000I237500J0D01*
G01*
X97237500Y-81325000D01*
G75*
G02*
X97475000Y-81562500I0J-237500D01*
G01*
X97475000Y-82037500D01*
G75*
G02*
X97237500Y-82275000I-237500J0D01*
G01*
X96737500Y-82275000D01*
G75*
G02*
X96500000Y-82037500I0J237500D01*
G01*
G37*
%TD*%
%TO.C,R63*%
G36*
G01*
X103600000Y-158237500D02*
X103600000Y-157762500D01*
G75*
G02*
X103837500Y-157525000I237500J0D01*
G01*
X104337500Y-157525000D01*
G75*
G02*
X104575000Y-157762500I0J-237500D01*
G01*
X104575000Y-158237500D01*
G75*
G02*
X104337500Y-158475000I-237500J0D01*
G01*
X103837500Y-158475000D01*
G75*
G02*
X103600000Y-158237500I0J237500D01*
G01*
G37*
G36*
G01*
X105425000Y-158237500D02*
X105425000Y-157762500D01*
G75*
G02*
X105662500Y-157525000I237500J0D01*
G01*
X106162500Y-157525000D01*
G75*
G02*
X106400000Y-157762500I0J-237500D01*
G01*
X106400000Y-158237500D01*
G75*
G02*
X106162500Y-158475000I-237500J0D01*
G01*
X105662500Y-158475000D01*
G75*
G02*
X105425000Y-158237500I0J237500D01*
G01*
G37*
%TD*%
%TO.C,R64*%
G36*
G01*
X296500000Y-101037500D02*
X296500000Y-100562500D01*
G75*
G02*
X296737500Y-100325000I237500J0D01*
G01*
X297237500Y-100325000D01*
G75*
G02*
X297475000Y-100562500I0J-237500D01*
G01*
X297475000Y-101037500D01*
G75*
G02*
X297237500Y-101275000I-237500J0D01*
G01*
X296737500Y-101275000D01*
G75*
G02*
X296500000Y-101037500I0J237500D01*
G01*
G37*
G36*
G01*
X298325000Y-101037500D02*
X298325000Y-100562500D01*
G75*
G02*
X298562500Y-100325000I237500J0D01*
G01*
X299062500Y-100325000D01*
G75*
G02*
X299300000Y-100562500I0J-237500D01*
G01*
X299300000Y-101037500D01*
G75*
G02*
X299062500Y-101275000I-237500J0D01*
G01*
X298562500Y-101275000D01*
G75*
G02*
X298325000Y-101037500I0J237500D01*
G01*
G37*
%TD*%
%TO.C,R65*%
G36*
G01*
X191700000Y-82037500D02*
X191700000Y-81562500D01*
G75*
G02*
X191937500Y-81325000I237500J0D01*
G01*
X192437500Y-81325000D01*
G75*
G02*
X192675000Y-81562500I0J-237500D01*
G01*
X192675000Y-82037500D01*
G75*
G02*
X192437500Y-82275000I-237500J0D01*
G01*
X191937500Y-82275000D01*
G75*
G02*
X191700000Y-82037500I0J237500D01*
G01*
G37*
G36*
G01*
X193525000Y-82037500D02*
X193525000Y-81562500D01*
G75*
G02*
X193762500Y-81325000I237500J0D01*
G01*
X194262500Y-81325000D01*
G75*
G02*
X194500000Y-81562500I0J-237500D01*
G01*
X194500000Y-82037500D01*
G75*
G02*
X194262500Y-82275000I-237500J0D01*
G01*
X193762500Y-82275000D01*
G75*
G02*
X193525000Y-82037500I0J237500D01*
G01*
G37*
%TD*%
%TO.C,R66*%
G36*
G01*
X220300000Y-101037500D02*
X220300000Y-100562500D01*
G75*
G02*
X220537500Y-100325000I237500J0D01*
G01*
X221037500Y-100325000D01*
G75*
G02*
X221275000Y-100562500I0J-237500D01*
G01*
X221275000Y-101037500D01*
G75*
G02*
X221037500Y-101275000I-237500J0D01*
G01*
X220537500Y-101275000D01*
G75*
G02*
X220300000Y-101037500I0J237500D01*
G01*
G37*
G36*
G01*
X222125000Y-101037500D02*
X222125000Y-100562500D01*
G75*
G02*
X222362500Y-100325000I237500J0D01*
G01*
X222862500Y-100325000D01*
G75*
G02*
X223100000Y-100562500I0J-237500D01*
G01*
X223100000Y-101037500D01*
G75*
G02*
X222862500Y-101275000I-237500J0D01*
G01*
X222362500Y-101275000D01*
G75*
G02*
X222125000Y-101037500I0J237500D01*
G01*
G37*
%TD*%
%TO.C,R67*%
G36*
G01*
X167900000Y-120137500D02*
X167900000Y-119662500D01*
G75*
G02*
X168137500Y-119425000I237500J0D01*
G01*
X168637500Y-119425000D01*
G75*
G02*
X168875000Y-119662500I0J-237500D01*
G01*
X168875000Y-120137500D01*
G75*
G02*
X168637500Y-120375000I-237500J0D01*
G01*
X168137500Y-120375000D01*
G75*
G02*
X167900000Y-120137500I0J237500D01*
G01*
G37*
G36*
G01*
X169725000Y-120137500D02*
X169725000Y-119662500D01*
G75*
G02*
X169962500Y-119425000I237500J0D01*
G01*
X170462500Y-119425000D01*
G75*
G02*
X170700000Y-119662500I0J-237500D01*
G01*
X170700000Y-120137500D01*
G75*
G02*
X170462500Y-120375000I-237500J0D01*
G01*
X169962500Y-120375000D01*
G75*
G02*
X169725000Y-120137500I0J237500D01*
G01*
G37*
%TD*%
%TO.C,R68*%
G36*
G01*
X174525000Y-139237500D02*
X174525000Y-138762500D01*
G75*
G02*
X174762500Y-138525000I237500J0D01*
G01*
X175262500Y-138525000D01*
G75*
G02*
X175500000Y-138762500I0J-237500D01*
G01*
X175500000Y-139237500D01*
G75*
G02*
X175262500Y-139475000I-237500J0D01*
G01*
X174762500Y-139475000D01*
G75*
G02*
X174525000Y-139237500I0J237500D01*
G01*
G37*
G36*
G01*
X172700000Y-139237500D02*
X172700000Y-138762500D01*
G75*
G02*
X172937500Y-138525000I237500J0D01*
G01*
X173437500Y-138525000D01*
G75*
G02*
X173675000Y-138762500I0J-237500D01*
G01*
X173675000Y-139237500D01*
G75*
G02*
X173437500Y-139475000I-237500J0D01*
G01*
X172937500Y-139475000D01*
G75*
G02*
X172700000Y-139237500I0J237500D01*
G01*
G37*
%TD*%
%TO.C,R69*%
G36*
G01*
X191700000Y-139237500D02*
X191700000Y-138762500D01*
G75*
G02*
X191937500Y-138525000I237500J0D01*
G01*
X192437500Y-138525000D01*
G75*
G02*
X192675000Y-138762500I0J-237500D01*
G01*
X192675000Y-139237500D01*
G75*
G02*
X192437500Y-139475000I-237500J0D01*
G01*
X191937500Y-139475000D01*
G75*
G02*
X191700000Y-139237500I0J237500D01*
G01*
G37*
G36*
G01*
X193525000Y-139237500D02*
X193525000Y-138762500D01*
G75*
G02*
X193762500Y-138525000I237500J0D01*
G01*
X194262500Y-138525000D01*
G75*
G02*
X194500000Y-138762500I0J-237500D01*
G01*
X194500000Y-139237500D01*
G75*
G02*
X194262500Y-139475000I-237500J0D01*
G01*
X193762500Y-139475000D01*
G75*
G02*
X193525000Y-139237500I0J237500D01*
G01*
G37*
%TD*%
%TO.C,R70*%
G36*
G01*
X117325000Y-139237500D02*
X117325000Y-138762500D01*
G75*
G02*
X117562500Y-138525000I237500J0D01*
G01*
X118062500Y-138525000D01*
G75*
G02*
X118300000Y-138762500I0J-237500D01*
G01*
X118300000Y-139237500D01*
G75*
G02*
X118062500Y-139475000I-237500J0D01*
G01*
X117562500Y-139475000D01*
G75*
G02*
X117325000Y-139237500I0J237500D01*
G01*
G37*
G36*
G01*
X115500000Y-139237500D02*
X115500000Y-138762500D01*
G75*
G02*
X115737500Y-138525000I237500J0D01*
G01*
X116237500Y-138525000D01*
G75*
G02*
X116475000Y-138762500I0J-237500D01*
G01*
X116475000Y-139237500D01*
G75*
G02*
X116237500Y-139475000I-237500J0D01*
G01*
X115737500Y-139475000D01*
G75*
G02*
X115500000Y-139237500I0J237500D01*
G01*
G37*
%TD*%
%TO.C,R71*%
G36*
G01*
X212625000Y-82037500D02*
X212625000Y-81562500D01*
G75*
G02*
X212862500Y-81325000I237500J0D01*
G01*
X213362500Y-81325000D01*
G75*
G02*
X213600000Y-81562500I0J-237500D01*
G01*
X213600000Y-82037500D01*
G75*
G02*
X213362500Y-82275000I-237500J0D01*
G01*
X212862500Y-82275000D01*
G75*
G02*
X212625000Y-82037500I0J237500D01*
G01*
G37*
G36*
G01*
X210800000Y-82037500D02*
X210800000Y-81562500D01*
G75*
G02*
X211037500Y-81325000I237500J0D01*
G01*
X211537500Y-81325000D01*
G75*
G02*
X211775000Y-81562500I0J-237500D01*
G01*
X211775000Y-82037500D01*
G75*
G02*
X211537500Y-82275000I-237500J0D01*
G01*
X211037500Y-82275000D01*
G75*
G02*
X210800000Y-82037500I0J237500D01*
G01*
G37*
%TD*%
%TO.C,R72*%
G36*
G01*
X136425000Y-82037500D02*
X136425000Y-81562500D01*
G75*
G02*
X136662500Y-81325000I237500J0D01*
G01*
X137162500Y-81325000D01*
G75*
G02*
X137400000Y-81562500I0J-237500D01*
G01*
X137400000Y-82037500D01*
G75*
G02*
X137162500Y-82275000I-237500J0D01*
G01*
X136662500Y-82275000D01*
G75*
G02*
X136425000Y-82037500I0J237500D01*
G01*
G37*
G36*
G01*
X134600000Y-82037500D02*
X134600000Y-81562500D01*
G75*
G02*
X134837500Y-81325000I237500J0D01*
G01*
X135337500Y-81325000D01*
G75*
G02*
X135575000Y-81562500I0J-237500D01*
G01*
X135575000Y-82037500D01*
G75*
G02*
X135337500Y-82275000I-237500J0D01*
G01*
X134837500Y-82275000D01*
G75*
G02*
X134600000Y-82037500I0J237500D01*
G01*
G37*
%TD*%
%TO.C,R73*%
G36*
G01*
X163200000Y-101137500D02*
X163200000Y-100662500D01*
G75*
G02*
X163437500Y-100425000I237500J0D01*
G01*
X163937500Y-100425000D01*
G75*
G02*
X164175000Y-100662500I0J-237500D01*
G01*
X164175000Y-101137500D01*
G75*
G02*
X163937500Y-101375000I-237500J0D01*
G01*
X163437500Y-101375000D01*
G75*
G02*
X163200000Y-101137500I0J237500D01*
G01*
G37*
G36*
G01*
X165025000Y-101137500D02*
X165025000Y-100662500D01*
G75*
G02*
X165262500Y-100425000I237500J0D01*
G01*
X165762500Y-100425000D01*
G75*
G02*
X166000000Y-100662500I0J-237500D01*
G01*
X166000000Y-101137500D01*
G75*
G02*
X165762500Y-101375000I-237500J0D01*
G01*
X165262500Y-101375000D01*
G75*
G02*
X165025000Y-101137500I0J237500D01*
G01*
G37*
%TD*%
%TO.C,R74*%
G36*
G01*
X241225000Y-101137500D02*
X241225000Y-100662500D01*
G75*
G02*
X241462500Y-100425000I237500J0D01*
G01*
X241962500Y-100425000D01*
G75*
G02*
X242200000Y-100662500I0J-237500D01*
G01*
X242200000Y-101137500D01*
G75*
G02*
X241962500Y-101375000I-237500J0D01*
G01*
X241462500Y-101375000D01*
G75*
G02*
X241225000Y-101137500I0J237500D01*
G01*
G37*
G36*
G01*
X239400000Y-101137500D02*
X239400000Y-100662500D01*
G75*
G02*
X239637500Y-100425000I237500J0D01*
G01*
X240137500Y-100425000D01*
G75*
G02*
X240375000Y-100662500I0J-237500D01*
G01*
X240375000Y-101137500D01*
G75*
G02*
X240137500Y-101375000I-237500J0D01*
G01*
X239637500Y-101375000D01*
G75*
G02*
X239400000Y-101137500I0J237500D01*
G01*
G37*
%TD*%
%TO.C,R75*%
G36*
G01*
X65500000Y-120137500D02*
X65500000Y-119662500D01*
G75*
G02*
X65737500Y-119425000I237500J0D01*
G01*
X66237500Y-119425000D01*
G75*
G02*
X66475000Y-119662500I0J-237500D01*
G01*
X66475000Y-120137500D01*
G75*
G02*
X66237500Y-120375000I-237500J0D01*
G01*
X65737500Y-120375000D01*
G75*
G02*
X65500000Y-120137500I0J237500D01*
G01*
G37*
G36*
G01*
X67325000Y-120137500D02*
X67325000Y-119662500D01*
G75*
G02*
X67562500Y-119425000I237500J0D01*
G01*
X68062500Y-119425000D01*
G75*
G02*
X68300000Y-119662500I0J-237500D01*
G01*
X68300000Y-120137500D01*
G75*
G02*
X68062500Y-120375000I-237500J0D01*
G01*
X67562500Y-120375000D01*
G75*
G02*
X67325000Y-120137500I0J237500D01*
G01*
G37*
%TD*%
%TO.C,R76*%
G36*
G01*
X82200000Y-158292501D02*
X82200000Y-157817501D01*
G75*
G02*
X82437500Y-157580001I237500J0D01*
G01*
X82937500Y-157580001D01*
G75*
G02*
X83175000Y-157817501I0J-237500D01*
G01*
X83175000Y-158292501D01*
G75*
G02*
X82937500Y-158530001I-237500J0D01*
G01*
X82437500Y-158530001D01*
G75*
G02*
X82200000Y-158292501I0J237500D01*
G01*
G37*
G36*
G01*
X84025000Y-158292501D02*
X84025000Y-157817501D01*
G75*
G02*
X84262500Y-157580001I237500J0D01*
G01*
X84762500Y-157580001D01*
G75*
G02*
X85000000Y-157817501I0J-237500D01*
G01*
X85000000Y-158292501D01*
G75*
G02*
X84762500Y-158530001I-237500J0D01*
G01*
X84262500Y-158530001D01*
G75*
G02*
X84025000Y-158292501I0J237500D01*
G01*
G37*
%TD*%
%TO.C,R77*%
G36*
G01*
X153600000Y-139137500D02*
X153600000Y-138662500D01*
G75*
G02*
X153837500Y-138425000I237500J0D01*
G01*
X154337500Y-138425000D01*
G75*
G02*
X154575000Y-138662500I0J-237500D01*
G01*
X154575000Y-139137500D01*
G75*
G02*
X154337500Y-139375000I-237500J0D01*
G01*
X153837500Y-139375000D01*
G75*
G02*
X153600000Y-139137500I0J237500D01*
G01*
G37*
G36*
G01*
X155425000Y-139137500D02*
X155425000Y-138662500D01*
G75*
G02*
X155662500Y-138425000I237500J0D01*
G01*
X156162500Y-138425000D01*
G75*
G02*
X156400000Y-138662500I0J-237500D01*
G01*
X156400000Y-139137500D01*
G75*
G02*
X156162500Y-139375000I-237500J0D01*
G01*
X155662500Y-139375000D01*
G75*
G02*
X155425000Y-139137500I0J237500D01*
G01*
G37*
%TD*%
%TO.C,R78*%
G36*
G01*
X203125000Y-101137500D02*
X203125000Y-100662500D01*
G75*
G02*
X203362500Y-100425000I237500J0D01*
G01*
X203862500Y-100425000D01*
G75*
G02*
X204100000Y-100662500I0J-237500D01*
G01*
X204100000Y-101137500D01*
G75*
G02*
X203862500Y-101375000I-237500J0D01*
G01*
X203362500Y-101375000D01*
G75*
G02*
X203125000Y-101137500I0J237500D01*
G01*
G37*
G36*
G01*
X201300000Y-101137500D02*
X201300000Y-100662500D01*
G75*
G02*
X201537500Y-100425000I237500J0D01*
G01*
X202037500Y-100425000D01*
G75*
G02*
X202275000Y-100662500I0J-237500D01*
G01*
X202275000Y-101137500D01*
G75*
G02*
X202037500Y-101375000I-237500J0D01*
G01*
X201537500Y-101375000D01*
G75*
G02*
X201300000Y-101137500I0J237500D01*
G01*
G37*
%TD*%
%TO.C,R79*%
G36*
G01*
X91700000Y-120137500D02*
X91700000Y-119662500D01*
G75*
G02*
X91937500Y-119425000I237500J0D01*
G01*
X92437500Y-119425000D01*
G75*
G02*
X92675000Y-119662500I0J-237500D01*
G01*
X92675000Y-120137500D01*
G75*
G02*
X92437500Y-120375000I-237500J0D01*
G01*
X91937500Y-120375000D01*
G75*
G02*
X91700000Y-120137500I0J237500D01*
G01*
G37*
G36*
G01*
X93525000Y-120137500D02*
X93525000Y-119662500D01*
G75*
G02*
X93762500Y-119425000I237500J0D01*
G01*
X94262500Y-119425000D01*
G75*
G02*
X94500000Y-119662500I0J-237500D01*
G01*
X94500000Y-120137500D01*
G75*
G02*
X94262500Y-120375000I-237500J0D01*
G01*
X93762500Y-120375000D01*
G75*
G02*
X93525000Y-120137500I0J237500D01*
G01*
G37*
%TD*%
%TO.C,R80*%
G36*
G01*
X345925000Y-101137500D02*
X345925000Y-100662500D01*
G75*
G02*
X346162500Y-100425000I237500J0D01*
G01*
X346662500Y-100425000D01*
G75*
G02*
X346900000Y-100662500I0J-237500D01*
G01*
X346900000Y-101137500D01*
G75*
G02*
X346662500Y-101375000I-237500J0D01*
G01*
X346162500Y-101375000D01*
G75*
G02*
X345925000Y-101137500I0J237500D01*
G01*
G37*
G36*
G01*
X344100000Y-101137500D02*
X344100000Y-100662500D01*
G75*
G02*
X344337500Y-100425000I237500J0D01*
G01*
X344837500Y-100425000D01*
G75*
G02*
X345075000Y-100662500I0J-237500D01*
G01*
X345075000Y-101137500D01*
G75*
G02*
X344837500Y-101375000I-237500J0D01*
G01*
X344337500Y-101375000D01*
G75*
G02*
X344100000Y-101137500I0J237500D01*
G01*
G37*
%TD*%
%TO.C,R81*%
G36*
G01*
X125100000Y-101137500D02*
X125100000Y-100662500D01*
G75*
G02*
X125337500Y-100425000I237500J0D01*
G01*
X125837500Y-100425000D01*
G75*
G02*
X126075000Y-100662500I0J-237500D01*
G01*
X126075000Y-101137500D01*
G75*
G02*
X125837500Y-101375000I-237500J0D01*
G01*
X125337500Y-101375000D01*
G75*
G02*
X125100000Y-101137500I0J237500D01*
G01*
G37*
G36*
G01*
X126925000Y-101137500D02*
X126925000Y-100662500D01*
G75*
G02*
X127162500Y-100425000I237500J0D01*
G01*
X127662500Y-100425000D01*
G75*
G02*
X127900000Y-100662500I0J-237500D01*
G01*
X127900000Y-101137500D01*
G75*
G02*
X127662500Y-101375000I-237500J0D01*
G01*
X127162500Y-101375000D01*
G75*
G02*
X126925000Y-101137500I0J237500D01*
G01*
G37*
%TD*%
%TO.C,R82*%
G36*
G01*
X69725000Y-139237500D02*
X69725000Y-138762500D01*
G75*
G02*
X69962500Y-138525000I237500J0D01*
G01*
X70462500Y-138525000D01*
G75*
G02*
X70700000Y-138762500I0J-237500D01*
G01*
X70700000Y-139237500D01*
G75*
G02*
X70462500Y-139475000I-237500J0D01*
G01*
X69962500Y-139475000D01*
G75*
G02*
X69725000Y-139237500I0J237500D01*
G01*
G37*
G36*
G01*
X67900000Y-139237500D02*
X67900000Y-138762500D01*
G75*
G02*
X68137500Y-138525000I237500J0D01*
G01*
X68637500Y-138525000D01*
G75*
G02*
X68875000Y-138762500I0J-237500D01*
G01*
X68875000Y-139237500D01*
G75*
G02*
X68637500Y-139475000I-237500J0D01*
G01*
X68137500Y-139475000D01*
G75*
G02*
X67900000Y-139237500I0J237500D01*
G01*
G37*
%TD*%
%TO.C,R83*%
G36*
G01*
X287000000Y-139237500D02*
X287000000Y-138762500D01*
G75*
G02*
X287237500Y-138525000I237500J0D01*
G01*
X287737500Y-138525000D01*
G75*
G02*
X287975000Y-138762500I0J-237500D01*
G01*
X287975000Y-139237500D01*
G75*
G02*
X287737500Y-139475000I-237500J0D01*
G01*
X287237500Y-139475000D01*
G75*
G02*
X287000000Y-139237500I0J237500D01*
G01*
G37*
G36*
G01*
X288825000Y-139237500D02*
X288825000Y-138762500D01*
G75*
G02*
X289062500Y-138525000I237500J0D01*
G01*
X289562500Y-138525000D01*
G75*
G02*
X289800000Y-138762500I0J-237500D01*
G01*
X289800000Y-139237500D01*
G75*
G02*
X289562500Y-139475000I-237500J0D01*
G01*
X289062500Y-139475000D01*
G75*
G02*
X288825000Y-139237500I0J237500D01*
G01*
G37*
%TD*%
%TO.C,R84*%
G36*
G01*
X150725000Y-120137500D02*
X150725000Y-119662500D01*
G75*
G02*
X150962500Y-119425000I237500J0D01*
G01*
X151462500Y-119425000D01*
G75*
G02*
X151700000Y-119662500I0J-237500D01*
G01*
X151700000Y-120137500D01*
G75*
G02*
X151462500Y-120375000I-237500J0D01*
G01*
X150962500Y-120375000D01*
G75*
G02*
X150725000Y-120137500I0J237500D01*
G01*
G37*
G36*
G01*
X148900000Y-120137500D02*
X148900000Y-119662500D01*
G75*
G02*
X149137500Y-119425000I237500J0D01*
G01*
X149637500Y-119425000D01*
G75*
G02*
X149875000Y-119662500I0J-237500D01*
G01*
X149875000Y-120137500D01*
G75*
G02*
X149637500Y-120375000I-237500J0D01*
G01*
X149137500Y-120375000D01*
G75*
G02*
X148900000Y-120137500I0J237500D01*
G01*
G37*
%TD*%
%TO.C,R85*%
G36*
G01*
X325100000Y-139237500D02*
X325100000Y-138762500D01*
G75*
G02*
X325337500Y-138525000I237500J0D01*
G01*
X325837500Y-138525000D01*
G75*
G02*
X326075000Y-138762500I0J-237500D01*
G01*
X326075000Y-139237500D01*
G75*
G02*
X325837500Y-139475000I-237500J0D01*
G01*
X325337500Y-139475000D01*
G75*
G02*
X325100000Y-139237500I0J237500D01*
G01*
G37*
G36*
G01*
X326925000Y-139237500D02*
X326925000Y-138762500D01*
G75*
G02*
X327162500Y-138525000I237500J0D01*
G01*
X327662500Y-138525000D01*
G75*
G02*
X327900000Y-138762500I0J-237500D01*
G01*
X327900000Y-139237500D01*
G75*
G02*
X327662500Y-139475000I-237500J0D01*
G01*
X327162500Y-139475000D01*
G75*
G02*
X326925000Y-139237500I0J237500D01*
G01*
G37*
%TD*%
%TO.C,R86*%
G36*
G01*
X115500000Y-63037500D02*
X115500000Y-62562500D01*
G75*
G02*
X115737500Y-62325000I237500J0D01*
G01*
X116237500Y-62325000D01*
G75*
G02*
X116475000Y-62562500I0J-237500D01*
G01*
X116475000Y-63037500D01*
G75*
G02*
X116237500Y-63275000I-237500J0D01*
G01*
X115737500Y-63275000D01*
G75*
G02*
X115500000Y-63037500I0J237500D01*
G01*
G37*
G36*
G01*
X117325000Y-63037500D02*
X117325000Y-62562500D01*
G75*
G02*
X117562500Y-62325000I237500J0D01*
G01*
X118062500Y-62325000D01*
G75*
G02*
X118300000Y-62562500I0J-237500D01*
G01*
X118300000Y-63037500D01*
G75*
G02*
X118062500Y-63275000I-237500J0D01*
G01*
X117562500Y-63275000D01*
G75*
G02*
X117325000Y-63037500I0J237500D01*
G01*
G37*
%TD*%
%TO.C,R87*%
G36*
G01*
X58400000Y-82037500D02*
X58400000Y-81562500D01*
G75*
G02*
X58637500Y-81325000I237500J0D01*
G01*
X59137500Y-81325000D01*
G75*
G02*
X59375000Y-81562500I0J-237500D01*
G01*
X59375000Y-82037500D01*
G75*
G02*
X59137500Y-82275000I-237500J0D01*
G01*
X58637500Y-82275000D01*
G75*
G02*
X58400000Y-82037500I0J237500D01*
G01*
G37*
G36*
G01*
X60225000Y-82037500D02*
X60225000Y-81562500D01*
G75*
G02*
X60462500Y-81325000I237500J0D01*
G01*
X60962500Y-81325000D01*
G75*
G02*
X61200000Y-81562500I0J-237500D01*
G01*
X61200000Y-82037500D01*
G75*
G02*
X60962500Y-82275000I-237500J0D01*
G01*
X60462500Y-82275000D01*
G75*
G02*
X60225000Y-82037500I0J237500D01*
G01*
G37*
%TD*%
%TO.C,R88*%
G36*
G01*
X60225000Y-62987500D02*
X60225000Y-62512500D01*
G75*
G02*
X60462500Y-62275000I237500J0D01*
G01*
X60962500Y-62275000D01*
G75*
G02*
X61200000Y-62512500I0J-237500D01*
G01*
X61200000Y-62987500D01*
G75*
G02*
X60962500Y-63225000I-237500J0D01*
G01*
X60462500Y-63225000D01*
G75*
G02*
X60225000Y-62987500I0J237500D01*
G01*
G37*
G36*
G01*
X58400000Y-62987500D02*
X58400000Y-62512500D01*
G75*
G02*
X58637500Y-62275000I237500J0D01*
G01*
X59137500Y-62275000D01*
G75*
G02*
X59375000Y-62512500I0J-237500D01*
G01*
X59375000Y-62987500D01*
G75*
G02*
X59137500Y-63225000I-237500J0D01*
G01*
X58637500Y-63225000D01*
G75*
G02*
X58400000Y-62987500I0J237500D01*
G01*
G37*
%TD*%
%TO.C,R89*%
G36*
G01*
X306000000Y-139237500D02*
X306000000Y-138762500D01*
G75*
G02*
X306237500Y-138525000I237500J0D01*
G01*
X306737500Y-138525000D01*
G75*
G02*
X306975000Y-138762500I0J-237500D01*
G01*
X306975000Y-139237500D01*
G75*
G02*
X306737500Y-139475000I-237500J0D01*
G01*
X306237500Y-139475000D01*
G75*
G02*
X306000000Y-139237500I0J237500D01*
G01*
G37*
G36*
G01*
X307825000Y-139237500D02*
X307825000Y-138762500D01*
G75*
G02*
X308062500Y-138525000I237500J0D01*
G01*
X308562500Y-138525000D01*
G75*
G02*
X308800000Y-138762500I0J-237500D01*
G01*
X308800000Y-139237500D01*
G75*
G02*
X308562500Y-139475000I-237500J0D01*
G01*
X308062500Y-139475000D01*
G75*
G02*
X307825000Y-139237500I0J237500D01*
G01*
G37*
%TD*%
%TO.C,U2*%
G36*
G01*
X323625000Y-75900000D02*
X323475000Y-75900000D01*
G75*
G02*
X323400000Y-75825000I0J75000D01*
G01*
X323400000Y-74500000D01*
G75*
G02*
X323475000Y-74425000I75000J0D01*
G01*
X323625000Y-74425000D01*
G75*
G02*
X323700000Y-74500000I0J-75000D01*
G01*
X323700000Y-75825000D01*
G75*
G02*
X323625000Y-75900000I-75000J0D01*
G01*
G37*
G36*
G01*
X323125000Y-75900000D02*
X322975000Y-75900000D01*
G75*
G02*
X322900000Y-75825000I0J75000D01*
G01*
X322900000Y-74500000D01*
G75*
G02*
X322975000Y-74425000I75000J0D01*
G01*
X323125000Y-74425000D01*
G75*
G02*
X323200000Y-74500000I0J-75000D01*
G01*
X323200000Y-75825000D01*
G75*
G02*
X323125000Y-75900000I-75000J0D01*
G01*
G37*
G36*
G01*
X322625000Y-75900000D02*
X322475000Y-75900000D01*
G75*
G02*
X322400000Y-75825000I0J75000D01*
G01*
X322400000Y-74500000D01*
G75*
G02*
X322475000Y-74425000I75000J0D01*
G01*
X322625000Y-74425000D01*
G75*
G02*
X322700000Y-74500000I0J-75000D01*
G01*
X322700000Y-75825000D01*
G75*
G02*
X322625000Y-75900000I-75000J0D01*
G01*
G37*
G36*
G01*
X322125000Y-75900000D02*
X321975000Y-75900000D01*
G75*
G02*
X321900000Y-75825000I0J75000D01*
G01*
X321900000Y-74500000D01*
G75*
G02*
X321975000Y-74425000I75000J0D01*
G01*
X322125000Y-74425000D01*
G75*
G02*
X322200000Y-74500000I0J-75000D01*
G01*
X322200000Y-75825000D01*
G75*
G02*
X322125000Y-75900000I-75000J0D01*
G01*
G37*
G36*
G01*
X321625000Y-75900000D02*
X321475000Y-75900000D01*
G75*
G02*
X321400000Y-75825000I0J75000D01*
G01*
X321400000Y-74500000D01*
G75*
G02*
X321475000Y-74425000I75000J0D01*
G01*
X321625000Y-74425000D01*
G75*
G02*
X321700000Y-74500000I0J-75000D01*
G01*
X321700000Y-75825000D01*
G75*
G02*
X321625000Y-75900000I-75000J0D01*
G01*
G37*
G36*
G01*
X321125000Y-75900000D02*
X320975000Y-75900000D01*
G75*
G02*
X320900000Y-75825000I0J75000D01*
G01*
X320900000Y-74500000D01*
G75*
G02*
X320975000Y-74425000I75000J0D01*
G01*
X321125000Y-74425000D01*
G75*
G02*
X321200000Y-74500000I0J-75000D01*
G01*
X321200000Y-75825000D01*
G75*
G02*
X321125000Y-75900000I-75000J0D01*
G01*
G37*
G36*
G01*
X320625000Y-75900000D02*
X320475000Y-75900000D01*
G75*
G02*
X320400000Y-75825000I0J75000D01*
G01*
X320400000Y-74500000D01*
G75*
G02*
X320475000Y-74425000I75000J0D01*
G01*
X320625000Y-74425000D01*
G75*
G02*
X320700000Y-74500000I0J-75000D01*
G01*
X320700000Y-75825000D01*
G75*
G02*
X320625000Y-75900000I-75000J0D01*
G01*
G37*
G36*
G01*
X320125000Y-75900000D02*
X319975000Y-75900000D01*
G75*
G02*
X319900000Y-75825000I0J75000D01*
G01*
X319900000Y-74500000D01*
G75*
G02*
X319975000Y-74425000I75000J0D01*
G01*
X320125000Y-74425000D01*
G75*
G02*
X320200000Y-74500000I0J-75000D01*
G01*
X320200000Y-75825000D01*
G75*
G02*
X320125000Y-75900000I-75000J0D01*
G01*
G37*
G36*
G01*
X319625000Y-75900000D02*
X319475000Y-75900000D01*
G75*
G02*
X319400000Y-75825000I0J75000D01*
G01*
X319400000Y-74500000D01*
G75*
G02*
X319475000Y-74425000I75000J0D01*
G01*
X319625000Y-74425000D01*
G75*
G02*
X319700000Y-74500000I0J-75000D01*
G01*
X319700000Y-75825000D01*
G75*
G02*
X319625000Y-75900000I-75000J0D01*
G01*
G37*
G36*
G01*
X319125000Y-75900000D02*
X318975000Y-75900000D01*
G75*
G02*
X318900000Y-75825000I0J75000D01*
G01*
X318900000Y-74500000D01*
G75*
G02*
X318975000Y-74425000I75000J0D01*
G01*
X319125000Y-74425000D01*
G75*
G02*
X319200000Y-74500000I0J-75000D01*
G01*
X319200000Y-75825000D01*
G75*
G02*
X319125000Y-75900000I-75000J0D01*
G01*
G37*
G36*
G01*
X318625000Y-75900000D02*
X318475000Y-75900000D01*
G75*
G02*
X318400000Y-75825000I0J75000D01*
G01*
X318400000Y-74500000D01*
G75*
G02*
X318475000Y-74425000I75000J0D01*
G01*
X318625000Y-74425000D01*
G75*
G02*
X318700000Y-74500000I0J-75000D01*
G01*
X318700000Y-75825000D01*
G75*
G02*
X318625000Y-75900000I-75000J0D01*
G01*
G37*
G36*
G01*
X318125000Y-75900000D02*
X317975000Y-75900000D01*
G75*
G02*
X317900000Y-75825000I0J75000D01*
G01*
X317900000Y-74500000D01*
G75*
G02*
X317975000Y-74425000I75000J0D01*
G01*
X318125000Y-74425000D01*
G75*
G02*
X318200000Y-74500000I0J-75000D01*
G01*
X318200000Y-75825000D01*
G75*
G02*
X318125000Y-75900000I-75000J0D01*
G01*
G37*
G36*
G01*
X317300000Y-73900000D02*
X315975000Y-73900000D01*
G75*
G02*
X315900000Y-73825000I0J75000D01*
G01*
X315900000Y-73675000D01*
G75*
G02*
X315975000Y-73600000I75000J0D01*
G01*
X317300000Y-73600000D01*
G75*
G02*
X317375000Y-73675000I0J-75000D01*
G01*
X317375000Y-73825000D01*
G75*
G02*
X317300000Y-73900000I-75000J0D01*
G01*
G37*
G36*
G01*
X317300000Y-73400000D02*
X315975000Y-73400000D01*
G75*
G02*
X315900000Y-73325000I0J75000D01*
G01*
X315900000Y-73175000D01*
G75*
G02*
X315975000Y-73100000I75000J0D01*
G01*
X317300000Y-73100000D01*
G75*
G02*
X317375000Y-73175000I0J-75000D01*
G01*
X317375000Y-73325000D01*
G75*
G02*
X317300000Y-73400000I-75000J0D01*
G01*
G37*
G36*
G01*
X317300000Y-72900000D02*
X315975000Y-72900000D01*
G75*
G02*
X315900000Y-72825000I0J75000D01*
G01*
X315900000Y-72675000D01*
G75*
G02*
X315975000Y-72600000I75000J0D01*
G01*
X317300000Y-72600000D01*
G75*
G02*
X317375000Y-72675000I0J-75000D01*
G01*
X317375000Y-72825000D01*
G75*
G02*
X317300000Y-72900000I-75000J0D01*
G01*
G37*
G36*
G01*
X317300000Y-72400000D02*
X315975000Y-72400000D01*
G75*
G02*
X315900000Y-72325000I0J75000D01*
G01*
X315900000Y-72175000D01*
G75*
G02*
X315975000Y-72100000I75000J0D01*
G01*
X317300000Y-72100000D01*
G75*
G02*
X317375000Y-72175000I0J-75000D01*
G01*
X317375000Y-72325000D01*
G75*
G02*
X317300000Y-72400000I-75000J0D01*
G01*
G37*
G36*
G01*
X317300000Y-71900000D02*
X315975000Y-71900000D01*
G75*
G02*
X315900000Y-71825000I0J75000D01*
G01*
X315900000Y-71675000D01*
G75*
G02*
X315975000Y-71600000I75000J0D01*
G01*
X317300000Y-71600000D01*
G75*
G02*
X317375000Y-71675000I0J-75000D01*
G01*
X317375000Y-71825000D01*
G75*
G02*
X317300000Y-71900000I-75000J0D01*
G01*
G37*
G36*
G01*
X317300000Y-71400000D02*
X315975000Y-71400000D01*
G75*
G02*
X315900000Y-71325000I0J75000D01*
G01*
X315900000Y-71175000D01*
G75*
G02*
X315975000Y-71100000I75000J0D01*
G01*
X317300000Y-71100000D01*
G75*
G02*
X317375000Y-71175000I0J-75000D01*
G01*
X317375000Y-71325000D01*
G75*
G02*
X317300000Y-71400000I-75000J0D01*
G01*
G37*
G36*
G01*
X317300000Y-70900000D02*
X315975000Y-70900000D01*
G75*
G02*
X315900000Y-70825000I0J75000D01*
G01*
X315900000Y-70675000D01*
G75*
G02*
X315975000Y-70600000I75000J0D01*
G01*
X317300000Y-70600000D01*
G75*
G02*
X317375000Y-70675000I0J-75000D01*
G01*
X317375000Y-70825000D01*
G75*
G02*
X317300000Y-70900000I-75000J0D01*
G01*
G37*
G36*
G01*
X317300000Y-70400000D02*
X315975000Y-70400000D01*
G75*
G02*
X315900000Y-70325000I0J75000D01*
G01*
X315900000Y-70175000D01*
G75*
G02*
X315975000Y-70100000I75000J0D01*
G01*
X317300000Y-70100000D01*
G75*
G02*
X317375000Y-70175000I0J-75000D01*
G01*
X317375000Y-70325000D01*
G75*
G02*
X317300000Y-70400000I-75000J0D01*
G01*
G37*
G36*
G01*
X317300000Y-69900000D02*
X315975000Y-69900000D01*
G75*
G02*
X315900000Y-69825000I0J75000D01*
G01*
X315900000Y-69675000D01*
G75*
G02*
X315975000Y-69600000I75000J0D01*
G01*
X317300000Y-69600000D01*
G75*
G02*
X317375000Y-69675000I0J-75000D01*
G01*
X317375000Y-69825000D01*
G75*
G02*
X317300000Y-69900000I-75000J0D01*
G01*
G37*
G36*
G01*
X317300000Y-69400000D02*
X315975000Y-69400000D01*
G75*
G02*
X315900000Y-69325000I0J75000D01*
G01*
X315900000Y-69175000D01*
G75*
G02*
X315975000Y-69100000I75000J0D01*
G01*
X317300000Y-69100000D01*
G75*
G02*
X317375000Y-69175000I0J-75000D01*
G01*
X317375000Y-69325000D01*
G75*
G02*
X317300000Y-69400000I-75000J0D01*
G01*
G37*
G36*
G01*
X317300000Y-68900000D02*
X315975000Y-68900000D01*
G75*
G02*
X315900000Y-68825000I0J75000D01*
G01*
X315900000Y-68675000D01*
G75*
G02*
X315975000Y-68600000I75000J0D01*
G01*
X317300000Y-68600000D01*
G75*
G02*
X317375000Y-68675000I0J-75000D01*
G01*
X317375000Y-68825000D01*
G75*
G02*
X317300000Y-68900000I-75000J0D01*
G01*
G37*
G36*
G01*
X317300000Y-68400000D02*
X315975000Y-68400000D01*
G75*
G02*
X315900000Y-68325000I0J75000D01*
G01*
X315900000Y-68175000D01*
G75*
G02*
X315975000Y-68100000I75000J0D01*
G01*
X317300000Y-68100000D01*
G75*
G02*
X317375000Y-68175000I0J-75000D01*
G01*
X317375000Y-68325000D01*
G75*
G02*
X317300000Y-68400000I-75000J0D01*
G01*
G37*
G36*
G01*
X318125000Y-67575000D02*
X317975000Y-67575000D01*
G75*
G02*
X317900000Y-67500000I0J75000D01*
G01*
X317900000Y-66175000D01*
G75*
G02*
X317975000Y-66100000I75000J0D01*
G01*
X318125000Y-66100000D01*
G75*
G02*
X318200000Y-66175000I0J-75000D01*
G01*
X318200000Y-67500000D01*
G75*
G02*
X318125000Y-67575000I-75000J0D01*
G01*
G37*
G36*
G01*
X318625000Y-67575000D02*
X318475000Y-67575000D01*
G75*
G02*
X318400000Y-67500000I0J75000D01*
G01*
X318400000Y-66175000D01*
G75*
G02*
X318475000Y-66100000I75000J0D01*
G01*
X318625000Y-66100000D01*
G75*
G02*
X318700000Y-66175000I0J-75000D01*
G01*
X318700000Y-67500000D01*
G75*
G02*
X318625000Y-67575000I-75000J0D01*
G01*
G37*
G36*
G01*
X319125000Y-67575000D02*
X318975000Y-67575000D01*
G75*
G02*
X318900000Y-67500000I0J75000D01*
G01*
X318900000Y-66175000D01*
G75*
G02*
X318975000Y-66100000I75000J0D01*
G01*
X319125000Y-66100000D01*
G75*
G02*
X319200000Y-66175000I0J-75000D01*
G01*
X319200000Y-67500000D01*
G75*
G02*
X319125000Y-67575000I-75000J0D01*
G01*
G37*
G36*
G01*
X319625000Y-67575000D02*
X319475000Y-67575000D01*
G75*
G02*
X319400000Y-67500000I0J75000D01*
G01*
X319400000Y-66175000D01*
G75*
G02*
X319475000Y-66100000I75000J0D01*
G01*
X319625000Y-66100000D01*
G75*
G02*
X319700000Y-66175000I0J-75000D01*
G01*
X319700000Y-67500000D01*
G75*
G02*
X319625000Y-67575000I-75000J0D01*
G01*
G37*
G36*
G01*
X320125000Y-67575000D02*
X319975000Y-67575000D01*
G75*
G02*
X319900000Y-67500000I0J75000D01*
G01*
X319900000Y-66175000D01*
G75*
G02*
X319975000Y-66100000I75000J0D01*
G01*
X320125000Y-66100000D01*
G75*
G02*
X320200000Y-66175000I0J-75000D01*
G01*
X320200000Y-67500000D01*
G75*
G02*
X320125000Y-67575000I-75000J0D01*
G01*
G37*
G36*
G01*
X320625000Y-67575000D02*
X320475000Y-67575000D01*
G75*
G02*
X320400000Y-67500000I0J75000D01*
G01*
X320400000Y-66175000D01*
G75*
G02*
X320475000Y-66100000I75000J0D01*
G01*
X320625000Y-66100000D01*
G75*
G02*
X320700000Y-66175000I0J-75000D01*
G01*
X320700000Y-67500000D01*
G75*
G02*
X320625000Y-67575000I-75000J0D01*
G01*
G37*
G36*
G01*
X321125000Y-67575000D02*
X320975000Y-67575000D01*
G75*
G02*
X320900000Y-67500000I0J75000D01*
G01*
X320900000Y-66175000D01*
G75*
G02*
X320975000Y-66100000I75000J0D01*
G01*
X321125000Y-66100000D01*
G75*
G02*
X321200000Y-66175000I0J-75000D01*
G01*
X321200000Y-67500000D01*
G75*
G02*
X321125000Y-67575000I-75000J0D01*
G01*
G37*
G36*
G01*
X321625000Y-67575000D02*
X321475000Y-67575000D01*
G75*
G02*
X321400000Y-67500000I0J75000D01*
G01*
X321400000Y-66175000D01*
G75*
G02*
X321475000Y-66100000I75000J0D01*
G01*
X321625000Y-66100000D01*
G75*
G02*
X321700000Y-66175000I0J-75000D01*
G01*
X321700000Y-67500000D01*
G75*
G02*
X321625000Y-67575000I-75000J0D01*
G01*
G37*
G36*
G01*
X322125000Y-67575000D02*
X321975000Y-67575000D01*
G75*
G02*
X321900000Y-67500000I0J75000D01*
G01*
X321900000Y-66175000D01*
G75*
G02*
X321975000Y-66100000I75000J0D01*
G01*
X322125000Y-66100000D01*
G75*
G02*
X322200000Y-66175000I0J-75000D01*
G01*
X322200000Y-67500000D01*
G75*
G02*
X322125000Y-67575000I-75000J0D01*
G01*
G37*
G36*
G01*
X322625000Y-67575000D02*
X322475000Y-67575000D01*
G75*
G02*
X322400000Y-67500000I0J75000D01*
G01*
X322400000Y-66175000D01*
G75*
G02*
X322475000Y-66100000I75000J0D01*
G01*
X322625000Y-66100000D01*
G75*
G02*
X322700000Y-66175000I0J-75000D01*
G01*
X322700000Y-67500000D01*
G75*
G02*
X322625000Y-67575000I-75000J0D01*
G01*
G37*
G36*
G01*
X323125000Y-67575000D02*
X322975000Y-67575000D01*
G75*
G02*
X322900000Y-67500000I0J75000D01*
G01*
X322900000Y-66175000D01*
G75*
G02*
X322975000Y-66100000I75000J0D01*
G01*
X323125000Y-66100000D01*
G75*
G02*
X323200000Y-66175000I0J-75000D01*
G01*
X323200000Y-67500000D01*
G75*
G02*
X323125000Y-67575000I-75000J0D01*
G01*
G37*
G36*
G01*
X323625000Y-67575000D02*
X323475000Y-67575000D01*
G75*
G02*
X323400000Y-67500000I0J75000D01*
G01*
X323400000Y-66175000D01*
G75*
G02*
X323475000Y-66100000I75000J0D01*
G01*
X323625000Y-66100000D01*
G75*
G02*
X323700000Y-66175000I0J-75000D01*
G01*
X323700000Y-67500000D01*
G75*
G02*
X323625000Y-67575000I-75000J0D01*
G01*
G37*
G36*
G01*
X325625000Y-68400000D02*
X324300000Y-68400000D01*
G75*
G02*
X324225000Y-68325000I0J75000D01*
G01*
X324225000Y-68175000D01*
G75*
G02*
X324300000Y-68100000I75000J0D01*
G01*
X325625000Y-68100000D01*
G75*
G02*
X325700000Y-68175000I0J-75000D01*
G01*
X325700000Y-68325000D01*
G75*
G02*
X325625000Y-68400000I-75000J0D01*
G01*
G37*
G36*
G01*
X325625000Y-68900000D02*
X324300000Y-68900000D01*
G75*
G02*
X324225000Y-68825000I0J75000D01*
G01*
X324225000Y-68675000D01*
G75*
G02*
X324300000Y-68600000I75000J0D01*
G01*
X325625000Y-68600000D01*
G75*
G02*
X325700000Y-68675000I0J-75000D01*
G01*
X325700000Y-68825000D01*
G75*
G02*
X325625000Y-68900000I-75000J0D01*
G01*
G37*
G36*
G01*
X325625000Y-69400000D02*
X324300000Y-69400000D01*
G75*
G02*
X324225000Y-69325000I0J75000D01*
G01*
X324225000Y-69175000D01*
G75*
G02*
X324300000Y-69100000I75000J0D01*
G01*
X325625000Y-69100000D01*
G75*
G02*
X325700000Y-69175000I0J-75000D01*
G01*
X325700000Y-69325000D01*
G75*
G02*
X325625000Y-69400000I-75000J0D01*
G01*
G37*
G36*
G01*
X325625000Y-69900000D02*
X324300000Y-69900000D01*
G75*
G02*
X324225000Y-69825000I0J75000D01*
G01*
X324225000Y-69675000D01*
G75*
G02*
X324300000Y-69600000I75000J0D01*
G01*
X325625000Y-69600000D01*
G75*
G02*
X325700000Y-69675000I0J-75000D01*
G01*
X325700000Y-69825000D01*
G75*
G02*
X325625000Y-69900000I-75000J0D01*
G01*
G37*
G36*
G01*
X325625000Y-70400000D02*
X324300000Y-70400000D01*
G75*
G02*
X324225000Y-70325000I0J75000D01*
G01*
X324225000Y-70175000D01*
G75*
G02*
X324300000Y-70100000I75000J0D01*
G01*
X325625000Y-70100000D01*
G75*
G02*
X325700000Y-70175000I0J-75000D01*
G01*
X325700000Y-70325000D01*
G75*
G02*
X325625000Y-70400000I-75000J0D01*
G01*
G37*
G36*
G01*
X325625000Y-70900000D02*
X324300000Y-70900000D01*
G75*
G02*
X324225000Y-70825000I0J75000D01*
G01*
X324225000Y-70675000D01*
G75*
G02*
X324300000Y-70600000I75000J0D01*
G01*
X325625000Y-70600000D01*
G75*
G02*
X325700000Y-70675000I0J-75000D01*
G01*
X325700000Y-70825000D01*
G75*
G02*
X325625000Y-70900000I-75000J0D01*
G01*
G37*
G36*
G01*
X325625000Y-71400000D02*
X324300000Y-71400000D01*
G75*
G02*
X324225000Y-71325000I0J75000D01*
G01*
X324225000Y-71175000D01*
G75*
G02*
X324300000Y-71100000I75000J0D01*
G01*
X325625000Y-71100000D01*
G75*
G02*
X325700000Y-71175000I0J-75000D01*
G01*
X325700000Y-71325000D01*
G75*
G02*
X325625000Y-71400000I-75000J0D01*
G01*
G37*
G36*
G01*
X325625000Y-71900000D02*
X324300000Y-71900000D01*
G75*
G02*
X324225000Y-71825000I0J75000D01*
G01*
X324225000Y-71675000D01*
G75*
G02*
X324300000Y-71600000I75000J0D01*
G01*
X325625000Y-71600000D01*
G75*
G02*
X325700000Y-71675000I0J-75000D01*
G01*
X325700000Y-71825000D01*
G75*
G02*
X325625000Y-71900000I-75000J0D01*
G01*
G37*
G36*
G01*
X325625000Y-72400000D02*
X324300000Y-72400000D01*
G75*
G02*
X324225000Y-72325000I0J75000D01*
G01*
X324225000Y-72175000D01*
G75*
G02*
X324300000Y-72100000I75000J0D01*
G01*
X325625000Y-72100000D01*
G75*
G02*
X325700000Y-72175000I0J-75000D01*
G01*
X325700000Y-72325000D01*
G75*
G02*
X325625000Y-72400000I-75000J0D01*
G01*
G37*
G36*
G01*
X325625000Y-72900000D02*
X324300000Y-72900000D01*
G75*
G02*
X324225000Y-72825000I0J75000D01*
G01*
X324225000Y-72675000D01*
G75*
G02*
X324300000Y-72600000I75000J0D01*
G01*
X325625000Y-72600000D01*
G75*
G02*
X325700000Y-72675000I0J-75000D01*
G01*
X325700000Y-72825000D01*
G75*
G02*
X325625000Y-72900000I-75000J0D01*
G01*
G37*
G36*
G01*
X325625000Y-73400000D02*
X324300000Y-73400000D01*
G75*
G02*
X324225000Y-73325000I0J75000D01*
G01*
X324225000Y-73175000D01*
G75*
G02*
X324300000Y-73100000I75000J0D01*
G01*
X325625000Y-73100000D01*
G75*
G02*
X325700000Y-73175000I0J-75000D01*
G01*
X325700000Y-73325000D01*
G75*
G02*
X325625000Y-73400000I-75000J0D01*
G01*
G37*
G36*
G01*
X325625000Y-73900000D02*
X324300000Y-73900000D01*
G75*
G02*
X324225000Y-73825000I0J75000D01*
G01*
X324225000Y-73675000D01*
G75*
G02*
X324300000Y-73600000I75000J0D01*
G01*
X325625000Y-73600000D01*
G75*
G02*
X325700000Y-73675000I0J-75000D01*
G01*
X325700000Y-73825000D01*
G75*
G02*
X325625000Y-73900000I-75000J0D01*
G01*
G37*
%TD*%
%TO.C,C9*%
G36*
G01*
X327162500Y-79300000D02*
X327637500Y-79300000D01*
G75*
G02*
X327875000Y-79537500I0J-237500D01*
G01*
X327875000Y-80137500D01*
G75*
G02*
X327637500Y-80375000I-237500J0D01*
G01*
X327162500Y-80375000D01*
G75*
G02*
X326925000Y-80137500I0J237500D01*
G01*
X326925000Y-79537500D01*
G75*
G02*
X327162500Y-79300000I237500J0D01*
G01*
G37*
G36*
G01*
X327162500Y-81025000D02*
X327637500Y-81025000D01*
G75*
G02*
X327875000Y-81262500I0J-237500D01*
G01*
X327875000Y-81862500D01*
G75*
G02*
X327637500Y-82100000I-237500J0D01*
G01*
X327162500Y-82100000D01*
G75*
G02*
X326925000Y-81862500I0J237500D01*
G01*
X326925000Y-81262500D01*
G75*
G02*
X327162500Y-81025000I237500J0D01*
G01*
G37*
%TD*%
%TO.C,C10*%
G36*
G01*
X316162500Y-79300000D02*
X316637500Y-79300000D01*
G75*
G02*
X316875000Y-79537500I0J-237500D01*
G01*
X316875000Y-80137500D01*
G75*
G02*
X316637500Y-80375000I-237500J0D01*
G01*
X316162500Y-80375000D01*
G75*
G02*
X315925000Y-80137500I0J237500D01*
G01*
X315925000Y-79537500D01*
G75*
G02*
X316162500Y-79300000I237500J0D01*
G01*
G37*
G36*
G01*
X316162500Y-81025000D02*
X316637500Y-81025000D01*
G75*
G02*
X316875000Y-81262500I0J-237500D01*
G01*
X316875000Y-81862500D01*
G75*
G02*
X316637500Y-82100000I-237500J0D01*
G01*
X316162500Y-82100000D01*
G75*
G02*
X315925000Y-81862500I0J237500D01*
G01*
X315925000Y-81262500D01*
G75*
G02*
X316162500Y-81025000I237500J0D01*
G01*
G37*
%TD*%
%TO.C,C11*%
G36*
G01*
X345175000Y-135262500D02*
X345175000Y-135737500D01*
G75*
G02*
X344937500Y-135975000I-237500J0D01*
G01*
X344337500Y-135975000D01*
G75*
G02*
X344100000Y-135737500I0J237500D01*
G01*
X344100000Y-135262500D01*
G75*
G02*
X344337500Y-135025000I237500J0D01*
G01*
X344937500Y-135025000D01*
G75*
G02*
X345175000Y-135262500I0J-237500D01*
G01*
G37*
G36*
G01*
X346900000Y-135262500D02*
X346900000Y-135737500D01*
G75*
G02*
X346662500Y-135975000I-237500J0D01*
G01*
X346062500Y-135975000D01*
G75*
G02*
X345825000Y-135737500I0J237500D01*
G01*
X345825000Y-135262500D01*
G75*
G02*
X346062500Y-135025000I237500J0D01*
G01*
X346662500Y-135025000D01*
G75*
G02*
X346900000Y-135262500I0J-237500D01*
G01*
G37*
%TD*%
%TO.C,C12*%
G36*
G01*
X207462500Y-65600000D02*
X207937500Y-65600000D01*
G75*
G02*
X208175000Y-65837500I0J-237500D01*
G01*
X208175000Y-66437500D01*
G75*
G02*
X207937500Y-66675000I-237500J0D01*
G01*
X207462500Y-66675000D01*
G75*
G02*
X207225000Y-66437500I0J237500D01*
G01*
X207225000Y-65837500D01*
G75*
G02*
X207462500Y-65600000I237500J0D01*
G01*
G37*
G36*
G01*
X207462500Y-67325000D02*
X207937500Y-67325000D01*
G75*
G02*
X208175000Y-67562500I0J-237500D01*
G01*
X208175000Y-68162500D01*
G75*
G02*
X207937500Y-68400000I-237500J0D01*
G01*
X207462500Y-68400000D01*
G75*
G02*
X207225000Y-68162500I0J237500D01*
G01*
X207225000Y-67562500D01*
G75*
G02*
X207462500Y-67325000I237500J0D01*
G01*
G37*
%TD*%
%TO.C,C13*%
G36*
G01*
X263662500Y-59500000D02*
X264137500Y-59500000D01*
G75*
G02*
X264375000Y-59737500I0J-237500D01*
G01*
X264375000Y-60337500D01*
G75*
G02*
X264137500Y-60575000I-237500J0D01*
G01*
X263662500Y-60575000D01*
G75*
G02*
X263425000Y-60337500I0J237500D01*
G01*
X263425000Y-59737500D01*
G75*
G02*
X263662500Y-59500000I237500J0D01*
G01*
G37*
G36*
G01*
X263662500Y-61225000D02*
X264137500Y-61225000D01*
G75*
G02*
X264375000Y-61462500I0J-237500D01*
G01*
X264375000Y-62062500D01*
G75*
G02*
X264137500Y-62300000I-237500J0D01*
G01*
X263662500Y-62300000D01*
G75*
G02*
X263425000Y-62062500I0J237500D01*
G01*
X263425000Y-61462500D01*
G75*
G02*
X263662500Y-61225000I237500J0D01*
G01*
G37*
%TD*%
%TO.C,C14*%
G36*
G01*
X351500000Y-96762500D02*
X351500000Y-97237500D01*
G75*
G02*
X351262500Y-97475000I-237500J0D01*
G01*
X350662500Y-97475000D01*
G75*
G02*
X350425000Y-97237500I0J237500D01*
G01*
X350425000Y-96762500D01*
G75*
G02*
X350662500Y-96525000I237500J0D01*
G01*
X351262500Y-96525000D01*
G75*
G02*
X351500000Y-96762500I0J-237500D01*
G01*
G37*
G36*
G01*
X349775000Y-96762500D02*
X349775000Y-97237500D01*
G75*
G02*
X349537500Y-97475000I-237500J0D01*
G01*
X348937500Y-97475000D01*
G75*
G02*
X348700000Y-97237500I0J237500D01*
G01*
X348700000Y-96762500D01*
G75*
G02*
X348937500Y-96525000I237500J0D01*
G01*
X349537500Y-96525000D01*
G75*
G02*
X349775000Y-96762500I0J-237500D01*
G01*
G37*
%TD*%
%TO.C,C15*%
G36*
G01*
X98437500Y-161400000D02*
X97962500Y-161400000D01*
G75*
G02*
X97725000Y-161162500I0J237500D01*
G01*
X97725000Y-160562500D01*
G75*
G02*
X97962500Y-160325000I237500J0D01*
G01*
X98437500Y-160325000D01*
G75*
G02*
X98675000Y-160562500I0J-237500D01*
G01*
X98675000Y-161162500D01*
G75*
G02*
X98437500Y-161400000I-237500J0D01*
G01*
G37*
G36*
G01*
X98437500Y-159675000D02*
X97962500Y-159675000D01*
G75*
G02*
X97725000Y-159437500I0J237500D01*
G01*
X97725000Y-158837500D01*
G75*
G02*
X97962500Y-158600000I237500J0D01*
G01*
X98437500Y-158600000D01*
G75*
G02*
X98675000Y-158837500I0J-237500D01*
G01*
X98675000Y-159437500D01*
G75*
G02*
X98437500Y-159675000I-237500J0D01*
G01*
G37*
%TD*%
%TO.C,C16*%
G36*
G01*
X298237500Y-152975000D02*
X297762500Y-152975000D01*
G75*
G02*
X297525000Y-152737500I0J237500D01*
G01*
X297525000Y-152137500D01*
G75*
G02*
X297762500Y-151900000I237500J0D01*
G01*
X298237500Y-151900000D01*
G75*
G02*
X298475000Y-152137500I0J-237500D01*
G01*
X298475000Y-152737500D01*
G75*
G02*
X298237500Y-152975000I-237500J0D01*
G01*
G37*
G36*
G01*
X298237500Y-154700000D02*
X297762500Y-154700000D01*
G75*
G02*
X297525000Y-154462500I0J237500D01*
G01*
X297525000Y-153862500D01*
G75*
G02*
X297762500Y-153625000I237500J0D01*
G01*
X298237500Y-153625000D01*
G75*
G02*
X298475000Y-153862500I0J-237500D01*
G01*
X298475000Y-154462500D01*
G75*
G02*
X298237500Y-154700000I-237500J0D01*
G01*
G37*
%TD*%
%TO.C,C17*%
G36*
G01*
X67725000Y-97437500D02*
X67725000Y-96962500D01*
G75*
G02*
X67962500Y-96725000I237500J0D01*
G01*
X68562500Y-96725000D01*
G75*
G02*
X68800000Y-96962500I0J-237500D01*
G01*
X68800000Y-97437500D01*
G75*
G02*
X68562500Y-97675000I-237500J0D01*
G01*
X67962500Y-97675000D01*
G75*
G02*
X67725000Y-97437500I0J237500D01*
G01*
G37*
G36*
G01*
X66000000Y-97437500D02*
X66000000Y-96962500D01*
G75*
G02*
X66237500Y-96725000I237500J0D01*
G01*
X66837500Y-96725000D01*
G75*
G02*
X67075000Y-96962500I0J-237500D01*
G01*
X67075000Y-97437500D01*
G75*
G02*
X66837500Y-97675000I-237500J0D01*
G01*
X66237500Y-97675000D01*
G75*
G02*
X66000000Y-97437500I0J237500D01*
G01*
G37*
%TD*%
%TO.C,C18*%
G36*
G01*
X112162500Y-68625000D02*
X112637500Y-68625000D01*
G75*
G02*
X112875000Y-68862500I0J-237500D01*
G01*
X112875000Y-69462500D01*
G75*
G02*
X112637500Y-69700000I-237500J0D01*
G01*
X112162500Y-69700000D01*
G75*
G02*
X111925000Y-69462500I0J237500D01*
G01*
X111925000Y-68862500D01*
G75*
G02*
X112162500Y-68625000I237500J0D01*
G01*
G37*
G36*
G01*
X112162500Y-66900000D02*
X112637500Y-66900000D01*
G75*
G02*
X112875000Y-67137500I0J-237500D01*
G01*
X112875000Y-67737500D01*
G75*
G02*
X112637500Y-67975000I-237500J0D01*
G01*
X112162500Y-67975000D01*
G75*
G02*
X111925000Y-67737500I0J237500D01*
G01*
X111925000Y-67137500D01*
G75*
G02*
X112162500Y-66900000I237500J0D01*
G01*
G37*
%TD*%
%TO.C,C19*%
G36*
G01*
X203137500Y-134875000D02*
X202662500Y-134875000D01*
G75*
G02*
X202425000Y-134637500I0J237500D01*
G01*
X202425000Y-134037500D01*
G75*
G02*
X202662500Y-133800000I237500J0D01*
G01*
X203137500Y-133800000D01*
G75*
G02*
X203375000Y-134037500I0J-237500D01*
G01*
X203375000Y-134637500D01*
G75*
G02*
X203137500Y-134875000I-237500J0D01*
G01*
G37*
G36*
G01*
X203137500Y-136600000D02*
X202662500Y-136600000D01*
G75*
G02*
X202425000Y-136362500I0J237500D01*
G01*
X202425000Y-135762500D01*
G75*
G02*
X202662500Y-135525000I237500J0D01*
G01*
X203137500Y-135525000D01*
G75*
G02*
X203375000Y-135762500I0J-237500D01*
G01*
X203375000Y-136362500D01*
G75*
G02*
X203137500Y-136600000I-237500J0D01*
G01*
G37*
%TD*%
%TO.C,C20*%
G36*
G01*
X74225000Y-135537500D02*
X74225000Y-135062500D01*
G75*
G02*
X74462500Y-134825000I237500J0D01*
G01*
X75062500Y-134825000D01*
G75*
G02*
X75300000Y-135062500I0J-237500D01*
G01*
X75300000Y-135537500D01*
G75*
G02*
X75062500Y-135775000I-237500J0D01*
G01*
X74462500Y-135775000D01*
G75*
G02*
X74225000Y-135537500I0J237500D01*
G01*
G37*
G36*
G01*
X72500000Y-135537500D02*
X72500000Y-135062500D01*
G75*
G02*
X72737500Y-134825000I237500J0D01*
G01*
X73337500Y-134825000D01*
G75*
G02*
X73575000Y-135062500I0J-237500D01*
G01*
X73575000Y-135537500D01*
G75*
G02*
X73337500Y-135775000I-237500J0D01*
G01*
X72737500Y-135775000D01*
G75*
G02*
X72500000Y-135537500I0J237500D01*
G01*
G37*
%TD*%
D22*
%TO.C,J1*%
X318800000Y-62100000D03*
X319650000Y-62100000D03*
X320500000Y-62100000D03*
X321350000Y-62100000D03*
X322200000Y-62100000D03*
X323050000Y-62100000D03*
X323900000Y-62100000D03*
X324750000Y-62100000D03*
X319650000Y-60750000D03*
X321350000Y-60750000D03*
X320500000Y-60750000D03*
X318800000Y-60750000D03*
X323050000Y-60750000D03*
X323900000Y-60750000D03*
X324750000Y-60750000D03*
X322200000Y-60750000D03*
D23*
X317450000Y-61120000D03*
X326100000Y-61120000D03*
D24*
X317450000Y-57740000D03*
X326100000Y-57740000D03*
%TD*%
%TO.C,R90*%
G36*
G01*
X290600000Y-62137500D02*
X290600000Y-61662500D01*
G75*
G02*
X290837500Y-61425000I237500J0D01*
G01*
X291337500Y-61425000D01*
G75*
G02*
X291575000Y-61662500I0J-237500D01*
G01*
X291575000Y-62137500D01*
G75*
G02*
X291337500Y-62375000I-237500J0D01*
G01*
X290837500Y-62375000D01*
G75*
G02*
X290600000Y-62137500I0J237500D01*
G01*
G37*
G36*
G01*
X292425000Y-62137500D02*
X292425000Y-61662500D01*
G75*
G02*
X292662500Y-61425000I237500J0D01*
G01*
X293162500Y-61425000D01*
G75*
G02*
X293400000Y-61662500I0J-237500D01*
G01*
X293400000Y-62137500D01*
G75*
G02*
X293162500Y-62375000I-237500J0D01*
G01*
X292662500Y-62375000D01*
G75*
G02*
X292425000Y-62137500I0J237500D01*
G01*
G37*
%TD*%
%TO.C,D164*%
G36*
G01*
X280670000Y-157752500D02*
X280670000Y-158227500D01*
G75*
G02*
X280432500Y-158465000I-237500J0D01*
G01*
X279857500Y-158465000D01*
G75*
G02*
X279620000Y-158227500I0J237500D01*
G01*
X279620000Y-157752500D01*
G75*
G02*
X279857500Y-157515000I237500J0D01*
G01*
X280432500Y-157515000D01*
G75*
G02*
X280670000Y-157752500I0J-237500D01*
G01*
G37*
G36*
G01*
X278920000Y-157752500D02*
X278920000Y-158227500D01*
G75*
G02*
X278682500Y-158465000I-237500J0D01*
G01*
X278107500Y-158465000D01*
G75*
G02*
X277870000Y-158227500I0J237500D01*
G01*
X277870000Y-157752500D01*
G75*
G02*
X278107500Y-157515000I237500J0D01*
G01*
X278682500Y-157515000D01*
G75*
G02*
X278920000Y-157752500I0J-237500D01*
G01*
G37*
%TD*%
D10*
%TO.C,FN1*%
X271780000Y-168950000D03*
X278130000Y-166410000D03*
D11*
X274320000Y-163870000D03*
D12*
X279400000Y-163870000D03*
X269240000Y-163870000D03*
%TD*%
%TO.C,R91*%
G36*
G01*
X268000000Y-158237500D02*
X268000000Y-157762500D01*
G75*
G02*
X268237500Y-157525000I237500J0D01*
G01*
X268737500Y-157525000D01*
G75*
G02*
X268975000Y-157762500I0J-237500D01*
G01*
X268975000Y-158237500D01*
G75*
G02*
X268737500Y-158475000I-237500J0D01*
G01*
X268237500Y-158475000D01*
G75*
G02*
X268000000Y-158237500I0J237500D01*
G01*
G37*
G36*
G01*
X269825000Y-158237500D02*
X269825000Y-157762500D01*
G75*
G02*
X270062500Y-157525000I237500J0D01*
G01*
X270562500Y-157525000D01*
G75*
G02*
X270800000Y-157762500I0J-237500D01*
G01*
X270800000Y-158237500D01*
G75*
G02*
X270562500Y-158475000I-237500J0D01*
G01*
X270062500Y-158475000D01*
G75*
G02*
X269825000Y-158237500I0J237500D01*
G01*
G37*
%TD*%
%TO.C,SUPER1*%
X83500000Y-163870000D03*
X93660000Y-163870000D03*
D11*
X88580000Y-163870000D03*
D10*
X92390000Y-166410000D03*
X86040000Y-168950000D03*
%TD*%
%TO.C,PICDOWN1*%
X347950000Y-168950000D03*
X354300000Y-166410000D03*
D11*
X350490000Y-163870000D03*
D12*
X355570000Y-163870000D03*
X345410000Y-163870000D03*
%TD*%
%TO.C,PICUP1*%
X345410000Y-144820000D03*
X355570000Y-144820000D03*
D11*
X350490000Y-144820000D03*
D10*
X354300000Y-147360000D03*
X347950000Y-149900000D03*
%TD*%
%TO.C,RSHIFT1*%
X328900000Y-149910000D03*
X335250000Y-147370000D03*
D11*
X331440000Y-144830000D03*
D12*
X336520000Y-144830000D03*
X326360000Y-144830000D03*
%TD*%
D10*
%TO.C,SHIFT1*%
X71730000Y-149900000D03*
X78080000Y-147360000D03*
D11*
X74270000Y-144820000D03*
D12*
X79350000Y-144820000D03*
X69190000Y-144820000D03*
D11*
X62370000Y-136580000D03*
X86170000Y-136580000D03*
D13*
X86170000Y-151820000D03*
X62370000Y-151820000D03*
%TD*%
D25*
%TO.C,H2*%
X74300000Y-59700000D03*
D26*
X74300000Y-59700000D03*
%TD*%
%TO.C,H3*%
X77900000Y-172800000D03*
D25*
X77900000Y-172800000D03*
%TD*%
%TO.C,H4*%
X340900000Y-172600000D03*
D26*
X340900000Y-172600000D03*
%TD*%
%TO.C,H5*%
X341000000Y-59700000D03*
D25*
X341000000Y-59700000D03*
%TD*%
%TO.C,H6*%
X207600000Y-59700000D03*
D26*
X207600000Y-59700000D03*
%TD*%
%TO.C,H7*%
X207600000Y-172800000D03*
D25*
X207600000Y-172800000D03*
%TD*%
%TO.C,H8*%
X140900000Y-115600000D03*
D26*
X140900000Y-115600000D03*
%TD*%
%TO.C,H9*%
X274300000Y-115600000D03*
D25*
X274300000Y-115600000D03*
%TD*%
D27*
%TO.C,Y2*%
X324662500Y-80700000D03*
X319137500Y-80700000D03*
%TD*%
M02*
