M48
; DRILL file {KiCad (5.1.9)-1} date 03/14/21 17:46:52
; FORMAT={-:-/ absolute / metric / decimal}
; #@! TF.CreationDate,2021-03-14T17:46:52+01:00
; #@! TF.GenerationSoftware,Kicad,Pcbnew,(5.1.9)-1
; #@! TF.FileFunction,Plated,1,2,PTH
FMAT,2
METRIC
T1C0.300
T2C0.400
T3C0.600
T4C1.000
T5C1.500
T6C3.200
%
G90
G05
T1
X71.02Y-80.18
X90.07Y-79.53
X109.12Y-78.98
X261.52Y-78.48
X280.57Y-78.03
X300.6Y-72.2
X301.55Y-139.05
X301.7Y-72.6
X301.8Y-70.7
X301.9Y-134.9
X303.0Y-135.8
X303.4Y-83.0
X304.45Y-76.35
X304.55Y-139.05
X308.5Y-74.4
X310.1Y-108.7
X310.7Y-74.5
X311.4Y-75.2
X311.7Y-135.8
X312.1Y-75.9
X312.5Y-99.6
X312.9Y-76.6
X313.1Y-134.9
X313.4Y-99.6
X314.575Y-99.575
X314.79Y-68.61
X315.7Y-99.6
X316.6Y-99.6
X317.0Y-126.8
X317.3Y-83.9
X317.5Y-83.0
X317.9Y-126.8
X318.037Y-78.162
X318.3Y-84.5
X318.55Y-71.25
X318.7Y-108.7
X319.375Y-84.525
X319.8Y-69.4
X320.05Y-73.75
X320.4Y-76.6
X320.4Y-77.4
X320.4Y-78.2
X320.6Y-68.8
X321.3Y-69.7
X321.5Y-83.4
X322.178Y-63.422
X322.55Y-68.35
X323.4Y-68.4
X323.925Y-92.225
X326.844Y-86.044
X331.45Y-86.05
X336.4Y-75.8
X338.1Y-90.9
X339.9Y-69.4
X340.7Y-70.0
X341.1Y-70.7
X341.6Y-71.4
X341.6Y-98.2
X342.1Y-72.1
X342.5Y-76.3
X342.7Y-98.188
X343.1Y-77.0
X346.7Y-65.9
X346.7Y-66.8
T2
X62.5Y-82.0
X62.75Y-63.0
X64.6Y-97.2
X65.0Y-158.25
X67.25Y-101.0
X69.55Y-119.8
X69.55Y-121.3
X71.4Y-95.1
X71.6Y-135.3
X72.25Y-139.25
X81.75Y-63.0
X81.75Y-82.0
X86.5Y-158.25
X89.6Y-135.1
X90.7Y-137.0
X90.9Y-135.6
X91.25Y-101.0
X96.0Y-120.0
X98.2Y-162.7
X100.75Y-63.0
X100.75Y-82.0
X100.75Y-139.25
X108.0Y-158.25
X110.25Y-101.0
X112.4Y-65.7
X113.82Y-136.52
X115.0Y-120.0
X119.5Y-63.0
X119.75Y-82.0
X119.75Y-139.25
X129.25Y-101.0
X134.25Y-120.0
X134.3Y-96.0
X138.75Y-63.0
X138.75Y-139.25
X139.0Y-82.0
X148.25Y-101.0
X153.0Y-120.0
X154.095Y-96.505
X157.75Y-63.0
X158.0Y-82.0
X158.0Y-139.25
X167.5Y-101.0
X172.25Y-120.0
X173.7Y-97.0
X177.0Y-63.0
X177.0Y-82.0
X177.0Y-139.25
X179.5Y-158.25
X185.6Y-148.8
X185.6Y-151.3
X186.5Y-101.0
X191.25Y-120.0
X193.2Y-97.6
X196.0Y-63.0
X196.0Y-82.0
X196.0Y-139.25
X201.337Y-136.062
X205.5Y-101.0
X207.7Y-64.7
X210.25Y-120.0
X212.65Y-98.05
X215.0Y-63.0
X215.0Y-82.0
X215.0Y-139.25
X224.75Y-101.0
X229.25Y-120.0
X232.2Y-98.5
X233.75Y-82.0
X234.0Y-63.0
X234.25Y-139.25
X243.75Y-101.0
X248.5Y-120.0
X251.0Y-158.25
X251.7Y-99.0
X253.0Y-63.0
X253.25Y-82.0
X253.25Y-139.25
X256.7Y-158.1
X262.75Y-101.0
X263.9Y-58.3
X267.5Y-120.0
X272.0Y-82.0
X272.2Y-63.0
X272.25Y-139.25
X272.25Y-158.25
X281.75Y-101.0
X283.8Y-158.0
X283.8Y-160.6
X286.5Y-120.0
X289.2Y-60.9
X291.25Y-139.25
X291.25Y-158.25
X291.325Y-82.075
X291.4Y-63.0
X296.337Y-154.162
X296.55Y-82.65
X296.6Y-103.3
X296.6Y-119.7
X300.3Y-62.4
X300.75Y-101.0
X303.0Y-160.0
X304.4Y-65.9
X305.5Y-120.0
X307.2Y-101.0
X307.9Y-69.0
X308.6Y-57.5
X310.0Y-71.3
X310.25Y-139.25
X310.25Y-158.25
X311.3Y-107.5
X311.3Y-110.2
X312.0Y-122.0
X312.4Y-120.8
X317.8Y-120.8
X318.8Y-60.75
X318.8Y-62.1
X319.6Y-120.8
X319.6Y-140.0
X319.6Y-159.2
X319.65Y-60.75
X319.65Y-62.1
X319.9Y-72.6
X320.0Y-115.9
X320.3Y-83.0
X320.5Y-60.75
X320.5Y-62.1
X320.5Y-155.8
X320.6Y-131.1
X321.35Y-60.75
X321.35Y-62.1
X321.4Y-151.36
X321.6Y-132.0
X322.2Y-60.75
X322.2Y-62.1
X322.6Y-72.7
X323.05Y-60.75
X323.05Y-62.1
X323.9Y-60.75
X323.9Y-62.1
X324.7Y-135.4
X324.75Y-60.75
X324.75Y-62.1
X325.6Y-75.7
X326.5Y-73.8
X326.9Y-133.4
X328.837Y-81.562
X329.2Y-67.0
X329.5Y-139.25
X329.5Y-158.25
X330.75Y-122.0
X331.3Y-75.5
X332.5Y-64.8
X335.2Y-72.9
X336.0Y-140.0
X338.1Y-56.9
X339.5Y-100.5
X342.1Y-67.8
X342.1Y-69.7
X343.5Y-140.0
X343.71Y-68.71
X345.4Y-72.1
X347.3Y-72.0
X347.5Y-98.5
X348.35Y-120.1
X348.5Y-101.0
X348.5Y-139.25
X348.5Y-158.25
X348.6Y-135.5
X353.0Y-97.0
X353.25Y-64.25
X354.5Y-82.0
T4
X268.0Y-58.9
X270.54Y-58.9
X273.08Y-58.9
X275.62Y-58.9
X278.16Y-58.9
X280.7Y-58.9
X288.2Y-58.9
X290.74Y-58.9
X293.28Y-58.9
X295.82Y-58.9
X298.36Y-58.9
T5
X62.2Y-73.7
X62.2Y-92.75
X64.6Y-168.95
X66.96Y-111.8
X68.55Y-71.16
X68.55Y-90.21
X69.35Y-130.85
X70.95Y-166.41
X71.73Y-149.9
X73.31Y-109.26
X75.7Y-128.31
X78.08Y-147.36
X81.25Y-73.7
X81.25Y-92.75
X86.04Y-168.95
X87.6Y-71.16
X87.6Y-90.21
X90.775Y-111.8
X92.39Y-166.41
X95.55Y-130.85
X97.125Y-109.26
X100.295Y-149.9
X100.3Y-73.7
X100.3Y-92.75
X101.9Y-128.31
X106.645Y-147.36
X106.65Y-71.16
X106.65Y-90.21
X107.47Y-168.95
X109.825Y-111.8
X113.82Y-166.41
X114.6Y-130.85
X116.175Y-109.26
X119.345Y-149.9
X119.35Y-73.7
X119.35Y-92.75
X120.95Y-128.31
X125.695Y-147.36
X125.7Y-71.16
X125.7Y-90.21
X128.875Y-111.8
X133.65Y-130.85
X135.225Y-109.26
X138.395Y-149.9
X138.4Y-73.7
X138.4Y-92.75
X140.0Y-128.31
X144.745Y-147.36
X144.75Y-71.16
X144.75Y-90.21
X147.925Y-111.8
X152.7Y-130.85
X154.275Y-109.26
X157.445Y-149.9
X157.45Y-73.7
X157.45Y-92.75
X159.05Y-128.31
X163.795Y-147.36
X163.8Y-71.16
X163.8Y-90.21
X166.975Y-111.8
X171.75Y-130.85
X173.325Y-109.26
X176.495Y-149.9
X176.5Y-73.7
X176.5Y-92.75
X178.1Y-128.31
X178.91Y-168.95
X182.845Y-147.36
X182.85Y-71.16
X182.85Y-90.21
X185.26Y-166.41
X186.025Y-111.8
X190.8Y-130.85
X192.375Y-109.26
X195.545Y-149.9
X195.55Y-73.7
X195.55Y-92.75
X197.15Y-128.31
X201.895Y-147.36
X201.9Y-71.16
X201.9Y-90.21
X205.075Y-111.8
X209.85Y-130.85
X211.425Y-109.26
X214.595Y-149.9
X214.6Y-73.7
X214.6Y-92.75
X216.2Y-128.31
X220.945Y-147.36
X220.95Y-71.16
X220.95Y-90.21
X224.125Y-111.8
X228.9Y-130.85
X230.475Y-109.26
X233.645Y-149.9
X233.65Y-73.7
X233.65Y-92.75
X235.25Y-128.31
X239.995Y-147.36
X240.0Y-71.16
X240.0Y-90.21
X243.175Y-111.8
X247.95Y-130.85
X249.525Y-109.26
X250.35Y-168.95
X252.695Y-149.9
X252.7Y-73.7
X252.7Y-92.75
X254.3Y-128.31
X256.7Y-166.41
X259.045Y-147.36
X259.05Y-71.16
X259.05Y-90.21
X262.225Y-111.8
X267.0Y-130.85
X268.575Y-109.26
X271.745Y-149.9
X271.75Y-73.7
X271.75Y-92.75
X271.78Y-168.95
X273.35Y-128.31
X278.095Y-147.36
X278.1Y-71.16
X278.1Y-90.21
X278.13Y-166.41
X281.275Y-111.8
X286.05Y-130.85
X287.625Y-109.26
X290.795Y-149.9
X290.8Y-73.7
X290.8Y-92.75
X290.8Y-168.96
X292.4Y-128.31
X297.145Y-147.36
X297.15Y-71.16
X297.15Y-90.21
X297.15Y-166.42
X300.325Y-111.8
X305.1Y-130.85
X306.675Y-109.26
X309.85Y-149.91
X309.855Y-168.96
X311.45Y-128.31
X316.2Y-147.37
X316.205Y-166.42
X319.375Y-92.75
X325.25Y-113.715
X325.725Y-90.21
X328.9Y-149.91
X328.905Y-168.96
X331.6Y-111.175
X335.25Y-147.37
X335.255Y-166.42
X347.95Y-73.7
X347.95Y-92.75
X347.95Y-111.8
X347.95Y-130.85
X347.95Y-149.9
X347.95Y-168.95
X354.3Y-71.16
X354.3Y-90.21
X354.3Y-109.26
X354.3Y-128.31
X354.3Y-147.36
X354.3Y-166.41
T6
X74.3Y-59.7
X77.9Y-172.8
X140.9Y-115.6
X207.6Y-59.7
X207.6Y-172.8
X274.3Y-115.6
X340.9Y-172.6
X341.0Y-59.7
T3
G00X317.45Y-57.34
M15
G01X317.45Y-58.14
M16
G05
G00X317.45Y-60.37
M15
G01X317.45Y-61.87
M16
G05
G00X326.1Y-57.34
M15
G01X326.1Y-58.14
M16
G05
G00X326.1Y-60.37
M15
G01X326.1Y-61.87
M16
G05
T0
M30
